{"glyphs":{"0":{"ha":751,"x_min":107,"x_max":672,"o":"m 458 935 q 261 838 340 935 q 144 594 182 740 q 107 299 107 447 q 163 65 107 144 q 322 -14 218 -14 q 518 83 439 -14 q 635 326 597 179 q 672 621 672 472 q 618 856 672 776 q 458 935 564 935 m 458 906 q 640 624 640 906 q 606 338 640 478 q 499 107 571 199 q 322 15 428 15 q 139 297 139 15 q 174 582 139 442 q 281 814 208 722 q 458 906 353 906 z "},"1":{"ha":546,"x_min":128,"x_max":439,"o":"m 439 918 l 310 0 l 279 0 l 403 881 l 142 728 l 128 753 l 414 918 l 439 918 z "},"2":{"ha":644,"x_min":15,"x_max":594,"o":"m 381 935 q 537 878 479 935 q 594 732 594 822 q 555 572 594 649 q 406 376 515 494 q 60 29 297 258 l 517 31 l 506 0 l 15 0 l 19 31 q 376 385 264 264 q 525 580 488 507 q 563 731 563 653 q 514 858 563 811 q 381 906 465 906 q 255 878 311 906 q 146 796 199 850 l 122 815 q 245 906 183 876 q 381 935 307 935 z "},"3":{"ha":658,"x_min":3,"x_max":586,"o":"m 382 935 q 532 882 478 935 q 586 739 586 829 q 562 629 586 683 q 486 537 538 575 q 361 490 435 499 q 496 435 444 488 q 547 288 547 383 q 515 149 547 218 q 413 33 482 79 q 239 -14 343 -14 q 103 15 160 -14 q 3 101 47 43 l 26 119 q 118 39 68 63 q 238 15 168 15 q 399 58 338 15 q 488 165 461 101 q 515 290 515 228 q 462 429 515 383 q 311 475 408 475 l 258 475 l 267 503 l 311 503 q 445 538 390 503 q 528 627 500 572 q 556 740 556 682 q 509 863 556 818 q 381 908 463 908 q 263 885 318 908 q 146 813 207 863 l 129 833 q 250 910 189 885 q 382 935 311 935 z "},"4":{"ha":699,"x_min":57,"x_max":633,"o":"m 633 288 l 629 260 l 499 260 l 463 0 l 432 0 l 469 260 l 57 260 l 61 285 l 436 935 l 463 924 l 94 288 l 474 288 l 518 581 l 544 581 l 503 288 l 633 288 z "},"5":{"ha":658,"x_min":22,"x_max":624,"o":"m 615 890 l 226 890 l 174 522 q 351 576 258 576 q 512 513 454 576 q 569 343 569 450 q 537 179 569 261 q 433 42 504 97 q 251 -14 361 -14 q 22 92 107 -14 l 46 110 q 132 39 82 63 q 253 15 182 15 q 416 67 351 15 q 510 194 481 118 q 539 343 539 269 q 488 494 539 440 q 351 549 438 549 q 256 535 297 549 q 165 492 214 522 l 140 492 l 199 918 l 624 918 l 615 890 z "},"6":{"ha":714,"x_min":103,"x_max":646,"o":"m 424 593 q 572 536 515 593 q 628 371 628 479 q 597 199 628 288 q 499 48 565 110 q 331 -14 432 -14 q 158 66 213 -14 q 103 282 103 146 q 151 588 103 436 q 289 837 199 739 q 500 935 379 935 q 580 922 546 935 q 646 882 614 908 l 626 860 q 499 907 571 907 q 338 844 411 907 q 216 674 265 782 q 144 431 167 565 q 270 549 200 506 q 424 593 340 593 m 331 15 q 483 74 424 15 q 569 215 543 132 q 596 369 596 297 q 549 515 596 465 q 422 565 501 565 q 140 382 269 565 q 135 279 135 333 q 182 85 135 154 q 331 15 229 15 z "},"7":{"ha":600,"x_min":78,"x_max":618,"o":"m 618 918 l 615 893 l 108 -8 l 78 3 l 579 890 l 128 890 l 131 918 l 618 918 z "},"8":{"ha":731,"x_min":67,"x_max":656,"o":"m 446 479 q 585 388 542 438 q 628 264 628 339 q 588 119 628 182 q 477 21 549 56 q 314 -14 406 -14 q 133 46 199 -14 q 67 203 67 106 q 126 376 67 297 q 322 503 185 454 q 211 581 246 536 q 176 694 176 626 q 214 820 176 765 q 313 905 251 875 q 444 935 375 935 q 595 884 535 935 q 656 743 656 833 q 608 594 656 656 q 446 479 560 533 m 207 694 q 241 590 207 631 q 357 515 275 549 l 419 490 q 578 603 531 543 q 625 744 625 664 q 574 865 625 822 q 444 907 524 907 q 327 881 382 907 q 240 806 272 854 q 207 694 207 757 m 315 15 q 458 45 394 15 q 559 131 522 75 q 596 265 596 188 q 552 383 596 339 q 407 468 508 426 l 354 489 q 153 364 207 436 q 99 201 99 292 q 157 65 99 114 q 315 15 215 15 z "},"9":{"ha":706,"x_min":114,"x_max":642,"o":"m 421 935 q 642 667 642 935 q 528 242 642 425 q 121 -21 414 60 l 114 4 q 438 183 317 67 q 599 504 560 300 q 474 392 543 431 q 328 354 406 354 q 177 419 235 354 q 119 592 119 483 q 151 750 119 671 q 251 882 183 829 q 421 935 319 935 m 331 383 q 475 425 408 383 q 603 547 542 467 q 610 665 610 603 q 565 845 610 783 q 421 907 519 907 q 266 857 326 907 q 178 735 206 807 q 150 592 150 663 q 199 439 150 494 q 331 383 247 383 z "},"\r":{"ha":411,"x_min":0,"x_max":0,"o":""}," ":{"ha":411,"x_min":0,"x_max":0,"o":""},"A":{"ha":774,"x_min":-12,"x_max":685,"o":"m 651 0 l 594 282 l 157 282 l 21 0 l -12 0 l 450 946 l 488 946 l 685 0 l 651 0 m 171 311 l 589 311 l 465 919 l 171 311 z "},"Á":{"ha":774,"x_min":-12,"x_max":685,"o":"m 651 0 l 594 282 l 157 282 l 21 0 l -12 0 l 450 946 l 488 946 l 685 0 l 651 0 m 171 311 l 589 311 l 465 919 l 171 311 m 603 1196 l 615 1161 l 353 1061 l 344 1082 l 603 1196 z "},"Ă":{"ha":774,"x_min":-12,"x_max":685,"o":"m 651 0 l 594 282 l 157 282 l 21 0 l -12 0 l 450 946 l 488 946 l 685 0 l 651 0 m 171 311 l 589 311 l 465 919 l 171 311 m 483 1071 q 388 1102 425 1071 q 344 1178 350 1133 l 368 1181 q 406 1122 375 1144 q 483 1100 436 1100 q 568 1122 532 1100 q 622 1182 604 1144 l 646 1175 q 585 1101 629 1131 q 483 1071 542 1071 z "},"Ắ":{"ha":774,"x_min":-12,"x_max":685,"o":"m 646 1304 l 482 1151 l 467 1168 l 624 1331 l 646 1304 m 485 1024 q 389 1055 426 1024 q 346 1131 351 1086 l 369 1133 q 407 1075 376 1097 q 485 1053 438 1053 q 569 1075 533 1053 q 624 1135 606 1097 l 647 1128 q 587 1053 631 1083 q 485 1024 543 1024 m 651 0 l 594 282 l 157 282 l 21 0 l -12 0 l 450 946 l 488 946 l 685 0 l 651 0 m 171 311 l 589 311 l 465 919 l 171 311 z "},"Ặ":{"ha":774,"x_min":-12,"x_max":685,"o":"m 651 0 l 594 282 l 157 282 l 21 0 l -12 0 l 450 946 l 488 946 l 685 0 l 651 0 m 171 311 l 589 311 l 465 919 l 171 311 m 483 1071 q 388 1102 425 1071 q 344 1178 350 1133 l 368 1181 q 406 1122 375 1144 q 483 1100 436 1100 q 568 1122 532 1100 q 622 1182 604 1144 l 646 1175 q 585 1101 629 1131 q 483 1071 542 1071 m 317 -137 q 335 -144 328 -137 q 342 -161 342 -150 q 333 -183 342 -174 q 313 -192 325 -192 q 293 -185 300 -192 q 286 -167 286 -178 q 294 -147 286 -156 q 317 -137 303 -137 z "},"Ằ":{"ha":774,"x_min":-12,"x_max":685,"o":"m 513 1165 l 493 1151 l 372 1308 l 400 1331 l 513 1165 m 485 1024 q 389 1055 426 1024 q 346 1131 351 1086 l 369 1133 q 407 1075 376 1097 q 485 1053 438 1053 q 569 1075 533 1053 q 624 1135 606 1097 l 647 1128 q 587 1053 631 1083 q 485 1024 543 1024 m 651 0 l 594 282 l 157 282 l 21 0 l -12 0 l 450 946 l 488 946 l 685 0 l 651 0 m 171 311 l 589 311 l 465 919 l 171 311 z "},"Ẳ":{"ha":774,"x_min":-12,"x_max":685,"o":"m 651 0 l 594 282 l 157 282 l 21 0 l -12 0 l 450 946 l 488 946 l 685 0 l 651 0 m 171 311 l 589 311 l 465 919 l 171 311 m 485 1024 q 389 1055 426 1024 q 346 1131 351 1086 l 369 1133 q 407 1075 376 1097 q 485 1053 438 1053 q 569 1075 533 1053 q 624 1135 606 1097 l 647 1128 q 587 1053 631 1083 q 485 1024 543 1024 m 478 1196 q 554 1217 525 1199 q 583 1275 583 1236 q 521 1332 583 1332 q 479 1327 496 1332 q 438 1311 463 1322 l 426 1335 q 521 1360 472 1360 q 590 1338 565 1360 q 615 1275 615 1315 q 586 1208 615 1233 q 506 1175 557 1182 l 499 1117 l 468 1117 l 478 1196 z "},"Ẵ":{"ha":774,"x_min":-12,"x_max":692,"o":"m 426 1249 q 383 1238 400 1249 q 336 1199 365 1228 l 318 1213 q 372 1260 346 1244 q 426 1276 399 1276 q 462 1269 446 1276 q 506 1247 478 1263 q 546 1224 528 1232 q 583 1217 564 1217 q 626 1230 606 1217 q 672 1274 647 1243 l 692 1261 q 638 1206 664 1222 q 583 1189 613 1189 q 543 1197 561 1189 q 496 1221 525 1204 q 458 1242 474 1235 q 426 1249 443 1249 m 483 1053 q 568 1075 532 1053 q 622 1135 604 1097 l 646 1128 q 585 1053 629 1083 q 483 1024 542 1024 q 388 1055 425 1024 q 344 1131 350 1086 l 368 1133 q 406 1075 375 1097 q 483 1053 436 1053 m 450 946 l 488 946 l 685 0 l 651 0 l 594 282 l 157 282 l 21 0 l -12 0 l 450 946 m 171 311 l 589 311 l 465 919 l 171 311 z "},"Ǎ":{"ha":774,"x_min":-12,"x_max":685,"o":"m 651 0 l 594 282 l 157 282 l 21 0 l -12 0 l 450 946 l 488 946 l 685 0 l 651 0 m 171 311 l 589 311 l 465 919 l 171 311 m 663 1199 l 676 1181 l 493 1056 l 476 1056 l 328 1181 l 344 1197 l 489 1089 l 663 1199 z "},"Â":{"ha":774,"x_min":-12,"x_max":685,"o":"m 651 0 l 594 282 l 157 282 l 21 0 l -12 0 l 450 946 l 488 946 l 685 0 l 651 0 m 171 311 l 589 311 l 465 919 l 171 311 m 321 1064 l 307 1083 l 490 1207 l 507 1207 l 656 1082 l 639 1064 l 497 1174 l 321 1064 z "},"Ấ":{"ha":774,"x_min":-12,"x_max":772,"o":"m 772 1297 l 608 1144 l 593 1161 l 750 1324 l 772 1297 m 496 1133 l 319 1024 l 306 1043 l 489 1167 l 506 1167 l 654 1042 l 638 1024 l 496 1133 m 450 946 l 488 946 l 685 0 l 651 0 l 594 282 l 157 282 l 21 0 l -12 0 l 450 946 m 171 311 l 589 311 l 465 919 l 171 311 z "},"Ậ":{"ha":774,"x_min":-12,"x_max":685,"o":"m 651 0 l 594 282 l 157 282 l 21 0 l -12 0 l 450 946 l 488 946 l 685 0 l 651 0 m 171 311 l 589 311 l 465 919 l 171 311 m 321 1064 l 307 1083 l 490 1207 l 507 1207 l 656 1082 l 639 1064 l 497 1174 l 321 1064 m 317 -137 q 335 -144 328 -137 q 342 -161 342 -150 q 333 -183 342 -174 q 313 -192 325 -192 q 293 -185 300 -192 q 286 -167 286 -178 q 294 -147 286 -156 q 317 -137 303 -137 z "},"Ầ":{"ha":774,"x_min":-12,"x_max":685,"o":"m 385 1158 l 365 1144 l 244 1301 l 272 1324 l 385 1158 m 315 1024 l 301 1043 l 485 1167 l 501 1167 l 650 1042 l 633 1024 l 492 1133 l 315 1024 m 651 0 l 594 282 l 157 282 l 21 0 l -12 0 l 450 946 l 488 946 l 685 0 l 651 0 m 171 311 l 589 311 l 465 919 l 171 311 z "},"Ẩ":{"ha":774,"x_min":-12,"x_max":764,"o":"m 651 0 l 594 282 l 157 282 l 21 0 l -12 0 l 450 946 l 488 946 l 685 0 l 651 0 m 171 311 l 589 311 l 465 919 l 171 311 m 318 1024 l 304 1043 l 488 1167 l 504 1167 l 653 1042 l 636 1024 l 494 1133 l 318 1024 m 626 1196 q 703 1217 674 1199 q 732 1275 732 1236 q 669 1332 732 1332 q 628 1327 644 1332 q 586 1311 611 1322 l 575 1335 q 669 1360 621 1360 q 739 1338 714 1360 q 764 1275 764 1315 q 735 1208 764 1233 q 654 1175 706 1182 l 647 1117 l 617 1117 l 626 1196 z "},"Ẫ":{"ha":774,"x_min":-12,"x_max":693,"o":"m 428 1281 q 384 1270 401 1281 q 338 1231 367 1260 l 319 1244 q 374 1292 347 1276 q 428 1308 400 1308 q 463 1301 447 1308 q 507 1279 479 1294 q 547 1256 529 1264 q 585 1249 565 1249 q 628 1262 607 1249 q 674 1306 649 1275 l 693 1293 q 640 1238 665 1254 q 585 1221 614 1221 q 544 1228 563 1221 q 497 1253 526 1236 q 460 1274 475 1267 q 428 1281 444 1281 m 492 1133 l 315 1024 l 301 1043 l 485 1167 l 501 1167 l 650 1042 l 633 1024 l 492 1133 m 450 946 l 488 946 l 685 0 l 651 0 l 594 282 l 157 282 l 21 0 l -12 0 l 450 946 m 171 311 l 589 311 l 465 919 l 171 311 z "},"Ȁ":{"ha":774,"x_min":-12,"x_max":685,"o":"m 651 0 l 594 282 l 157 282 l 21 0 l -12 0 l 450 946 l 488 946 l 685 0 l 651 0 m 171 311 l 589 311 l 465 919 l 171 311 m 357 1274 l 431 1093 l 406 1081 l 324 1258 l 357 1274 m 510 1272 l 575 1097 l 550 1086 l 475 1256 l 510 1272 z "},"Ä":{"ha":774,"x_min":-12,"x_max":685,"o":"m 651 0 l 594 282 l 157 282 l 21 0 l -12 0 l 450 946 l 488 946 l 685 0 l 651 0 m 171 311 l 589 311 l 465 919 l 171 311 m 379 1110 q 361 1116 368 1110 q 354 1133 354 1122 q 363 1155 354 1146 q 383 1164 371 1164 q 403 1157 396 1164 q 410 1139 410 1150 q 401 1119 410 1128 q 379 1110 392 1110 m 608 1110 q 590 1116 597 1110 q 583 1133 583 1122 q 592 1155 583 1146 q 614 1164 600 1164 q 632 1157 625 1164 q 639 1139 639 1150 q 631 1118 639 1126 q 608 1110 622 1110 z "},"Ǟ":{"ha":774,"x_min":-12,"x_max":685,"o":"m 651 0 l 594 282 l 157 282 l 21 0 l -12 0 l 450 946 l 488 946 l 685 0 l 651 0 m 171 311 l 589 311 l 465 919 l 171 311 m 365 1031 q 347 1037 354 1031 q 340 1054 340 1043 q 349 1076 340 1067 q 369 1085 357 1085 q 389 1078 382 1085 q 396 1060 396 1071 q 387 1040 396 1049 q 365 1031 378 1031 m 594 1031 q 576 1037 583 1031 q 569 1054 569 1043 q 578 1076 569 1067 q 600 1085 586 1085 q 618 1078 611 1085 q 625 1060 625 1071 q 617 1039 625 1047 q 594 1031 608 1031 m 639 1181 l 351 1181 l 356 1210 l 643 1210 l 639 1181 z "},"Ȧ":{"ha":774,"x_min":-12,"x_max":685,"o":"m 651 0 l 594 282 l 157 282 l 21 0 l -12 0 l 450 946 l 488 946 l 685 0 l 651 0 m 171 311 l 589 311 l 465 919 l 171 311 m 497 1126 q 479 1133 486 1126 q 472 1150 472 1139 q 481 1172 472 1163 q 501 1181 489 1181 q 521 1174 514 1181 q 528 1156 528 1167 q 519 1135 528 1144 q 497 1126 511 1126 z "},"Ạ":{"ha":774,"x_min":-12,"x_max":685,"o":"m 651 0 l 594 282 l 157 282 l 21 0 l -12 0 l 450 946 l 488 946 l 685 0 l 651 0 m 171 311 l 589 311 l 465 919 l 171 311 m 317 -137 q 335 -144 328 -137 q 342 -161 342 -150 q 333 -183 342 -174 q 313 -192 325 -192 q 293 -185 300 -192 q 286 -167 286 -178 q 294 -147 286 -156 q 317 -137 303 -137 z "},"Ǡ":{"ha":774,"x_min":-12,"x_max":685,"o":"m 651 0 l 594 282 l 157 282 l 21 0 l -12 0 l 450 946 l 488 946 l 685 0 l 651 0 m 171 311 l 589 311 l 465 919 l 171 311 m 479 1038 q 461 1044 468 1038 q 454 1061 454 1050 q 463 1083 454 1074 q 483 1092 471 1092 q 503 1085 496 1092 q 510 1067 510 1078 q 501 1047 510 1056 q 479 1038 493 1038 m 642 1179 l 354 1179 l 358 1208 l 646 1208 l 642 1179 z "},"À":{"ha":774,"x_min":-12,"x_max":685,"o":"m 651 0 l 594 282 l 157 282 l 21 0 l -12 0 l 450 946 l 488 946 l 685 0 l 651 0 m 171 311 l 589 311 l 465 919 l 171 311 m 392 1194 l 618 1082 l 607 1061 l 375 1161 l 392 1194 z "},"Ả":{"ha":774,"x_min":-12,"x_max":685,"o":"m 651 0 l 594 282 l 157 282 l 21 0 l -12 0 l 450 946 l 488 946 l 685 0 l 651 0 m 171 311 l 589 311 l 465 919 l 171 311 m 483 1165 q 560 1187 531 1168 q 589 1244 589 1206 q 526 1301 589 1301 q 485 1297 501 1301 q 443 1281 468 1292 l 432 1304 q 526 1329 478 1329 q 596 1307 571 1329 q 621 1244 621 1285 q 592 1177 621 1203 q 511 1144 563 1151 l 504 1086 l 474 1086 l 483 1165 z "},"Ȃ":{"ha":774,"x_min":-12,"x_max":685,"o":"m 651 0 l 594 282 l 157 282 l 21 0 l -12 0 l 450 946 l 488 946 l 685 0 l 651 0 m 171 311 l 589 311 l 465 919 l 171 311 m 338 1114 q 399 1199 354 1167 q 503 1232 443 1232 q 599 1199 563 1232 q 638 1111 635 1165 l 614 1108 q 578 1178 607 1154 q 501 1203 550 1203 q 415 1178 451 1203 q 358 1107 378 1153 l 338 1114 z "},"Ɑ":{"ha":918,"x_min":114,"x_max":824,"o":"m 713 154 q 707 94 707 107 q 718 41 707 61 q 757 10 729 21 l 747 -14 q 678 96 678 11 q 681 133 678 106 q 408 -14 572 -14 q 194 82 275 -14 q 114 357 114 178 q 166 642 114 503 q 317 871 218 782 q 547 960 415 960 q 776 828 699 960 l 796 946 l 824 946 l 713 154 m 769 790 q 674 896 728 861 q 547 931 621 931 q 333 844 424 931 q 194 625 242 758 q 147 356 147 492 q 218 103 147 190 q 408 17 289 17 q 561 56 493 17 q 686 182 629 96 l 769 790 z "},"Ā":{"ha":774,"x_min":-12,"x_max":685,"o":"m 651 0 l 594 282 l 157 282 l 21 0 l -12 0 l 450 946 l 488 946 l 685 0 l 651 0 m 171 311 l 589 311 l 465 919 l 171 311 m 639 1126 l 351 1126 l 356 1156 l 643 1156 l 639 1126 z "},"Ą":{"ha":774,"x_min":-12,"x_max":685,"o":"m 486 -175 q 574 -251 486 -251 q 650 -242 607 -251 l 643 -272 q 569 -282 604 -282 q 483 -256 513 -282 q 453 -187 453 -231 q 502 -76 453 -121 q 650 8 551 -32 l 594 282 l 157 282 l 21 0 l -12 0 l 450 946 l 488 946 l 685 0 q 535 -80 585 -40 q 486 -175 486 -119 m 171 311 l 589 311 l 465 919 l 171 311 z "},"Å":{"ha":774,"x_min":-12,"x_max":685,"o":"m 651 0 l 594 282 l 157 282 l 21 0 l -12 0 l 450 946 l 488 946 l 685 0 l 651 0 m 171 311 l 589 311 l 465 919 l 171 311 m 518 1288 q 589 1263 563 1288 q 615 1196 615 1238 q 580 1105 615 1140 q 492 1069 544 1069 q 419 1096 446 1069 q 393 1164 393 1122 q 428 1253 393 1218 q 518 1288 464 1288 m 517 1263 q 448 1234 474 1263 q 422 1163 422 1206 q 440 1113 422 1131 q 492 1094 458 1094 q 561 1124 536 1094 q 586 1193 586 1153 q 568 1244 586 1226 q 517 1263 550 1263 z "},"Ǻ":{"ha":774,"x_min":-12,"x_max":685,"o":"m 651 0 l 594 282 l 157 282 l 21 0 l -12 0 l 450 946 l 488 946 l 685 0 l 651 0 m 171 311 l 589 311 l 465 919 l 171 311 m 500 1232 q 571 1207 544 1232 q 597 1140 597 1182 q 562 1049 597 1085 q 474 1014 526 1014 q 401 1040 428 1014 q 375 1108 375 1067 q 410 1197 375 1163 q 500 1232 446 1232 m 499 1207 q 430 1178 456 1207 q 404 1107 404 1150 q 422 1057 404 1075 q 474 1039 440 1039 q 543 1068 518 1039 q 568 1138 568 1097 q 550 1189 568 1171 q 499 1207 532 1207 m 632 1383 l 644 1349 l 382 1249 l 374 1269 l 632 1383 z "},"Ⱥ":{"ha":774,"x_min":-12,"x_max":685,"o":"m 651 0 l 594 282 l 344 282 l 194 -92 l 171 -86 l 318 282 l 157 282 l 21 0 l -12 0 l 450 946 l 488 946 l 521 785 l 617 1024 l 640 1017 l 531 742 l 685 0 l 651 0 m 171 311 l 331 311 l 501 738 l 465 919 l 171 311 m 357 311 l 589 311 l 511 694 l 357 311 z "},"Ã":{"ha":774,"x_min":-12,"x_max":686,"o":"m 651 0 l 594 282 l 157 282 l 21 0 l -12 0 l 450 946 l 488 946 l 685 0 l 651 0 m 171 311 l 589 311 l 465 919 l 171 311 m 578 1117 q 538 1124 556 1117 q 490 1149 519 1132 q 453 1169 468 1163 q 421 1176 438 1176 q 377 1166 394 1176 q 331 1126 360 1156 l 313 1140 q 367 1188 340 1172 q 421 1204 393 1204 q 457 1197 440 1204 q 499 1175 474 1190 q 541 1152 524 1160 q 578 1144 558 1144 q 621 1158 600 1144 q 667 1201 642 1171 l 686 1189 q 633 1133 658 1150 q 578 1117 607 1117 z "},"Æ":{"ha":1049,"x_min":-33,"x_max":997,"o":"m 989 917 l 513 917 l 563 514 l 925 514 l 922 485 l 565 485 l 622 29 l 943 29 l 938 0 l 594 0 l 561 272 l 143 272 l 0 0 l -33 0 l 464 946 l 997 946 l 989 917 m 558 301 l 483 921 l 158 301 l 558 301 z "},"Ǽ":{"ha":1049,"x_min":-33,"x_max":997,"o":"m 989 917 l 513 917 l 563 514 l 925 514 l 922 485 l 565 485 l 622 29 l 943 29 l 938 0 l 594 0 l 561 272 l 143 272 l 0 0 l -33 0 l 464 946 l 997 946 l 989 917 m 558 301 l 483 921 l 158 301 l 558 301 m 835 1196 l 847 1161 l 585 1061 l 576 1082 l 835 1196 z "},"Ǣ":{"ha":1049,"x_min":-33,"x_max":997,"o":"m 989 917 l 513 917 l 563 514 l 925 514 l 922 485 l 565 485 l 622 29 l 943 29 l 938 0 l 594 0 l 561 272 l 143 272 l 0 0 l -33 0 l 464 946 l 997 946 l 989 917 m 558 301 l 483 921 l 158 301 l 558 301 m 871 1126 l 583 1126 l 588 1156 l 875 1156 l 871 1126 z "},"B":{"ha":815,"x_min":119,"x_max":732,"o":"m 515 501 q 663 442 607 493 q 718 299 718 392 q 685 155 718 222 q 572 44 651 88 q 365 0 493 0 l 119 0 l 253 946 l 457 946 q 660 895 589 946 q 732 744 732 844 q 672 580 732 646 q 515 501 613 514 m 224 514 l 454 514 q 585 544 529 514 q 671 627 640 575 q 701 743 701 679 q 639 874 701 831 q 460 917 576 917 l 281 917 l 224 514 m 369 29 q 613 108 539 29 q 686 300 686 186 q 625 438 686 390 q 460 486 564 486 l 219 486 l 156 29 l 369 29 z "},"Ḃ":{"ha":815,"x_min":119,"x_max":732,"o":"m 515 501 q 663 442 607 493 q 718 299 718 392 q 685 155 718 222 q 572 44 651 88 q 365 0 493 0 l 119 0 l 253 946 l 457 946 q 660 895 589 946 q 732 744 732 844 q 672 580 732 646 q 515 501 613 514 m 224 514 l 454 514 q 585 544 529 514 q 671 627 640 575 q 701 743 701 679 q 639 874 701 831 q 460 917 576 917 l 281 917 l 224 514 m 369 29 q 613 108 539 29 q 686 300 686 186 q 625 438 686 390 q 460 486 564 486 l 219 486 l 156 29 l 369 29 m 497 1126 q 479 1133 486 1126 q 472 1150 472 1139 q 481 1172 472 1163 q 501 1181 489 1181 q 521 1174 514 1181 q 528 1156 528 1167 q 519 1135 528 1144 q 497 1126 511 1126 z "},"Ḅ":{"ha":815,"x_min":119,"x_max":732,"o":"m 515 501 q 663 442 607 493 q 718 299 718 392 q 685 155 718 222 q 572 44 651 88 q 365 0 493 0 l 119 0 l 253 946 l 457 946 q 660 895 589 946 q 732 744 732 844 q 672 580 732 646 q 515 501 613 514 m 224 514 l 454 514 q 585 544 529 514 q 671 627 640 575 q 701 743 701 679 q 639 874 701 831 q 460 917 576 917 l 281 917 l 224 514 m 369 29 q 613 108 539 29 q 686 300 686 186 q 625 438 686 390 q 460 486 564 486 l 219 486 l 156 29 l 369 29 m 351 -137 q 369 -144 363 -137 q 376 -161 376 -150 q 368 -183 376 -174 q 347 -192 360 -192 q 328 -185 335 -192 q 321 -167 321 -178 q 329 -147 321 -156 q 351 -137 338 -137 z "},"Ꞵ":{"ha":815,"x_min":82,"x_max":732,"o":"m 522 501 q 665 448 610 496 q 719 307 719 400 q 677 144 719 214 q 558 38 635 75 q 382 0 482 0 q 263 10 317 0 q 157 42 210 19 l 114 -267 l 82 -267 l 253 946 l 457 946 q 660 894 589 946 q 732 739 732 842 q 674 579 732 642 q 522 501 617 517 m 382 29 q 603 104 519 29 q 688 307 688 179 q 627 441 688 396 q 464 486 567 486 l 340 486 l 349 514 l 460 514 q 636 577 571 514 q 701 739 701 640 q 639 873 701 829 q 460 917 576 917 l 281 917 l 161 69 q 382 29 260 29 z "},"Ɓ":{"ha":875,"x_min":94,"x_max":792,"o":"m 575 501 q 722 442 667 493 q 778 299 778 392 q 744 155 778 222 q 632 44 711 88 q 425 0 553 0 l 179 0 l 308 918 l 264 918 q 160 883 194 918 q 125 790 125 847 q 131 746 125 764 q 147 704 136 728 l 121 692 q 101 739 107 718 q 94 790 94 760 q 140 903 94 860 q 268 946 185 946 l 517 946 q 720 895 649 946 q 792 744 792 844 q 732 580 792 646 q 575 501 672 514 m 283 514 l 514 514 q 644 544 589 514 q 731 627 700 575 q 761 743 761 679 q 699 874 761 831 q 519 917 636 917 l 340 917 l 283 514 m 429 29 q 672 108 599 29 q 746 300 746 186 q 685 438 746 390 q 519 486 624 486 l 279 486 l 215 29 l 429 29 z "},"Ƀ":{"ha":821,"x_min":36,"x_max":738,"o":"m 521 501 q 668 442 613 493 q 724 299 724 392 q 690 155 724 222 q 578 44 657 88 q 371 0 499 0 l 125 0 l 161 254 l 36 254 l 40 283 l 165 283 l 258 946 l 463 946 q 666 895 594 946 q 738 744 738 844 q 678 580 738 646 q 521 501 618 514 m 229 514 l 460 514 q 590 544 535 514 q 676 627 646 575 q 707 743 707 679 q 644 874 707 831 q 465 917 582 917 l 286 917 l 229 514 m 375 29 q 618 108 544 29 q 692 300 692 186 q 631 438 692 390 q 465 486 569 486 l 225 486 l 197 283 l 465 283 l 461 254 l 193 254 l 161 29 l 375 29 z "},"Ƃ":{"ha":781,"x_min":119,"x_max":692,"o":"m 411 563 q 618 505 546 563 q 690 336 690 447 q 656 176 690 253 q 543 50 622 100 q 338 0 464 0 l 119 0 l 253 946 l 692 946 l 682 917 l 281 917 l 231 563 l 411 563 m 346 29 q 529 76 460 29 q 628 192 599 122 q 658 335 658 261 q 595 484 658 435 q 413 533 532 533 l 226 533 l 156 29 l 346 29 z "},"C":{"ha":747,"x_min":115,"x_max":772,"o":"m 560 960 q 681 940 632 960 q 772 879 731 919 l 753 857 q 667 913 710 896 q 561 931 625 931 q 324 841 417 931 q 189 620 231 751 q 147 358 147 489 q 222 105 147 193 q 425 17 297 17 q 551 38 499 17 q 654 99 603 60 l 672 74 q 424 -14 560 -14 q 199 83 283 -14 q 115 357 115 179 q 160 634 115 496 q 306 866 206 772 q 560 960 406 960 z "},"Ć":{"ha":747,"x_min":115,"x_max":772,"o":"m 560 960 q 681 940 632 960 q 772 879 731 919 l 753 857 q 667 913 710 896 q 561 931 625 931 q 324 841 417 931 q 189 620 231 751 q 147 358 147 489 q 222 105 147 193 q 425 17 297 17 q 551 38 499 17 q 654 99 603 60 l 672 74 q 424 -14 560 -14 q 199 83 283 -14 q 115 357 115 179 q 160 634 115 496 q 306 866 206 772 q 560 960 406 960 m 690 1196 l 703 1161 l 440 1061 l 432 1082 l 690 1196 z "},"Č":{"ha":747,"x_min":115,"x_max":772,"o":"m 560 960 q 681 940 632 960 q 772 879 731 919 l 753 857 q 667 913 710 896 q 561 931 625 931 q 324 841 417 931 q 189 620 231 751 q 147 358 147 489 q 222 105 147 193 q 425 17 297 17 q 551 38 499 17 q 654 99 603 60 l 672 74 q 424 -14 560 -14 q 199 83 283 -14 q 115 357 115 179 q 160 634 115 496 q 306 866 206 772 q 560 960 406 960 m 750 1199 l 764 1181 l 581 1056 l 564 1056 l 415 1181 l 432 1197 l 576 1089 l 750 1199 z "},"Ç":{"ha":747,"x_min":115,"x_max":772,"o":"m 561 931 q 324 841 417 931 q 189 620 231 751 q 147 358 147 489 q 222 105 147 193 q 425 17 297 17 q 551 38 499 17 q 654 99 603 60 l 672 74 q 431 -14 561 -12 l 414 -103 q 502 -128 474 -107 q 531 -192 531 -150 q 494 -267 531 -239 q 401 -294 458 -294 q 308 -269 346 -294 l 322 -247 q 401 -267 354 -267 q 472 -247 446 -267 q 499 -192 499 -228 q 472 -142 499 -157 q 383 -126 446 -128 l 406 -14 q 194 90 272 -7 q 115 357 115 186 q 160 634 115 496 q 306 866 206 772 q 560 960 406 960 q 681 940 632 960 q 772 879 731 919 l 753 857 q 667 913 710 896 q 561 931 625 931 z "},"Ĉ":{"ha":747,"x_min":115,"x_max":772,"o":"m 560 960 q 681 940 632 960 q 772 879 731 919 l 753 857 q 667 913 710 896 q 561 931 625 931 q 324 841 417 931 q 189 620 231 751 q 147 358 147 489 q 222 105 147 193 q 425 17 297 17 q 551 38 499 17 q 654 99 603 60 l 672 74 q 424 -14 560 -14 q 199 83 283 -14 q 115 357 115 179 q 160 634 115 496 q 306 866 206 772 q 560 960 406 960 m 408 1064 l 394 1083 l 578 1207 l 594 1207 l 743 1082 l 726 1064 l 585 1174 l 408 1064 z "},"Ċ":{"ha":747,"x_min":115,"x_max":772,"o":"m 560 960 q 681 940 632 960 q 772 879 731 919 l 753 857 q 667 913 710 896 q 561 931 625 931 q 324 841 417 931 q 189 620 231 751 q 147 358 147 489 q 222 105 147 193 q 425 17 297 17 q 551 38 499 17 q 654 99 603 60 l 672 74 q 424 -14 560 -14 q 199 83 283 -14 q 115 357 115 179 q 160 634 115 496 q 306 866 206 772 q 560 960 406 960 m 585 1126 q 567 1133 574 1126 q 560 1150 560 1139 q 568 1172 560 1163 q 589 1181 576 1181 q 608 1174 601 1181 q 615 1156 615 1167 q 607 1135 615 1144 q 585 1126 599 1126 z "},"Ꭓ":{"ha":664,"x_min":-47,"x_max":679,"o":"m 679 946 l 358 447 l 572 -137 l 538 -137 l 339 428 l -11 -137 l -47 -137 l 321 446 l 139 946 l 172 946 l 342 465 l 643 946 l 679 946 z "},"Ƈ":{"ha":747,"x_min":115,"x_max":1031,"o":"m 911 1131 q 1031 1088 979 1131 l 1013 1068 q 913 1103 971 1103 q 830 1072 864 1103 q 788 975 796 1040 l 772 879 l 756 860 q 667 913 711 896 q 560 931 622 931 q 324 841 417 931 q 189 620 231 751 q 147 358 147 489 q 222 105 147 193 q 425 17 297 17 q 551 38 499 17 q 654 99 603 60 l 672 74 q 424 -14 560 -14 q 199 83 282 -14 q 115 357 115 179 q 160 634 115 496 q 306 866 206 772 q 560 960 406 960 q 746 900 669 960 l 757 978 q 808 1092 767 1053 q 911 1131 850 1131 z "},"Ȼ":{"ha":747,"x_min":115,"x_max":772,"o":"m 753 857 q 635 924 694 910 l 285 53 q 425 17 346 17 q 551 38 499 17 q 654 99 603 60 l 672 74 q 424 -14 560 -14 q 272 22 338 -14 l 226 -92 l 203 -86 l 251 36 q 151 161 186 79 q 115 357 115 243 q 160 634 115 496 q 306 866 206 772 q 560 960 406 960 q 621 956 593 960 l 649 1024 l 672 1017 l 646 950 q 772 879 715 933 l 753 857 m 610 928 q 561 931 579 931 q 324 841 417 931 q 189 620 231 751 q 147 358 147 489 q 177 181 147 254 q 264 65 207 107 l 610 928 z "},"D":{"ha":860,"x_min":119,"x_max":778,"o":"m 421 946 q 679 871 581 946 q 778 599 778 796 q 730 308 778 443 q 574 86 682 172 q 296 0 465 0 l 119 0 l 253 946 l 421 946 m 281 917 l 156 29 l 300 29 q 558 112 458 29 q 702 324 658 194 q 746 600 746 453 q 655 851 746 785 q 415 917 564 917 l 281 917 z "},"Ǳ":{"ha":1532,"x_min":119,"x_max":1544,"o":"m 421 946 q 679 871 581 946 q 778 599 778 796 q 730 308 778 443 q 574 86 682 172 q 296 0 465 0 l 119 0 l 253 946 l 421 946 m 281 917 l 156 29 l 300 29 q 558 112 458 29 q 702 324 658 194 q 746 600 746 453 q 655 851 746 785 q 415 917 564 917 l 281 917 m 832 0 l 836 29 l 1501 917 l 1013 917 l 1017 946 l 1544 946 l 1542 919 l 875 31 l 1397 31 l 1389 0 l 832 0 z "},"Ǆ":{"ha":1532,"x_min":119,"x_max":1544,"o":"m 421 946 q 679 871 581 946 q 778 599 778 796 q 730 308 778 443 q 574 86 682 172 q 296 0 465 0 l 119 0 l 253 946 l 421 946 m 281 917 l 156 29 l 300 29 q 558 112 458 29 q 702 324 658 194 q 746 600 746 453 q 655 851 746 785 q 415 917 564 917 l 281 917 m 832 0 l 836 29 l 1501 917 l 1013 917 l 1017 946 l 1544 946 l 1542 919 l 875 31 l 1397 31 l 1389 0 l 832 0 m 1456 1199 l 1469 1181 l 1286 1056 l 1269 1056 l 1121 1181 l 1138 1197 l 1282 1089 l 1456 1199 z "},"Ɖ":{"ha":863,"x_min":67,"x_max":779,"o":"m 422 946 q 681 871 582 946 q 779 599 779 796 q 731 308 779 443 q 575 86 683 172 q 297 0 467 0 l 121 0 l 188 476 l 67 476 l 71 504 l 192 504 l 254 946 l 422 946 m 301 29 q 560 112 460 29 q 703 324 660 194 q 747 600 747 453 q 656 851 747 785 q 417 917 565 917 l 282 917 l 224 504 l 496 504 l 492 476 l 219 476 l 157 29 l 301 29 z "},"Ð":{"ha":863,"x_min":67,"x_max":779,"o":"m 422 946 q 681 871 582 946 q 779 599 779 796 q 731 308 779 443 q 575 86 683 172 q 297 0 467 0 l 121 0 l 188 476 l 67 476 l 71 504 l 192 504 l 254 946 l 422 946 m 301 29 q 560 112 460 29 q 703 324 660 194 q 747 600 747 453 q 656 851 747 785 q 417 917 565 917 l 282 917 l 224 504 l 496 504 l 492 476 l 219 476 l 157 29 l 301 29 z "},"Ď":{"ha":860,"x_min":119,"x_max":778,"o":"m 421 946 q 679 871 581 946 q 778 599 778 796 q 730 308 778 443 q 574 86 682 172 q 296 0 465 0 l 119 0 l 253 946 l 421 946 m 281 917 l 156 29 l 300 29 q 558 112 458 29 q 702 324 658 194 q 746 600 746 453 q 655 851 746 785 q 415 917 564 917 l 281 917 m 685 1199 l 699 1181 l 515 1056 l 499 1056 l 350 1181 l 367 1197 l 511 1089 l 685 1199 z "},"Ḓ":{"ha":860,"x_min":119,"x_max":778,"o":"m 421 946 q 679 871 581 946 q 778 599 778 796 q 730 308 778 443 q 574 86 682 172 q 296 0 465 0 l 119 0 l 253 946 l 421 946 m 281 917 l 156 29 l 300 29 q 558 112 458 29 q 702 324 658 194 q 746 600 746 453 q 655 851 746 785 q 415 917 564 917 l 281 917 m 158 -256 l 142 -236 l 328 -104 l 344 -104 l 492 -236 l 476 -256 l 332 -137 l 158 -256 z "},"Đ":{"ha":863,"x_min":67,"x_max":779,"o":"m 422 946 q 681 871 582 946 q 779 599 779 796 q 731 308 779 443 q 575 86 683 172 q 297 0 467 0 l 121 0 l 188 476 l 67 476 l 71 504 l 192 504 l 254 946 l 422 946 m 301 29 q 560 112 460 29 q 703 324 660 194 q 747 600 747 453 q 656 851 747 785 q 417 917 565 917 l 282 917 l 224 504 l 496 504 l 492 476 l 219 476 l 157 29 l 301 29 z "},"Ḋ":{"ha":860,"x_min":119,"x_max":778,"o":"m 421 946 q 679 871 581 946 q 778 599 778 796 q 730 308 778 443 q 574 86 682 172 q 296 0 465 0 l 119 0 l 253 946 l 421 946 m 281 917 l 156 29 l 300 29 q 558 112 458 29 q 702 324 658 194 q 746 600 746 453 q 655 851 746 785 q 415 917 564 917 l 281 917 m 519 1126 q 501 1133 508 1126 q 494 1150 494 1139 q 503 1172 494 1163 q 524 1181 511 1181 q 543 1174 536 1181 q 550 1156 550 1167 q 542 1135 550 1144 q 519 1126 533 1126 z "},"Ḍ":{"ha":860,"x_min":119,"x_max":778,"o":"m 421 946 q 679 871 581 946 q 778 599 778 796 q 730 308 778 443 q 574 86 682 172 q 296 0 465 0 l 119 0 l 253 946 l 421 946 m 281 917 l 156 29 l 300 29 q 558 112 458 29 q 702 324 658 194 q 746 600 746 453 q 655 851 746 785 q 415 917 564 917 l 281 917 m 331 -137 q 349 -144 342 -137 q 356 -161 356 -150 q 347 -183 356 -174 q 326 -192 339 -192 q 307 -185 314 -192 q 300 -167 300 -178 q 308 -147 300 -156 q 331 -137 317 -137 z "},"Ɗ":{"ha":921,"x_min":94,"x_max":838,"o":"m 481 946 q 739 871 640 946 q 838 599 838 796 q 790 308 838 443 q 633 86 742 172 q 356 0 525 0 l 179 0 l 308 918 l 264 918 q 160 883 194 918 q 125 790 125 847 q 131 746 125 764 q 147 704 136 728 l 121 692 q 101 739 107 718 q 94 790 94 760 q 140 903 94 860 q 268 946 185 946 l 481 946 m 360 29 q 618 112 518 29 q 762 324 718 194 q 806 600 806 453 q 715 851 806 785 q 475 917 624 917 l 340 917 l 215 29 l 360 29 z "},"Ḏ":{"ha":860,"x_min":119,"x_max":778,"o":"m 421 946 q 679 871 581 946 q 778 599 778 796 q 730 308 778 443 q 574 86 682 172 q 296 0 465 0 l 119 0 l 253 946 l 421 946 m 281 917 l 156 29 l 300 29 q 558 112 458 29 q 702 324 658 194 q 746 600 746 453 q 655 851 746 785 q 415 917 564 917 l 281 917 m 188 -164 l 475 -164 l 471 -193 l 183 -193 l 188 -164 z "},"Ƌ":{"ha":782,"x_min":71,"x_max":693,"o":"m 560 0 l 338 0 q 142 63 214 0 q 71 251 71 125 q 115 417 71 347 q 242 525 160 488 q 432 563 324 563 l 608 563 l 657 917 l 254 917 l 258 946 l 693 946 l 560 0 m 604 533 l 429 533 q 190 457 278 533 q 101 251 101 381 q 165 83 101 136 q 343 29 228 29 l 533 29 l 604 533 z "},"ǲ":{"ha":1415,"x_min":119,"x_max":1415,"o":"m 421 946 q 679 871 581 946 q 778 599 778 796 q 730 308 778 443 q 574 86 682 172 q 296 0 465 0 l 119 0 l 253 946 l 421 946 m 281 917 l 156 29 l 300 29 q 558 112 458 29 q 702 324 658 194 q 746 600 746 453 q 655 851 746 785 q 415 917 564 917 l 281 917 m 1415 721 l 1411 696 l 883 29 l 1307 29 l 1300 0 l 839 0 l 843 25 l 1372 693 l 974 693 l 978 721 l 1415 721 z "},"ǅ":{"ha":1415,"x_min":119,"x_max":1415,"o":"m 421 946 q 679 871 581 946 q 778 599 778 796 q 730 308 778 443 q 574 86 682 172 q 296 0 465 0 l 119 0 l 253 946 l 421 946 m 281 917 l 156 29 l 300 29 q 558 112 458 29 q 702 324 658 194 q 746 600 746 453 q 655 851 746 785 q 415 917 564 917 l 281 917 m 1415 721 l 1411 696 l 883 29 l 1307 29 l 1300 0 l 839 0 l 843 25 l 1372 693 l 974 693 l 978 721 l 1415 721 m 1399 1040 l 1414 1022 l 1228 890 l 1211 890 l 1064 1022 l 1081 1040 l 1224 924 l 1399 1040 z "},"E":{"ha":686,"x_min":119,"x_max":699,"o":"m 699 946 l 690 917 l 281 917 l 224 514 l 578 514 l 574 485 l 219 485 l 156 29 l 581 29 l 575 0 l 119 0 l 253 946 l 699 946 z "},"É":{"ha":686,"x_min":119,"x_max":699,"o":"m 699 946 l 690 917 l 281 917 l 224 514 l 578 514 l 574 485 l 219 485 l 156 29 l 581 29 l 575 0 l 119 0 l 253 946 l 699 946 m 614 1196 l 626 1161 l 364 1061 l 356 1082 l 614 1196 z "},"Ĕ":{"ha":686,"x_min":119,"x_max":699,"o":"m 699 946 l 690 917 l 281 917 l 224 514 l 578 514 l 574 485 l 219 485 l 156 29 l 581 29 l 575 0 l 119 0 l 253 946 l 699 946 m 494 1071 q 399 1102 436 1071 q 356 1178 361 1133 l 379 1181 q 417 1122 386 1144 q 494 1100 447 1100 q 579 1122 543 1100 q 633 1182 615 1144 l 657 1175 q 597 1101 640 1131 q 494 1071 553 1071 z "},"Ě":{"ha":686,"x_min":119,"x_max":699,"o":"m 699 946 l 690 917 l 281 917 l 224 514 l 578 514 l 574 485 l 219 485 l 156 29 l 581 29 l 575 0 l 119 0 l 253 946 l 699 946 m 674 1199 l 688 1181 l 504 1056 l 488 1056 l 339 1181 l 356 1197 l 500 1089 l 674 1199 z "},"Ȩ":{"ha":686,"x_min":119,"x_max":699,"o":"m 281 917 l 224 514 l 578 514 l 574 485 l 219 485 l 156 29 l 581 29 l 575 0 l 354 0 l 335 -103 q 423 -128 394 -107 q 451 -190 451 -149 q 415 -266 451 -237 q 322 -294 378 -294 q 229 -269 267 -294 l 243 -247 q 322 -267 275 -267 q 393 -247 367 -267 q 419 -192 419 -226 q 393 -142 419 -157 q 304 -126 367 -128 l 331 0 l 119 0 l 253 946 l 699 946 l 690 917 l 281 917 z "},"Ê":{"ha":686,"x_min":119,"x_max":699,"o":"m 699 946 l 690 917 l 281 917 l 224 514 l 578 514 l 574 485 l 219 485 l 156 29 l 581 29 l 575 0 l 119 0 l 253 946 l 699 946 m 332 1064 l 318 1083 l 501 1207 l 518 1207 l 667 1082 l 650 1064 l 508 1174 l 332 1064 z "},"Ế":{"ha":686,"x_min":119,"x_max":783,"o":"m 761 1324 l 783 1297 l 619 1144 l 604 1161 l 761 1324 m 331 1024 l 317 1043 l 500 1167 l 517 1167 l 665 1042 l 649 1024 l 507 1133 l 331 1024 m 699 946 l 690 917 l 281 917 l 224 514 l 578 514 l 574 485 l 219 485 l 156 29 l 581 29 l 575 0 l 119 0 l 253 946 l 699 946 z "},"Ệ":{"ha":686,"x_min":119,"x_max":699,"o":"m 699 946 l 690 917 l 281 917 l 224 514 l 578 514 l 574 485 l 219 485 l 156 29 l 581 29 l 575 0 l 119 0 l 253 946 l 699 946 m 332 1064 l 318 1083 l 501 1207 l 518 1207 l 667 1082 l 650 1064 l 508 1174 l 332 1064 m 324 -137 q 342 -144 335 -137 q 349 -161 349 -150 q 340 -183 349 -174 q 319 -192 332 -192 q 300 -185 307 -192 q 293 -167 293 -178 q 301 -147 293 -156 q 324 -137 310 -137 z "},"Ề":{"ha":686,"x_min":119,"x_max":699,"o":"m 283 1324 l 396 1158 l 376 1144 l 256 1301 l 283 1324 m 326 1024 l 313 1043 l 496 1167 l 513 1167 l 661 1042 l 644 1024 l 503 1133 l 326 1024 m 699 946 l 690 917 l 281 917 l 224 514 l 578 514 l 574 485 l 219 485 l 156 29 l 581 29 l 575 0 l 119 0 l 253 946 l 699 946 z "},"Ể":{"ha":686,"x_min":119,"x_max":775,"o":"m 699 946 l 690 917 l 281 917 l 224 514 l 578 514 l 574 485 l 219 485 l 156 29 l 581 29 l 575 0 l 119 0 l 253 946 l 699 946 m 329 1024 l 315 1043 l 499 1167 l 515 1167 l 664 1042 l 647 1024 l 506 1133 l 329 1024 m 638 1196 q 714 1217 685 1199 q 743 1275 743 1236 q 681 1332 743 1332 q 639 1327 656 1332 q 597 1311 622 1322 l 586 1335 q 681 1360 632 1360 q 750 1338 725 1360 q 775 1275 775 1315 q 746 1208 775 1233 q 665 1175 717 1182 l 658 1117 l 628 1117 l 638 1196 z "},"Ễ":{"ha":686,"x_min":119,"x_max":704,"o":"m 596 1221 q 556 1228 574 1221 q 508 1253 538 1236 q 471 1274 486 1267 q 439 1281 456 1281 q 395 1270 413 1281 q 349 1231 378 1260 l 331 1244 q 385 1292 358 1276 q 439 1308 411 1308 q 474 1301 458 1308 q 518 1279 490 1294 q 558 1256 540 1264 q 596 1249 576 1249 q 639 1262 618 1249 q 685 1306 660 1275 l 704 1293 q 651 1238 676 1254 q 596 1221 625 1221 m 326 1024 l 313 1043 l 496 1167 l 513 1167 l 661 1042 l 644 1024 l 503 1133 l 326 1024 m 699 946 l 690 917 l 281 917 l 224 514 l 578 514 l 574 485 l 219 485 l 156 29 l 581 29 l 575 0 l 119 0 l 253 946 l 699 946 z "},"Ȅ":{"ha":686,"x_min":119,"x_max":699,"o":"m 699 946 l 690 917 l 281 917 l 224 514 l 578 514 l 574 485 l 219 485 l 156 29 l 581 29 l 575 0 l 119 0 l 253 946 l 699 946 m 368 1274 l 442 1093 l 417 1081 l 335 1258 l 368 1274 m 521 1272 l 586 1097 l 561 1086 l 486 1256 l 521 1272 z "},"Ë":{"ha":686,"x_min":119,"x_max":699,"o":"m 699 946 l 690 917 l 281 917 l 224 514 l 578 514 l 574 485 l 219 485 l 156 29 l 581 29 l 575 0 l 119 0 l 253 946 l 699 946 m 390 1110 q 372 1116 379 1110 q 365 1133 365 1122 q 374 1155 365 1146 q 394 1164 382 1164 q 414 1157 407 1164 q 421 1139 421 1150 q 412 1119 421 1128 q 390 1110 403 1110 m 619 1110 q 601 1116 608 1110 q 594 1133 594 1122 q 603 1155 594 1146 q 625 1164 611 1164 q 643 1157 636 1164 q 650 1139 650 1150 q 642 1118 650 1126 q 619 1110 633 1110 z "},"Ė":{"ha":686,"x_min":119,"x_max":699,"o":"m 699 946 l 690 917 l 281 917 l 224 514 l 578 514 l 574 485 l 219 485 l 156 29 l 581 29 l 575 0 l 119 0 l 253 946 l 699 946 m 508 1126 q 490 1133 497 1126 q 483 1150 483 1139 q 492 1172 483 1163 q 513 1181 500 1181 q 532 1174 525 1181 q 539 1156 539 1167 q 531 1135 539 1144 q 508 1126 522 1126 z "},"Ẹ":{"ha":686,"x_min":119,"x_max":699,"o":"m 699 946 l 690 917 l 281 917 l 224 514 l 578 514 l 574 485 l 219 485 l 156 29 l 581 29 l 575 0 l 119 0 l 253 946 l 699 946 m 324 -137 q 342 -144 335 -137 q 349 -161 349 -150 q 340 -183 349 -174 q 319 -192 332 -192 q 300 -185 307 -192 q 293 -167 293 -178 q 301 -147 293 -156 q 324 -137 310 -137 z "},"È":{"ha":686,"x_min":119,"x_max":699,"o":"m 699 946 l 690 917 l 281 917 l 224 514 l 578 514 l 574 485 l 219 485 l 156 29 l 581 29 l 575 0 l 119 0 l 253 946 l 699 946 m 403 1194 l 629 1082 l 618 1061 l 386 1161 l 403 1194 z "},"Ẻ":{"ha":686,"x_min":119,"x_max":699,"o":"m 699 946 l 690 917 l 281 917 l 224 514 l 578 514 l 574 485 l 219 485 l 156 29 l 581 29 l 575 0 l 119 0 l 253 946 l 699 946 m 494 1165 q 571 1187 542 1168 q 600 1244 600 1206 q 538 1301 600 1301 q 496 1297 513 1301 q 454 1281 479 1292 l 443 1304 q 538 1329 489 1329 q 607 1307 582 1329 q 632 1244 632 1285 q 603 1177 632 1203 q 522 1144 574 1151 l 515 1086 l 485 1086 l 494 1165 z "},"Ȇ":{"ha":686,"x_min":119,"x_max":699,"o":"m 699 946 l 690 917 l 281 917 l 224 514 l 578 514 l 574 485 l 219 485 l 156 29 l 581 29 l 575 0 l 119 0 l 253 946 l 699 946 m 349 1114 q 410 1199 365 1167 q 514 1232 454 1232 q 610 1199 574 1232 q 649 1111 646 1165 l 625 1108 q 590 1178 618 1154 q 513 1203 561 1203 q 426 1178 463 1203 q 369 1107 389 1153 l 349 1114 z "},"Ē":{"ha":686,"x_min":119,"x_max":699,"o":"m 699 946 l 690 917 l 281 917 l 224 514 l 578 514 l 574 485 l 219 485 l 156 29 l 581 29 l 575 0 l 119 0 l 253 946 l 699 946 m 650 1126 l 363 1126 l 367 1156 l 654 1156 l 650 1126 z "},"Ę":{"ha":686,"x_min":119,"x_max":699,"o":"m 281 917 l 224 514 l 578 514 l 574 485 l 219 485 l 156 29 l 581 29 l 575 0 l 540 0 q 391 -80 440 -40 q 342 -175 342 -119 q 429 -251 342 -251 q 506 -242 463 -251 l 499 -272 q 425 -282 460 -282 q 338 -256 368 -282 q 308 -187 308 -231 q 353 -81 308 -124 q 486 0 399 -37 l 119 0 l 253 946 l 699 946 l 690 917 l 281 917 z "},"Ɛ":{"ha":718,"x_min":69,"x_max":708,"o":"m 450 960 q 594 931 535 960 q 708 843 654 903 l 686 825 q 583 903 640 876 q 450 931 526 931 q 320 902 378 931 q 230 822 263 874 q 197 703 197 769 q 254 574 197 619 q 407 528 311 528 l 483 528 l 476 499 l 399 500 q 183 428 264 501 q 103 231 103 354 q 165 72 103 128 q 333 17 228 17 q 483 47 414 17 q 617 135 553 76 l 638 114 q 492 18 565 50 q 333 -14 418 -14 q 142 51 214 -14 q 69 231 69 117 q 142 430 69 354 q 328 515 215 506 q 210 576 254 529 q 165 701 165 622 q 201 835 165 776 q 303 927 238 894 q 450 960 368 960 z "},"Ǝ":{"ha":686,"x_min":8,"x_max":596,"o":"m 151 946 l 596 946 l 464 0 l 8 0 l 14 29 l 438 29 l 501 485 l 147 485 l 151 514 l 504 514 l 561 917 l 147 917 l 151 946 z "},"Ʃ":{"ha":674,"x_min":22,"x_max":682,"o":"m 682 946 l 678 917 l 197 917 l 454 474 l 453 461 l 76 29 l 553 29 l 549 0 l 22 0 l 25 17 l 421 471 l 153 929 l 156 946 l 682 946 z "},"Ɇ":{"ha":686,"x_min":119,"x_max":699,"o":"m 690 917 l 607 917 l 444 514 l 578 514 l 574 485 l 433 485 l 250 29 l 581 29 l 575 0 l 239 0 l 201 -92 l 178 -86 l 213 0 l 119 0 l 253 946 l 593 946 l 625 1024 l 647 1017 l 618 946 l 699 946 l 690 917 m 419 514 l 582 917 l 281 917 l 224 514 l 419 514 m 224 29 l 408 485 l 219 485 l 156 29 l 224 29 z "},"Ẽ":{"ha":686,"x_min":119,"x_max":699,"o":"m 699 946 l 690 917 l 281 917 l 224 514 l 578 514 l 574 485 l 219 485 l 156 29 l 581 29 l 575 0 l 119 0 l 253 946 l 699 946 m 589 1117 q 549 1124 567 1117 q 501 1149 531 1132 q 464 1169 479 1163 q 432 1176 449 1176 q 388 1166 406 1176 q 342 1126 371 1156 l 324 1140 q 378 1188 351 1172 q 432 1204 404 1204 q 468 1197 451 1204 q 510 1175 485 1190 q 552 1152 535 1160 q 589 1144 569 1144 q 632 1158 611 1144 q 678 1201 653 1171 l 697 1189 q 644 1133 669 1150 q 589 1117 618 1117 z "},"Ʒ":{"ha":657,"x_min":-4,"x_max":631,"o":"m 626 919 l 240 518 l 307 518 q 507 462 439 518 q 575 301 575 406 q 534 138 575 210 q 419 26 493 67 q 250 -14 344 -14 q 101 15 161 -14 q -4 101 40 44 l 17 118 q 115 41 63 65 q 249 17 168 17 q 404 53 338 17 q 507 153 471 89 q 543 301 543 218 q 482 443 543 397 q 307 489 421 489 l 197 489 l 201 518 l 583 918 l 129 918 l 133 946 l 631 946 l 626 919 z "},"Ǯ":{"ha":657,"x_min":-4,"x_max":631,"o":"m 626 919 l 240 518 l 307 518 q 507 462 439 518 q 575 301 575 406 q 534 138 575 210 q 419 26 493 67 q 250 -14 344 -14 q 101 15 161 -14 q -4 101 40 44 l 17 118 q 115 41 63 65 q 249 17 168 17 q 404 53 338 17 q 507 153 471 89 q 543 301 543 218 q 482 443 543 397 q 307 489 421 489 l 197 489 l 201 518 l 583 918 l 129 918 l 133 946 l 631 946 l 626 919 m 575 1199 l 589 1181 l 406 1056 l 389 1056 l 240 1181 l 257 1197 l 401 1089 l 575 1199 z "},"Ƹ":{"ha":658,"x_min":53,"x_max":689,"o":"m 685 918 l 226 918 l 500 519 l 497 489 l 389 489 q 166 416 247 489 q 85 218 85 343 q 142 70 85 124 q 299 17 199 17 q 447 41 385 17 q 571 119 510 65 l 590 99 q 459 14 526 42 q 299 -14 392 -14 q 120 49 188 -14 q 53 218 53 113 q 95 377 53 310 q 214 481 138 444 q 393 518 290 518 l 467 518 l 186 919 l 190 946 l 689 946 l 685 918 z "},"F":{"ha":654,"x_min":119,"x_max":692,"o":"m 692 946 l 683 917 l 281 917 l 221 494 l 569 494 l 565 465 l 217 465 l 151 0 l 119 0 l 253 946 l 692 946 z "},"Ḟ":{"ha":654,"x_min":119,"x_max":692,"o":"m 692 946 l 683 917 l 281 917 l 221 494 l 569 494 l 565 465 l 217 465 l 151 0 l 119 0 l 253 946 l 692 946 m 500 1126 q 482 1133 489 1126 q 475 1150 475 1139 q 483 1172 475 1163 q 504 1181 492 1181 q 524 1174 517 1181 q 531 1156 531 1167 q 522 1135 531 1144 q 500 1126 514 1126 z "},"Ƒ":{"ha":654,"x_min":-140,"x_max":692,"o":"m 281 917 l 221 494 l 569 494 l 565 465 l 217 465 l 151 0 l 135 -121 q 81 -235 124 -196 q -22 -274 39 -274 q -88 -262 -61 -274 q -140 -231 -115 -250 l -122 -210 q -78 -235 -101 -226 q -22 -244 -56 -244 q 59 -214 25 -244 q 103 -117 93 -183 l 119 0 l 253 946 l 692 946 l 683 917 l 281 917 z "},"G":{"ha":840,"x_min":115,"x_max":789,"o":"m 563 960 q 685 940 632 960 q 789 878 739 919 l 769 857 q 675 913 724 894 q 563 931 626 931 q 335 846 428 931 q 195 629 242 761 q 149 357 149 497 q 225 103 149 189 q 439 17 301 17 q 560 31 506 17 q 667 74 614 46 l 722 463 l 521 463 l 521 492 l 758 492 l 697 56 q 439 -14 568 -14 q 201 82 288 -14 q 115 360 115 178 q 167 645 115 507 q 319 872 218 783 q 563 960 421 960 z "},"Ǵ":{"ha":840,"x_min":115,"x_max":789,"o":"m 563 960 q 685 940 632 960 q 789 878 739 919 l 769 857 q 675 913 724 894 q 563 931 626 931 q 335 846 428 931 q 195 629 242 761 q 149 357 149 497 q 225 103 149 189 q 439 17 301 17 q 560 31 506 17 q 667 74 614 46 l 722 463 l 521 463 l 521 492 l 758 492 l 697 56 q 439 -14 568 -14 q 201 82 288 -14 q 115 360 115 178 q 167 645 115 507 q 319 872 218 783 q 563 960 421 960 m 694 1196 l 707 1161 l 444 1061 l 436 1082 l 694 1196 z "},"Ɣ":{"ha":742,"x_min":121,"x_max":785,"o":"m 349 75 q 387 -61 376 -19 q 397 -142 397 -103 q 367 -237 397 -201 q 285 -274 338 -274 q 221 -250 243 -274 q 199 -186 199 -226 q 224 -84 199 -140 q 313 79 250 -28 l 121 946 l 153 946 l 333 104 l 751 946 l 785 946 l 349 75 m 367 -142 q 358 -67 367 -104 q 326 51 350 -31 q 252 -91 275 -39 q 229 -186 229 -143 q 285 -246 229 -246 q 346 -217 325 -246 q 367 -142 367 -189 z "},"Ğ":{"ha":840,"x_min":115,"x_max":789,"o":"m 563 960 q 685 940 632 960 q 789 878 739 919 l 769 857 q 675 913 724 894 q 563 931 626 931 q 335 846 428 931 q 195 629 242 761 q 149 357 149 497 q 225 103 149 189 q 439 17 301 17 q 560 31 506 17 q 667 74 614 46 l 722 463 l 521 463 l 521 492 l 758 492 l 697 56 q 439 -14 568 -14 q 201 82 288 -14 q 115 360 115 178 q 167 645 115 507 q 319 872 218 783 q 563 960 421 960 m 575 1071 q 479 1102 517 1071 q 436 1178 442 1133 l 460 1181 q 497 1122 467 1144 q 575 1100 528 1100 q 660 1122 624 1100 q 714 1182 696 1144 l 738 1175 q 677 1101 721 1131 q 575 1071 633 1071 z "},"Ǧ":{"ha":840,"x_min":115,"x_max":789,"o":"m 563 960 q 685 940 632 960 q 789 878 739 919 l 769 857 q 675 913 724 894 q 563 931 626 931 q 335 846 428 931 q 195 629 242 761 q 149 357 149 497 q 225 103 149 189 q 439 17 301 17 q 560 31 506 17 q 667 74 614 46 l 722 463 l 521 463 l 521 492 l 758 492 l 697 56 q 439 -14 568 -14 q 201 82 288 -14 q 115 360 115 178 q 167 645 115 507 q 319 872 218 783 q 563 960 421 960 m 754 1199 l 768 1181 l 585 1056 l 568 1056 l 419 1181 l 436 1197 l 581 1089 l 754 1199 z "},"Ĝ":{"ha":840,"x_min":115,"x_max":789,"o":"m 563 960 q 685 940 632 960 q 789 878 739 919 l 769 857 q 675 913 724 894 q 563 931 626 931 q 335 846 428 931 q 195 629 242 761 q 149 357 149 497 q 225 103 149 189 q 439 17 301 17 q 560 31 506 17 q 667 74 614 46 l 722 463 l 521 463 l 521 492 l 758 492 l 697 56 q 439 -14 568 -14 q 201 82 288 -14 q 115 360 115 178 q 167 645 115 507 q 319 872 218 783 q 563 960 421 960 m 413 1064 l 399 1083 l 582 1207 l 599 1207 l 747 1082 l 731 1064 l 589 1174 l 413 1064 z "},"Ģ":{"ha":840,"x_min":115,"x_max":789,"o":"m 563 960 q 685 940 632 960 q 789 878 739 919 l 769 857 q 675 913 724 894 q 563 931 626 931 q 335 846 428 931 q 195 629 242 761 q 149 357 149 497 q 225 103 149 189 q 439 17 301 17 q 560 31 506 17 q 667 74 614 46 l 722 463 l 521 463 l 521 492 l 758 492 l 697 56 q 439 -14 568 -14 q 201 82 288 -14 q 115 360 115 178 q 167 645 115 507 q 319 872 218 783 q 563 960 421 960 m 407 -133 q 429 -142 421 -133 q 438 -162 438 -150 q 433 -187 438 -175 q 411 -228 428 -199 l 344 -358 l 322 -358 l 389 -197 q 369 -168 369 -189 q 380 -143 369 -153 q 407 -133 390 -133 z "},"Ġ":{"ha":840,"x_min":115,"x_max":789,"o":"m 563 960 q 685 940 632 960 q 789 878 739 919 l 769 857 q 675 913 724 894 q 563 931 626 931 q 335 846 428 931 q 195 629 242 761 q 149 357 149 497 q 225 103 149 189 q 439 17 301 17 q 560 31 506 17 q 667 74 614 46 l 722 463 l 521 463 l 521 492 l 758 492 l 697 56 q 439 -14 568 -14 q 201 82 288 -14 q 115 360 115 178 q 167 645 115 507 q 319 872 218 783 q 563 960 421 960 m 589 1126 q 571 1133 578 1126 q 564 1150 564 1139 q 572 1172 564 1163 q 593 1181 581 1181 q 613 1174 606 1181 q 619 1156 619 1167 q 611 1135 619 1144 q 589 1126 603 1126 z "},"Ɠ":{"ha":764,"x_min":115,"x_max":1047,"o":"m 928 1131 q 1047 1088 996 1131 l 1029 1068 q 929 1103 988 1103 q 847 1072 881 1103 q 804 975 813 1040 l 789 878 l 772 860 q 674 913 724 896 q 563 931 625 931 q 335 846 428 931 q 195 629 242 761 q 149 357 149 497 q 225 103 149 189 q 439 17 301 17 q 560 31 506 17 q 667 74 614 46 l 722 463 l 521 463 l 521 492 l 758 492 l 697 56 q 439 -14 568 -14 q 201 82 288 -14 q 115 360 115 178 q 167 645 115 507 q 319 872 218 783 q 563 960 421 960 q 763 899 685 960 l 774 978 q 825 1092 783 1053 q 928 1131 867 1131 z "},"Ɂ":{"ha":629,"x_min":99,"x_max":624,"o":"m 236 401 l 328 424 q 525 526 460 454 q 590 722 590 599 q 537 875 590 819 q 382 931 483 931 q 245 903 310 931 q 117 824 181 875 l 99 846 q 236 931 168 903 q 383 960 304 960 q 560 895 497 960 q 624 722 624 831 q 551 509 624 588 q 336 396 478 431 l 265 379 l 211 0 l 179 0 l 236 401 z "},"Ǥ":{"ha":861,"x_min":115,"x_max":847,"o":"m 843 294 l 731 294 l 697 56 q 439 -14 568 -14 q 201 82 288 -14 q 115 360 115 178 q 167 645 115 507 q 319 872 218 783 q 563 960 421 960 q 685 940 632 960 q 789 878 739 919 l 768 857 q 675 913 724 894 q 563 931 626 931 q 335 846 428 931 q 195 629 242 761 q 149 357 149 497 q 225 103 149 189 q 439 17 301 17 q 560 31 506 17 q 667 74 614 46 l 699 294 l 504 294 l 508 324 l 703 324 l 722 463 l 521 463 l 521 492 l 758 492 l 735 324 l 847 324 l 843 294 z "},"Ȝ":{"ha":686,"x_min":29,"x_max":625,"o":"m 406 960 q 566 904 507 960 q 625 753 625 849 q 563 584 625 649 q 401 501 501 519 q 542 447 490 493 q 593 313 593 401 q 444 44 593 140 q 29 -111 296 -53 l 29 -83 q 419 64 278 -28 q 560 311 560 156 q 328 486 560 489 l 244 485 l 253 514 l 324 514 q 464 544 403 514 q 559 629 525 575 q 593 753 593 683 q 543 884 593 838 q 406 931 493 931 q 263 903 329 931 q 132 824 197 875 l 114 846 q 254 931 185 903 q 406 960 324 960 z "},"H":{"ha":917,"x_min":119,"x_max":828,"o":"m 151 0 l 119 0 l 253 946 l 285 946 l 224 517 l 736 517 l 796 946 l 828 946 l 694 0 l 663 0 l 732 488 l 219 488 l 151 0 z "},"Ħ":{"ha":913,"x_min":122,"x_max":881,"o":"m 881 747 l 876 722 l 799 722 l 697 0 l 665 0 l 735 488 l 222 488 l 154 0 l 122 0 l 224 722 l 142 722 l 146 747 l 228 747 l 256 946 l 288 946 l 260 747 l 771 747 l 799 946 l 831 946 l 803 747 l 881 747 m 739 517 l 768 722 l 256 722 l 226 517 l 739 517 z "},"Ȟ":{"ha":917,"x_min":119,"x_max":828,"o":"m 151 0 l 119 0 l 253 946 l 285 946 l 224 517 l 736 517 l 796 946 l 828 946 l 694 0 l 663 0 l 732 488 l 219 488 l 151 0 m 731 1199 l 744 1181 l 561 1056 l 544 1056 l 396 1181 l 413 1197 l 557 1089 l 731 1199 z "},"Ĥ":{"ha":917,"x_min":119,"x_max":828,"o":"m 151 0 l 119 0 l 253 946 l 285 946 l 224 517 l 736 517 l 796 946 l 828 946 l 694 0 l 663 0 l 732 488 l 219 488 l 151 0 m 389 1064 l 375 1083 l 558 1207 l 575 1207 l 724 1082 l 707 1064 l 565 1174 l 389 1064 z "},"Ḥ":{"ha":917,"x_min":119,"x_max":828,"o":"m 151 0 l 119 0 l 253 946 l 285 946 l 224 517 l 736 517 l 796 946 l 828 946 l 694 0 l 663 0 l 732 488 l 219 488 l 151 0 m 388 -137 q 406 -144 399 -137 q 413 -161 413 -150 q 404 -183 413 -174 q 383 -192 396 -192 q 364 -185 371 -192 q 357 -167 357 -178 q 365 -147 357 -156 q 388 -137 374 -137 z "},"Ɦ":{"ha":976,"x_min":94,"x_max":888,"o":"m 888 946 l 754 0 l 722 0 l 792 488 l 279 488 l 211 0 l 179 0 l 308 918 l 264 918 q 160 883 194 918 q 125 790 125 847 q 131 746 125 764 q 147 704 136 728 l 121 692 q 101 739 107 718 q 94 790 94 760 q 140 903 94 860 q 268 946 185 946 l 344 946 l 283 517 l 796 517 l 856 946 l 888 946 z "},"Ɥ":{"ha":799,"x_min":100,"x_max":710,"o":"m 710 946 l 578 0 l 546 0 l 608 440 q 328 321 489 321 q 162 376 224 321 q 100 529 100 432 q 104 576 100 551 l 156 946 l 188 946 l 135 576 q 132 535 132 546 q 185 399 132 447 q 332 350 238 350 q 486 385 413 350 q 614 481 560 421 l 679 946 l 710 946 z "},"Ƕ":{"ha":1331,"x_min":119,"x_max":1217,"o":"m 878 -14 q 740 38 788 -14 q 692 174 692 90 q 694 217 692 201 l 732 488 l 219 488 l 151 0 l 119 0 l 253 946 l 285 946 l 224 517 l 736 517 l 796 946 l 828 946 l 725 217 q 722 174 722 201 q 763 57 722 99 q 882 15 804 15 q 1119 185 1053 15 q 1186 590 1186 356 q 1183 721 1186 646 l 1214 721 q 1217 590 1217 643 q 1143 163 1217 339 q 878 -14 1069 -14 z "},"I":{"ha":372,"x_min":119,"x_max":285,"o":"m 285 946 l 151 0 l 119 0 l 253 946 l 285 946 z "},"Ĳ":{"ha":758,"x_min":119,"x_max":678,"o":"m 285 946 l 151 0 l 119 0 l 253 946 l 285 946 m 563 121 q 531 3 551 47 q 468 -73 511 -40 q 344 -139 425 -106 l 336 -115 q 444 -54 406 -85 q 502 17 483 -24 q 531 125 521 58 l 646 946 l 678 946 l 563 121 z "},"Í":{"ha":372,"x_min":119,"x_max":415,"o":"m 285 946 l 151 0 l 119 0 l 253 946 l 285 946 m 403 1196 l 415 1161 l 153 1061 l 144 1082 l 403 1196 z "},"Ĭ":{"ha":372,"x_min":119,"x_max":446,"o":"m 285 946 l 151 0 l 119 0 l 253 946 l 285 946 m 283 1071 q 188 1102 225 1071 q 144 1178 150 1133 l 168 1181 q 206 1122 175 1144 q 283 1100 236 1100 q 368 1122 332 1100 q 422 1182 404 1144 l 446 1175 q 385 1101 429 1131 q 283 1071 342 1071 z "},"Ǐ":{"ha":372,"x_min":119,"x_max":476,"o":"m 285 946 l 151 0 l 119 0 l 253 946 l 285 946 m 463 1199 l 476 1181 l 293 1056 l 276 1056 l 128 1181 l 144 1197 l 289 1089 l 463 1199 z "},"Î":{"ha":372,"x_min":107,"x_max":456,"o":"m 285 946 l 151 0 l 119 0 l 253 946 l 285 946 m 121 1064 l 107 1083 l 290 1207 l 307 1207 l 456 1082 l 439 1064 l 297 1174 l 121 1064 z "},"Ȉ":{"ha":372,"x_min":119,"x_max":375,"o":"m 285 946 l 151 0 l 119 0 l 253 946 l 285 946 m 157 1274 l 231 1093 l 206 1081 l 124 1258 l 157 1274 m 310 1272 l 375 1097 l 350 1086 l 275 1256 l 310 1272 z "},"Ï":{"ha":372,"x_min":119,"x_max":439,"o":"m 285 946 l 151 0 l 119 0 l 253 946 l 285 946 m 179 1110 q 161 1116 168 1110 q 154 1133 154 1122 q 163 1155 154 1146 q 183 1164 171 1164 q 203 1157 196 1164 q 210 1139 210 1150 q 201 1119 210 1128 q 179 1110 192 1110 m 408 1110 q 390 1116 397 1110 q 383 1133 383 1122 q 392 1155 383 1146 q 414 1164 400 1164 q 432 1157 425 1164 q 439 1139 439 1150 q 431 1118 439 1126 q 408 1110 422 1110 z "},"Ḯ":{"ha":372,"x_min":119,"x_max":444,"o":"m 285 946 l 151 0 l 119 0 l 253 946 l 285 946 m 422 1279 l 444 1253 l 281 1100 l 265 1117 l 422 1279 m 163 1031 q 143 1037 150 1031 q 136 1054 136 1043 q 144 1076 136 1067 q 167 1085 153 1085 q 185 1078 178 1085 q 192 1061 192 1072 q 183 1040 192 1049 q 163 1031 175 1031 m 392 1031 q 374 1037 381 1031 q 367 1054 367 1043 q 375 1076 367 1067 q 397 1085 383 1085 q 415 1078 408 1085 q 422 1061 422 1072 q 414 1040 422 1049 q 392 1031 406 1031 z "},"İ":{"ha":372,"x_min":119,"x_max":328,"o":"m 285 946 l 151 0 l 119 0 l 253 946 l 285 946 m 297 1126 q 279 1133 286 1126 q 272 1150 272 1139 q 281 1172 272 1163 q 301 1181 289 1181 q 321 1174 314 1181 q 328 1156 328 1167 q 319 1135 328 1144 q 297 1126 311 1126 z "},"Ị":{"ha":372,"x_min":86,"x_max":285,"o":"m 285 946 l 151 0 l 119 0 l 253 946 l 285 946 m 117 -137 q 135 -144 128 -137 q 142 -161 142 -150 q 133 -183 142 -174 q 113 -192 125 -192 q 93 -185 100 -192 q 86 -167 86 -178 q 94 -147 86 -156 q 117 -137 103 -137 z "},"Ì":{"ha":372,"x_min":119,"x_max":418,"o":"m 285 946 l 151 0 l 119 0 l 253 946 l 285 946 m 192 1194 l 418 1082 l 407 1061 l 175 1161 l 192 1194 z "},"Ỉ":{"ha":372,"x_min":119,"x_max":421,"o":"m 285 946 l 151 0 l 119 0 l 253 946 l 285 946 m 283 1165 q 360 1187 331 1168 q 389 1244 389 1206 q 326 1301 389 1301 q 285 1297 301 1301 q 243 1281 268 1292 l 232 1304 q 326 1329 278 1329 q 396 1307 371 1329 q 421 1244 421 1285 q 392 1177 421 1203 q 311 1144 363 1151 l 304 1086 l 274 1086 l 283 1165 z "},"Ȋ":{"ha":372,"x_min":119,"x_max":438,"o":"m 285 946 l 151 0 l 119 0 l 253 946 l 285 946 m 138 1114 q 199 1199 154 1167 q 303 1232 243 1232 q 399 1199 363 1232 q 438 1111 435 1165 l 414 1108 q 378 1178 407 1154 q 301 1203 350 1203 q 215 1178 251 1203 q 158 1107 178 1153 l 138 1114 z "},"Ī":{"ha":372,"x_min":119,"x_max":443,"o":"m 285 946 l 151 0 l 119 0 l 253 946 l 285 946 m 439 1126 l 151 1126 l 156 1156 l 443 1156 l 439 1126 z "},"Į":{"ha":372,"x_min":-81,"x_max":285,"o":"m 151 0 q 2 -80 51 -40 q -47 -175 -47 -119 q 40 -251 -47 -251 q 117 -242 74 -251 l 110 -272 q 36 -282 71 -282 q -51 -256 -21 -282 q -81 -187 -81 -231 q -31 -75 -81 -119 q 121 10 19 -31 l 253 946 l 285 946 l 151 0 z "},"Ɩ":{"ha":436,"x_min":124,"x_max":368,"o":"m 368 26 q 240 -14 311 -14 q 155 17 186 -14 q 124 106 124 47 q 126 142 124 117 l 142 260 l 143 260 l 239 946 l 271 946 l 174 260 l 157 140 q 156 110 156 129 q 240 15 156 15 q 354 50 303 15 l 368 26 z "},"Ɨ":{"ha":451,"x_min":75,"x_max":417,"o":"m 417 515 l 413 486 l 264 486 l 196 0 l 164 0 l 232 486 l 75 486 l 79 515 l 236 515 l 297 946 l 329 946 l 268 515 l 417 515 z "},"Ĩ":{"ha":372,"x_min":113,"x_max":486,"o":"m 285 946 l 151 0 l 119 0 l 253 946 l 285 946 m 378 1117 q 338 1124 356 1117 q 290 1149 319 1132 q 253 1169 268 1163 q 221 1176 238 1176 q 177 1166 194 1176 q 131 1126 160 1156 l 113 1140 q 167 1188 140 1172 q 221 1204 193 1204 q 257 1197 240 1204 q 299 1175 274 1190 q 341 1152 324 1160 q 378 1144 358 1144 q 421 1158 400 1144 q 467 1201 442 1171 l 486 1189 q 433 1133 458 1150 q 378 1117 407 1117 z "},"J":{"ha":386,"x_min":-36,"x_max":306,"o":"m 190 121 q 159 3 179 47 q 96 -73 139 -40 q -28 -139 53 -106 l -36 -115 q 72 -54 33 -85 q 130 17 111 -24 q 158 125 149 58 l 274 946 l 306 946 l 190 121 z "},"Ĵ":{"ha":386,"x_min":-36,"x_max":474,"o":"m 190 121 q 159 3 179 47 q 96 -73 139 -40 q -28 -139 53 -106 l -36 -115 q 72 -54 33 -85 q 130 17 111 -24 q 158 125 149 58 l 274 946 l 306 946 l 190 121 m 139 1064 l 125 1083 l 308 1207 l 325 1207 l 474 1082 l 457 1064 l 315 1174 l 139 1064 z "},"Ʝ":{"ha":404,"x_min":-171,"x_max":317,"o":"m 176 -40 q 300 -87 229 -56 l 286 -111 q 172 -68 231 -83 q -33 -274 139 -274 q -134 -242 -97 -274 q -171 -160 -171 -211 q -119 -60 -171 -97 q 15 -22 -68 -22 q 146 -35 86 -22 l 285 946 l 317 946 l 176 -40 m -33 -246 q 85 -201 44 -246 q 142 -62 126 -156 q 15 -50 85 -50 q -100 -79 -60 -50 q -140 -160 -140 -108 q -112 -222 -140 -199 q -33 -246 -85 -246 z "},"Ɉ":{"ha":407,"x_min":-35,"x_max":394,"o":"m 390 461 l 239 461 l 192 121 q 160 3 181 47 q 97 -73 140 -40 q -26 -139 54 -106 l -35 -115 q 74 -54 35 -85 q 131 17 113 -24 q 160 125 150 58 l 207 461 l 53 461 l 57 490 l 211 490 l 275 946 l 307 946 l 243 490 l 394 490 l 390 461 z "},"K":{"ha":708,"x_min":119,"x_max":763,"o":"m 119 0 l 253 946 l 285 946 l 151 0 l 119 0 m 614 0 l 228 510 l 722 946 l 763 946 l 267 507 l 651 0 l 614 0 z "},"Ǩ":{"ha":708,"x_min":119,"x_max":763,"o":"m 119 0 l 253 946 l 285 946 l 151 0 l 119 0 m 614 0 l 228 510 l 722 946 l 763 946 l 267 507 l 651 0 l 614 0 m 675 1199 l 689 1181 l 506 1056 l 489 1056 l 340 1181 l 357 1197 l 501 1089 l 675 1199 z "},"Ķ":{"ha":708,"x_min":119,"x_max":763,"o":"m 119 0 l 253 946 l 285 946 l 151 0 l 119 0 m 614 0 l 228 510 l 722 946 l 763 946 l 267 507 l 651 0 l 614 0 m 350 -133 q 372 -142 364 -133 q 381 -162 381 -150 q 376 -187 381 -175 q 354 -228 371 -199 l 288 -358 l 265 -358 l 332 -197 q 313 -168 313 -189 q 323 -143 313 -153 q 350 -133 333 -133 z "},"Ƙ":{"ha":758,"x_min":119,"x_max":829,"o":"m 228 510 l 557 863 q 643 940 608 919 q 721 960 678 960 q 829 908 783 960 l 808 890 q 769 922 788 911 q 721 932 750 932 q 658 915 686 932 q 575 840 629 897 l 265 510 l 651 0 l 613 0 l 228 510 m 119 0 l 253 946 l 285 946 l 151 0 l 119 0 z "},"L":{"ha":628,"x_min":119,"x_max":557,"o":"m 285 946 l 156 31 l 557 31 l 546 0 l 119 0 l 253 946 l 285 946 z "},"Ǉ":{"ha":993,"x_min":119,"x_max":913,"o":"m 285 946 l 156 31 l 557 31 l 546 0 l 119 0 l 253 946 l 285 946 m 797 121 q 766 3 786 47 q 703 -73 746 -40 q 579 -139 660 -106 l 571 -115 q 679 -54 640 -85 q 737 17 718 -24 q 765 125 756 58 l 881 946 l 913 946 l 797 121 z "},"Ĺ":{"ha":628,"x_min":119,"x_max":557,"o":"m 285 946 l 156 31 l 557 31 l 546 0 l 119 0 l 253 946 l 285 946 m 403 1196 l 415 1161 l 153 1061 l 144 1082 l 403 1196 z "},"Ƚ":{"ha":664,"x_min":76,"x_max":593,"o":"m 192 31 l 593 31 l 582 0 l 156 0 l 225 489 l 76 489 l 81 518 l 229 518 l 289 946 l 321 946 l 261 518 l 418 518 l 414 489 l 257 489 l 192 31 z "},"Ɬ":{"ha":663,"x_min":60,"x_max":592,"o":"m 592 31 l 581 0 l 154 0 l 208 388 q 99 415 138 388 q 60 497 60 443 q 99 583 60 551 q 199 615 139 615 q 240 613 218 615 l 288 946 l 319 946 l 244 415 q 403 432 325 417 l 401 406 q 240 388 331 392 l 190 31 l 592 31 m 236 586 q 197 589 217 589 q 119 564 149 589 q 90 497 90 539 q 120 435 90 454 q 213 415 150 415 l 236 586 z "},"Ľ":{"ha":628,"x_min":119,"x_max":557,"o":"m 285 946 l 156 31 l 557 31 l 546 0 l 119 0 l 253 946 l 285 946 m 432 953 l 464 950 l 400 749 l 378 753 l 432 953 z "},"Ḽ":{"ha":628,"x_min":119,"x_max":557,"o":"m 285 946 l 156 31 l 557 31 l 546 0 l 119 0 l 253 946 l 285 946 m 142 -256 l 125 -236 l 311 -104 l 328 -104 l 475 -236 l 460 -256 l 315 -137 l 142 -256 z "},"Ļ":{"ha":628,"x_min":119,"x_max":557,"o":"m 285 946 l 156 31 l 557 31 l 546 0 l 119 0 l 253 946 l 285 946 m 324 -133 q 346 -142 338 -133 q 354 -162 354 -150 q 349 -187 354 -175 q 328 -228 344 -199 l 261 -358 l 239 -358 l 306 -197 q 286 -168 286 -189 q 297 -143 286 -153 q 324 -133 307 -133 z "},"Ŀ":{"ha":628,"x_min":119,"x_max":557,"o":"m 285 946 l 156 31 l 557 31 l 546 0 l 119 0 l 253 946 l 285 946 m 503 465 q 485 472 492 465 q 478 489 478 478 q 486 510 478 501 q 507 519 494 519 q 526 513 519 519 q 533 494 533 506 q 525 474 533 483 q 503 465 517 465 z "},"Ḷ":{"ha":628,"x_min":119,"x_max":557,"o":"m 285 946 l 156 31 l 557 31 l 546 0 l 119 0 l 253 946 l 285 946 m 314 -137 q 332 -144 325 -137 q 339 -161 339 -150 q 331 -183 339 -174 q 310 -192 322 -192 q 290 -185 297 -192 q 283 -167 283 -178 q 292 -147 283 -156 q 314 -137 300 -137 z "},"ǈ":{"ha":965,"x_min":119,"x_max":903,"o":"m 285 946 l 156 31 l 557 31 l 546 0 l 119 0 l 253 946 l 285 946 m 550 -247 q 638 -192 606 -219 q 691 -117 671 -164 q 722 10 711 -69 l 822 721 l 853 721 l 753 7 q 717 -131 740 -81 q 658 -210 694 -181 q 558 -271 622 -240 l 550 -247 m 872 951 q 854 958 861 951 q 847 975 847 964 q 856 997 847 988 q 876 1006 864 1006 q 896 999 889 1006 q 903 981 903 992 q 894 960 903 969 q 872 951 886 951 z "},"Ł":{"ha":644,"x_min":72,"x_max":572,"o":"m 171 31 l 572 31 l 561 0 l 135 0 l 194 428 l 86 364 l 72 389 l 200 463 l 268 946 l 300 946 l 235 482 l 533 654 l 547 629 l 229 449 l 171 31 z "},"M":{"ha":1058,"x_min":57,"x_max":928,"o":"m 899 0 l 868 0 l 882 481 q 899 921 889 763 l 510 117 l 479 117 l 314 919 q 251 661 303 868 q 208 490 221 544 l 88 0 l 57 0 l 292 946 l 338 946 l 499 153 l 879 946 l 928 946 l 899 0 z "},"Ḿ":{"ha":1058,"x_min":57,"x_max":928,"o":"m 899 0 l 868 0 l 882 481 q 899 921 889 763 l 510 117 l 479 117 l 314 919 q 251 661 303 868 q 208 490 221 544 l 88 0 l 57 0 l 292 946 l 338 946 l 499 153 l 879 946 l 928 946 l 899 0 m 743 1196 l 756 1161 l 493 1061 l 485 1082 l 743 1196 z "},"Ṁ":{"ha":1058,"x_min":57,"x_max":928,"o":"m 899 0 l 868 0 l 882 481 q 899 921 889 763 l 510 117 l 479 117 l 314 919 q 251 661 303 868 q 208 490 221 544 l 88 0 l 57 0 l 292 946 l 338 946 l 499 153 l 879 946 l 928 946 l 899 0 m 638 1126 q 619 1133 626 1126 q 613 1150 613 1139 q 621 1172 613 1163 q 642 1181 629 1181 q 661 1174 654 1181 q 668 1156 668 1167 q 660 1135 668 1144 q 638 1126 651 1126 z "},"Ɯ":{"ha":1282,"x_min":138,"x_max":1193,"o":"m 1193 946 l 1061 0 l 1033 0 l 1051 153 q 928 31 997 76 q 778 -14 858 -14 q 651 31 697 -14 q 599 161 604 76 q 317 -14 472 -14 q 184 37 231 -14 q 138 183 138 88 q 142 247 138 214 l 239 946 l 271 946 l 172 240 q 168 182 168 210 q 206 58 168 100 q 317 15 244 15 q 468 65 399 15 q 599 201 538 114 q 603 247 599 222 l 700 946 l 732 946 l 633 240 q 629 182 629 210 q 667 58 629 100 q 778 15 706 15 q 1057 200 932 15 l 1161 946 l 1193 946 z "},"N":{"ha":918,"x_min":119,"x_max":829,"o":"m 697 0 l 658 0 l 274 914 q 243 661 271 857 l 150 0 l 119 0 l 253 946 l 293 946 l 676 35 q 707 285 686 143 l 799 946 l 829 946 l 697 0 z "},"Ǌ":{"ha":1304,"x_min":119,"x_max":1224,"o":"m 697 0 l 658 0 l 274 914 q 243 661 271 857 l 150 0 l 119 0 l 253 946 l 293 946 l 676 35 q 707 285 686 143 l 799 946 l 829 946 l 697 0 m 1108 121 q 1077 3 1097 47 q 1014 -73 1057 -40 q 890 -139 971 -106 l 882 -115 q 990 -54 951 -85 q 1048 17 1029 -24 q 1076 125 1067 58 l 1192 946 l 1224 946 l 1108 121 z "},"Ń":{"ha":918,"x_min":119,"x_max":829,"o":"m 697 0 l 658 0 l 274 914 q 243 661 271 857 l 150 0 l 119 0 l 253 946 l 293 946 l 676 35 q 707 285 686 143 l 799 946 l 829 946 l 697 0 m 683 1196 l 696 1161 l 433 1061 l 425 1082 l 683 1196 z "},"Ň":{"ha":918,"x_min":119,"x_max":829,"o":"m 697 0 l 658 0 l 274 914 q 243 661 271 857 l 150 0 l 119 0 l 253 946 l 293 946 l 676 35 q 707 285 686 143 l 799 946 l 829 946 l 697 0 m 743 1199 l 757 1181 l 574 1056 l 557 1056 l 408 1181 l 425 1197 l 569 1089 l 743 1199 z "},"Ṋ":{"ha":918,"x_min":119,"x_max":829,"o":"m 697 0 l 658 0 l 274 914 q 243 661 271 857 l 150 0 l 119 0 l 253 946 l 293 946 l 676 35 q 707 285 686 143 l 799 946 l 829 946 l 697 0 m 214 -256 l 197 -236 l 383 -104 l 400 -104 l 547 -236 l 532 -256 l 388 -137 l 214 -256 z "},"Ņ":{"ha":918,"x_min":119,"x_max":829,"o":"m 697 0 l 658 0 l 274 914 q 243 661 271 857 l 150 0 l 119 0 l 253 946 l 293 946 l 676 35 q 707 285 686 143 l 799 946 l 829 946 l 697 0 m 396 -133 q 418 -142 410 -133 q 426 -162 426 -150 q 422 -187 426 -175 q 400 -228 417 -199 l 333 -358 l 311 -358 l 378 -197 q 358 -168 358 -189 q 369 -143 358 -153 q 396 -133 379 -133 z "},"Ṅ":{"ha":918,"x_min":119,"x_max":829,"o":"m 697 0 l 658 0 l 274 914 q 243 661 271 857 l 150 0 l 119 0 l 253 946 l 293 946 l 676 35 q 707 285 686 143 l 799 946 l 829 946 l 697 0 m 578 1126 q 560 1133 567 1126 q 553 1150 553 1139 q 561 1172 553 1163 q 582 1181 569 1181 q 601 1174 594 1181 q 608 1156 608 1167 q 600 1135 608 1144 q 578 1126 592 1126 z "},"Ṇ":{"ha":918,"x_min":119,"x_max":829,"o":"m 697 0 l 658 0 l 274 914 q 243 661 271 857 l 150 0 l 119 0 l 253 946 l 293 946 l 676 35 q 707 285 686 143 l 799 946 l 829 946 l 697 0 m 386 -137 q 404 -144 397 -137 q 411 -161 411 -150 q 403 -183 411 -174 q 382 -192 394 -192 q 363 -185 369 -192 q 356 -167 356 -178 q 364 -147 356 -156 q 386 -137 372 -137 z "},"Ǹ":{"ha":918,"x_min":119,"x_max":829,"o":"m 697 0 l 658 0 l 274 914 q 243 661 271 857 l 150 0 l 119 0 l 253 946 l 293 946 l 676 35 q 707 285 686 143 l 799 946 l 829 946 l 697 0 m 472 1194 l 699 1082 l 688 1061 l 456 1161 l 472 1194 z "},"Ŋ":{"ha":918,"x_min":119,"x_max":829,"o":"m 829 946 l 697 0 l 681 -121 q 627 -235 669 -196 q 524 -274 585 -274 q 458 -262 485 -274 q 406 -231 431 -250 l 424 -210 q 467 -235 444 -226 q 524 -244 490 -244 q 605 -214 571 -244 q 649 -117 639 -183 l 665 0 l 658 0 l 274 914 q 243 661 271 857 l 150 0 l 119 0 l 253 946 l 293 946 l 676 35 q 707 285 686 143 l 799 946 l 829 946 z "},"Ɲ":{"ha":918,"x_min":-140,"x_max":829,"o":"m 829 946 l 697 0 l 658 0 l 274 914 q 243 661 271 857 l 150 0 l 133 -121 q 81 -235 122 -196 q -22 -274 39 -274 q -140 -231 -89 -274 l -122 -211 q -79 -236 -103 -228 q -22 -244 -56 -244 q 58 -214 25 -244 q 103 -117 92 -183 l 119 0 l 253 946 l 293 946 l 676 35 q 707 285 686 143 l 799 946 l 829 946 z "},"ǋ":{"ha":1276,"x_min":119,"x_max":1214,"o":"m 697 0 l 658 0 l 274 914 q 243 661 271 857 l 150 0 l 119 0 l 253 946 l 293 946 l 676 35 q 707 285 686 143 l 799 946 l 829 946 l 697 0 m 861 -247 q 949 -192 917 -219 q 1002 -117 982 -164 q 1033 10 1022 -69 l 1133 721 l 1164 721 l 1064 7 q 1028 -131 1051 -81 q 969 -210 1006 -181 q 869 -271 933 -240 l 861 -247 m 1183 951 q 1165 958 1172 951 q 1158 975 1158 964 q 1167 997 1158 988 q 1188 1006 1175 1006 q 1207 999 1200 1006 q 1214 981 1214 992 q 1206 960 1214 969 q 1183 951 1197 951 z "},"Ƞ":{"ha":904,"x_min":119,"x_max":794,"o":"m 593 960 q 742 908 689 960 q 794 756 794 856 q 789 690 794 738 l 656 -267 l 624 -267 l 757 688 q 761 751 761 724 q 717 886 761 842 q 592 931 674 931 q 412 882 493 931 q 256 746 331 833 l 151 0 l 119 0 l 253 946 l 281 946 l 261 789 q 593 960 413 960 z "},"Ñ":{"ha":918,"x_min":119,"x_max":829,"o":"m 697 0 l 658 0 l 274 914 q 243 661 271 857 l 150 0 l 119 0 l 253 946 l 293 946 l 676 35 q 707 285 686 143 l 799 946 l 829 946 l 697 0 m 658 1117 q 618 1124 636 1117 q 571 1149 600 1132 q 533 1169 549 1163 q 501 1176 518 1176 q 458 1166 475 1176 q 411 1126 440 1156 l 393 1140 q 447 1188 421 1172 q 501 1204 474 1204 q 538 1197 521 1204 q 579 1175 554 1190 q 622 1152 604 1160 q 658 1144 639 1144 q 701 1158 681 1144 q 747 1201 722 1171 l 767 1189 q 713 1133 739 1150 q 658 1117 688 1117 z "},"O":{"ha":957,"x_min":115,"x_max":875,"o":"m 561 960 q 792 865 708 960 q 875 593 875 771 q 831 317 875 456 q 687 82 788 178 q 428 -14 586 -14 q 199 83 282 -14 q 115 357 115 179 q 160 629 115 490 q 306 864 206 768 q 561 960 407 960 m 561 932 q 324 840 417 932 q 189 615 231 747 q 147 356 147 482 q 222 104 147 192 q 428 17 296 17 q 671 109 578 17 q 803 333 764 201 q 842 593 842 465 q 768 845 842 758 q 561 932 694 932 z "},"Ȣ":{"ha":872,"x_min":92,"x_max":783,"o":"m 760 772 q 698 614 746 676 q 560 529 650 551 q 706 452 657 510 q 756 304 756 394 q 708 138 756 210 q 577 26 661 65 q 386 -14 493 -14 q 167 51 243 -14 q 92 222 92 115 q 165 424 92 342 q 363 531 239 507 q 229 717 229 569 q 233 774 229 744 l 258 946 l 289 946 l 265 772 q 261 717 261 743 q 310 585 261 628 q 461 543 358 543 q 651 605 590 543 q 728 774 713 667 l 751 946 l 783 946 l 760 772 m 722 304 q 656 459 722 404 q 460 514 590 514 q 283 477 360 514 q 165 374 207 440 q 124 222 124 308 q 190 72 124 128 q 386 17 257 17 q 631 94 540 17 q 722 304 722 172 z "},"Ó":{"ha":957,"x_min":115,"x_max":875,"o":"m 561 960 q 792 865 708 960 q 875 593 875 771 q 831 317 875 456 q 687 82 788 178 q 428 -14 586 -14 q 199 83 282 -14 q 115 357 115 179 q 160 629 115 490 q 306 864 206 768 q 561 960 407 960 m 561 932 q 324 840 417 932 q 189 615 231 747 q 147 356 147 482 q 222 104 147 192 q 428 17 296 17 q 671 109 578 17 q 803 333 764 201 q 842 593 842 465 q 768 845 842 758 q 561 932 694 932 m 693 1196 l 706 1161 l 443 1061 l 435 1082 l 693 1196 z "},"Ŏ":{"ha":957,"x_min":115,"x_max":875,"o":"m 561 960 q 792 865 708 960 q 875 593 875 771 q 831 317 875 456 q 687 82 788 178 q 428 -14 586 -14 q 199 83 282 -14 q 115 357 115 179 q 160 629 115 490 q 306 864 206 768 q 561 960 407 960 m 561 932 q 324 840 417 932 q 189 615 231 747 q 147 356 147 482 q 222 104 147 192 q 428 17 296 17 q 671 109 578 17 q 803 333 764 201 q 842 593 842 465 q 768 845 842 758 q 561 932 694 932 m 574 1071 q 478 1102 515 1071 q 435 1178 440 1133 l 458 1181 q 496 1122 465 1144 q 574 1100 526 1100 q 658 1122 622 1100 q 713 1182 694 1144 l 736 1175 q 676 1101 719 1131 q 574 1071 632 1071 z "},"Ǒ":{"ha":957,"x_min":115,"x_max":875,"o":"m 561 960 q 792 865 708 960 q 875 593 875 771 q 831 317 875 456 q 687 82 788 178 q 428 -14 586 -14 q 199 83 282 -14 q 115 357 115 179 q 160 629 115 490 q 306 864 206 768 q 561 960 407 960 m 561 932 q 324 840 417 932 q 189 615 231 747 q 147 356 147 482 q 222 104 147 192 q 428 17 296 17 q 671 109 578 17 q 803 333 764 201 q 842 593 842 465 q 768 845 842 758 q 561 932 694 932 m 753 1199 l 767 1181 l 583 1056 l 567 1056 l 418 1181 l 435 1197 l 579 1089 l 753 1199 z "},"Ɵ":{"ha":957,"x_min":115,"x_max":875,"o":"m 561 960 q 792 865 708 960 q 875 593 875 771 q 831 317 875 456 q 687 82 788 178 q 428 -14 586 -14 q 199 83 282 -14 q 115 357 115 179 q 160 629 115 490 q 306 864 206 768 q 561 960 407 960 m 561 932 q 290 804 389 932 q 160 496 190 676 l 836 496 q 842 593 842 542 q 768 845 842 758 q 561 932 694 932 m 428 17 q 708 149 610 17 q 833 468 806 282 l 156 468 q 147 356 147 410 q 222 104 147 192 q 428 17 296 17 z "},"Ô":{"ha":957,"x_min":115,"x_max":875,"o":"m 561 960 q 792 865 708 960 q 875 593 875 771 q 831 317 875 456 q 687 82 788 178 q 428 -14 586 -14 q 199 83 282 -14 q 115 357 115 179 q 160 629 115 490 q 306 864 206 768 q 561 960 407 960 m 561 932 q 324 840 417 932 q 189 615 231 747 q 147 356 147 482 q 222 104 147 192 q 428 17 296 17 q 671 109 578 17 q 803 333 764 201 q 842 593 842 465 q 768 845 842 758 q 561 932 694 932 m 411 1064 l 397 1083 l 581 1207 l 597 1207 l 746 1082 l 729 1064 l 588 1174 l 411 1064 z "},"Ố":{"ha":957,"x_min":115,"x_max":875,"o":"m 840 1324 l 863 1297 l 699 1144 l 683 1161 l 840 1324 m 410 1024 l 396 1043 l 579 1167 l 596 1167 l 744 1042 l 728 1024 l 586 1133 l 410 1024 m 561 960 q 792 865 708 960 q 875 593 875 771 q 831 317 875 456 q 687 82 788 178 q 428 -14 586 -14 q 199 83 282 -14 q 115 357 115 179 q 160 629 115 490 q 306 864 206 768 q 561 960 407 960 m 561 932 q 324 840 417 932 q 189 615 231 747 q 147 356 147 482 q 222 104 147 192 q 428 17 296 17 q 671 109 578 17 q 803 333 764 201 q 842 593 842 465 q 768 845 842 758 q 561 932 694 932 z "},"Ộ":{"ha":957,"x_min":115,"x_max":875,"o":"m 561 960 q 792 865 708 960 q 875 593 875 771 q 831 317 875 456 q 687 82 788 178 q 428 -14 586 -14 q 199 83 282 -14 q 115 357 115 179 q 160 629 115 490 q 306 864 206 768 q 561 960 407 960 m 561 932 q 324 840 417 932 q 189 615 231 747 q 147 356 147 482 q 222 104 147 192 q 428 17 296 17 q 671 109 578 17 q 803 333 764 201 q 842 593 842 465 q 768 845 842 758 q 561 932 694 932 m 411 1064 l 397 1083 l 581 1207 l 597 1207 l 746 1082 l 729 1064 l 588 1174 l 411 1064 m 408 -137 q 426 -144 419 -137 q 433 -161 433 -150 q 425 -183 433 -174 q 404 -192 417 -192 q 385 -185 392 -192 q 378 -167 378 -178 q 386 -147 378 -156 q 408 -137 394 -137 z "},"Ồ":{"ha":957,"x_min":115,"x_max":875,"o":"m 363 1324 l 475 1158 l 456 1144 l 335 1301 l 363 1324 m 406 1024 l 392 1043 l 575 1167 l 592 1167 l 740 1042 l 724 1024 l 582 1133 l 406 1024 m 561 960 q 792 865 708 960 q 875 593 875 771 q 831 317 875 456 q 687 82 788 178 q 428 -14 586 -14 q 199 83 282 -14 q 115 357 115 179 q 160 629 115 490 q 306 864 206 768 q 561 960 407 960 m 561 932 q 324 840 417 932 q 189 615 231 747 q 147 356 147 482 q 222 104 147 192 q 428 17 296 17 q 671 109 578 17 q 803 333 764 201 q 842 593 842 465 q 768 845 842 758 q 561 932 694 932 z "},"Ổ":{"ha":957,"x_min":115,"x_max":875,"o":"m 561 960 q 792 865 708 960 q 875 593 875 771 q 831 317 875 456 q 687 82 788 178 q 428 -14 586 -14 q 199 83 282 -14 q 115 357 115 179 q 160 629 115 490 q 306 864 206 768 q 561 960 407 960 m 561 932 q 324 840 417 932 q 189 615 231 747 q 147 356 147 482 q 222 104 147 192 q 428 17 296 17 q 671 109 578 17 q 803 333 764 201 q 842 593 842 465 q 768 845 842 758 q 561 932 694 932 m 408 1024 l 394 1043 l 578 1167 l 594 1167 l 743 1042 l 726 1024 l 585 1133 l 408 1024 m 717 1196 q 793 1217 764 1199 q 822 1275 822 1236 q 760 1332 822 1332 q 718 1327 735 1332 q 676 1311 701 1322 l 665 1335 q 760 1360 711 1360 q 829 1338 804 1360 q 854 1275 854 1315 q 825 1208 854 1233 q 744 1175 796 1182 l 738 1117 l 707 1117 l 717 1196 z "},"Ỗ":{"ha":957,"x_min":115,"x_max":875,"o":"m 675 1221 q 635 1228 653 1221 q 588 1253 617 1236 q 550 1274 565 1267 q 518 1281 535 1281 q 474 1270 492 1281 q 428 1231 457 1260 l 410 1244 q 464 1292 438 1276 q 518 1308 490 1308 q 553 1301 538 1308 q 597 1279 569 1294 q 638 1256 619 1264 q 675 1249 656 1249 q 718 1262 697 1249 q 764 1306 739 1275 l 783 1293 q 730 1238 756 1254 q 675 1221 704 1221 m 406 1024 l 392 1043 l 575 1167 l 592 1167 l 740 1042 l 724 1024 l 582 1133 l 406 1024 m 561 960 q 792 865 708 960 q 875 593 875 771 q 831 317 875 456 q 687 82 788 178 q 428 -14 586 -14 q 199 83 282 -14 q 115 357 115 179 q 160 629 115 490 q 306 864 206 768 q 561 960 407 960 m 561 932 q 324 840 417 932 q 189 615 231 747 q 147 356 147 482 q 222 104 147 192 q 428 17 296 17 q 671 109 578 17 q 803 333 764 201 q 842 593 842 465 q 768 845 842 758 q 561 932 694 932 z "},"Ȍ":{"ha":957,"x_min":115,"x_max":875,"o":"m 561 960 q 792 865 708 960 q 875 593 875 771 q 831 317 875 456 q 687 82 788 178 q 428 -14 586 -14 q 199 83 282 -14 q 115 357 115 179 q 160 629 115 490 q 306 864 206 768 q 561 960 407 960 m 561 932 q 324 840 417 932 q 189 615 231 747 q 147 356 147 482 q 222 104 147 192 q 428 17 296 17 q 671 109 578 17 q 803 333 764 201 q 842 593 842 465 q 768 845 842 758 q 561 932 694 932 m 447 1274 l 521 1093 l 496 1081 l 414 1258 l 447 1274 m 600 1272 l 665 1097 l 640 1086 l 565 1256 l 600 1272 z "},"Ö":{"ha":957,"x_min":115,"x_max":875,"o":"m 561 960 q 792 865 708 960 q 875 593 875 771 q 831 317 875 456 q 687 82 788 178 q 428 -14 586 -14 q 199 83 282 -14 q 115 357 115 179 q 160 629 115 490 q 306 864 206 768 q 561 960 407 960 m 561 932 q 324 840 417 932 q 189 615 231 747 q 147 356 147 482 q 222 104 147 192 q 428 17 296 17 q 671 109 578 17 q 803 333 764 201 q 842 593 842 465 q 768 845 842 758 q 561 932 694 932 m 469 1110 q 451 1116 458 1110 q 444 1133 444 1122 q 453 1155 444 1146 q 474 1164 461 1164 q 493 1157 486 1164 q 500 1139 500 1150 q 491 1119 500 1128 q 469 1110 482 1110 m 699 1110 q 681 1116 688 1110 q 674 1133 674 1122 q 682 1155 674 1146 q 704 1164 690 1164 q 722 1157 715 1164 q 729 1139 729 1150 q 721 1118 729 1126 q 699 1110 713 1110 z "},"Ȫ":{"ha":957,"x_min":115,"x_max":875,"o":"m 561 960 q 792 865 708 960 q 875 593 875 771 q 831 317 875 456 q 687 82 788 178 q 428 -14 586 -14 q 199 83 282 -14 q 115 357 115 179 q 160 629 115 490 q 306 864 206 768 q 561 960 407 960 m 561 932 q 324 840 417 932 q 189 615 231 747 q 147 356 147 482 q 222 104 147 192 q 428 17 296 17 q 671 109 578 17 q 803 333 764 201 q 842 593 842 465 q 768 845 842 758 q 561 932 694 932 m 456 1031 q 438 1037 444 1031 q 431 1054 431 1043 q 439 1076 431 1067 q 460 1085 447 1085 q 479 1078 472 1085 q 486 1060 486 1071 q 477 1040 486 1049 q 456 1031 468 1031 m 685 1031 q 667 1037 674 1031 q 660 1054 660 1043 q 668 1076 660 1067 q 690 1085 676 1085 q 708 1078 701 1085 q 715 1060 715 1071 q 707 1039 715 1047 q 685 1031 699 1031 m 729 1181 l 442 1181 l 446 1210 l 733 1210 l 729 1181 z "},"Ȯ":{"ha":957,"x_min":115,"x_max":875,"o":"m 561 960 q 792 865 708 960 q 875 593 875 771 q 831 317 875 456 q 687 82 788 178 q 428 -14 586 -14 q 199 83 282 -14 q 115 357 115 179 q 160 629 115 490 q 306 864 206 768 q 561 960 407 960 m 561 932 q 324 840 417 932 q 189 615 231 747 q 147 356 147 482 q 222 104 147 192 q 428 17 296 17 q 671 109 578 17 q 803 333 764 201 q 842 593 842 465 q 768 845 842 758 q 561 932 694 932 m 588 1126 q 569 1133 576 1126 q 563 1150 563 1139 q 571 1172 563 1163 q 592 1181 579 1181 q 611 1174 604 1181 q 618 1156 618 1167 q 610 1135 618 1144 q 588 1126 601 1126 z "},"Ȱ":{"ha":957,"x_min":115,"x_max":875,"o":"m 561 960 q 792 865 708 960 q 875 593 875 771 q 831 317 875 456 q 687 82 788 178 q 428 -14 586 -14 q 199 83 282 -14 q 115 357 115 179 q 160 629 115 490 q 306 864 206 768 q 561 960 407 960 m 561 932 q 324 840 417 932 q 189 615 231 747 q 147 356 147 482 q 222 104 147 192 q 428 17 296 17 q 671 109 578 17 q 803 333 764 201 q 842 593 842 465 q 768 845 842 758 q 561 932 694 932 m 569 1038 q 551 1044 558 1038 q 544 1061 544 1050 q 553 1083 544 1074 q 574 1092 561 1092 q 593 1085 586 1092 q 600 1067 600 1078 q 592 1047 600 1056 q 569 1038 583 1038 m 732 1179 l 444 1179 l 449 1208 l 736 1208 l 732 1179 z "},"Ọ":{"ha":957,"x_min":115,"x_max":875,"o":"m 561 960 q 792 865 708 960 q 875 593 875 771 q 831 317 875 456 q 687 82 788 178 q 428 -14 586 -14 q 199 83 282 -14 q 115 357 115 179 q 160 629 115 490 q 306 864 206 768 q 561 960 407 960 m 561 932 q 324 840 417 932 q 189 615 231 747 q 147 356 147 482 q 222 104 147 192 q 428 17 296 17 q 671 109 578 17 q 803 333 764 201 q 842 593 842 465 q 768 845 842 758 q 561 932 694 932 m 408 -137 q 426 -144 419 -137 q 433 -161 433 -150 q 425 -183 433 -174 q 404 -192 417 -192 q 385 -185 392 -192 q 378 -167 378 -178 q 386 -147 378 -156 q 408 -137 394 -137 z "},"Ò":{"ha":957,"x_min":115,"x_max":875,"o":"m 561 960 q 792 865 708 960 q 875 593 875 771 q 831 317 875 456 q 687 82 788 178 q 428 -14 586 -14 q 199 83 282 -14 q 115 357 115 179 q 160 629 115 490 q 306 864 206 768 q 561 960 407 960 m 561 932 q 324 840 417 932 q 189 615 231 747 q 147 356 147 482 q 222 104 147 192 q 428 17 296 17 q 671 109 578 17 q 803 333 764 201 q 842 593 842 465 q 768 845 842 758 q 561 932 694 932 m 482 1194 l 708 1082 l 697 1061 l 465 1161 l 482 1194 z "},"Ỏ":{"ha":957,"x_min":115,"x_max":875,"o":"m 561 960 q 792 865 708 960 q 875 593 875 771 q 831 317 875 456 q 687 82 788 178 q 428 -14 586 -14 q 199 83 282 -14 q 115 357 115 179 q 160 629 115 490 q 306 864 206 768 q 561 960 407 960 m 561 932 q 324 840 417 932 q 189 615 231 747 q 147 356 147 482 q 222 104 147 192 q 428 17 296 17 q 671 109 578 17 q 803 333 764 201 q 842 593 842 465 q 768 845 842 758 q 561 932 694 932 m 574 1165 q 650 1187 621 1168 q 679 1244 679 1206 q 617 1301 679 1301 q 575 1297 592 1301 q 533 1281 558 1292 l 522 1304 q 617 1329 568 1329 q 686 1307 661 1329 q 711 1244 711 1285 q 682 1177 711 1203 q 601 1144 653 1151 l 594 1086 l 564 1086 l 574 1165 z "},"Ơ":{"ha":957,"x_min":115,"x_max":918,"o":"m 918 983 q 892 893 918 926 q 806 849 865 860 q 875 593 875 753 q 831 317 875 456 q 687 82 788 178 q 428 -14 586 -14 q 199 83 282 -14 q 115 357 115 179 q 160 629 115 490 q 306 864 206 768 q 561 960 407 960 q 789 869 707 960 q 868 905 846 878 q 890 983 890 932 q 881 1054 890 1026 l 906 1061 q 918 983 918 1018 m 428 17 q 671 109 578 17 q 803 333 764 201 q 842 593 842 465 q 768 845 842 758 q 561 932 694 932 q 324 840 417 932 q 189 615 231 747 q 147 356 147 482 q 222 104 147 192 q 428 17 296 17 z "},"Ớ":{"ha":957,"x_min":115,"x_max":918,"o":"m 706 1161 l 443 1061 l 435 1082 l 693 1196 l 706 1161 m 918 983 q 892 893 918 926 q 806 849 865 860 q 875 593 875 753 q 831 317 875 456 q 687 82 788 178 q 428 -14 586 -14 q 199 83 282 -14 q 115 357 115 179 q 160 629 115 490 q 306 864 206 768 q 561 960 407 960 q 789 869 707 960 q 868 905 846 878 q 890 983 890 932 q 881 1054 890 1026 l 906 1061 q 918 983 918 1018 m 428 17 q 671 109 578 17 q 803 333 764 201 q 842 593 842 465 q 768 845 842 758 q 561 932 694 932 q 324 840 417 932 q 189 615 231 747 q 147 356 147 482 q 222 104 147 192 q 428 17 296 17 z "},"Ợ":{"ha":957,"x_min":115,"x_max":918,"o":"m 918 983 q 892 893 918 926 q 806 849 865 860 q 875 593 875 753 q 831 317 875 456 q 687 82 788 178 q 428 -14 586 -14 q 199 83 282 -14 q 115 357 115 179 q 160 629 115 490 q 306 864 206 768 q 561 960 407 960 q 789 869 707 960 q 868 905 846 878 q 890 983 890 932 q 881 1054 890 1026 l 906 1061 q 918 983 918 1018 m 428 17 q 671 109 578 17 q 803 333 764 201 q 842 593 842 465 q 768 845 842 758 q 561 932 694 932 q 324 840 417 932 q 189 615 231 747 q 147 356 147 482 q 222 104 147 192 q 428 17 296 17 m 408 -137 q 426 -144 419 -137 q 433 -161 433 -150 q 425 -183 433 -174 q 404 -192 417 -192 q 385 -185 392 -192 q 378 -167 378 -178 q 387 -147 378 -156 q 408 -137 396 -137 z "},"Ờ":{"ha":957,"x_min":115,"x_max":918,"o":"m 708 1082 l 697 1061 l 465 1161 l 482 1194 l 708 1082 m 918 983 q 892 893 918 926 q 806 849 865 860 q 875 593 875 753 q 831 317 875 456 q 687 82 788 178 q 428 -14 586 -14 q 199 83 282 -14 q 115 357 115 179 q 160 629 115 490 q 306 864 206 768 q 561 960 407 960 q 789 869 707 960 q 868 905 846 878 q 890 983 890 932 q 881 1054 890 1026 l 906 1061 q 918 983 918 1018 m 428 17 q 671 109 578 17 q 803 333 764 201 q 842 593 842 465 q 768 845 842 758 q 561 932 694 932 q 324 840 417 932 q 189 615 231 747 q 147 356 147 482 q 222 104 147 192 q 428 17 296 17 z "},"Ở":{"ha":957,"x_min":115,"x_max":918,"o":"m 617 1301 q 575 1297 592 1301 q 533 1281 558 1292 l 522 1304 q 617 1329 568 1329 q 686 1307 661 1329 q 711 1244 711 1285 q 682 1177 711 1203 q 601 1144 653 1151 l 594 1086 l 564 1086 l 574 1165 q 650 1187 621 1168 q 679 1244 679 1206 q 617 1301 679 1301 m 918 983 q 892 893 918 926 q 806 849 865 860 q 875 593 875 753 q 831 317 875 456 q 687 82 788 178 q 428 -14 586 -14 q 199 83 282 -14 q 115 357 115 179 q 160 629 115 490 q 306 864 206 768 q 561 960 407 960 q 789 869 707 960 q 868 905 846 878 q 890 983 890 932 q 881 1054 890 1026 l 906 1061 q 918 983 918 1018 m 428 17 q 671 109 578 17 q 803 333 764 201 q 842 593 842 465 q 768 845 842 758 q 561 932 694 932 q 324 840 417 932 q 189 615 231 747 q 147 356 147 482 q 222 104 147 192 q 428 17 296 17 z "},"Ỡ":{"ha":957,"x_min":115,"x_max":918,"o":"m 511 1176 q 467 1166 485 1176 q 421 1126 450 1156 l 403 1140 q 457 1188 431 1172 q 511 1204 483 1204 q 547 1197 531 1204 q 590 1175 563 1190 q 631 1152 613 1160 q 668 1144 649 1144 q 711 1158 690 1144 q 757 1201 732 1171 l 776 1189 q 723 1133 749 1150 q 668 1117 697 1117 q 628 1124 646 1117 q 581 1149 610 1132 q 543 1169 558 1163 q 511 1176 528 1176 m 918 983 q 892 893 918 926 q 806 849 865 860 q 875 593 875 753 q 831 317 875 456 q 687 82 788 178 q 428 -14 586 -14 q 199 83 282 -14 q 115 357 115 179 q 160 629 115 490 q 306 864 206 768 q 561 960 407 960 q 789 869 707 960 q 868 905 846 878 q 890 983 890 932 q 881 1054 890 1026 l 906 1061 q 918 983 918 1018 m 428 17 q 671 109 578 17 q 803 333 764 201 q 842 593 842 465 q 768 845 842 758 q 561 932 694 932 q 324 840 417 932 q 189 615 231 747 q 147 356 147 482 q 222 104 147 192 q 428 17 296 17 z "},"Ő":{"ha":957,"x_min":115,"x_max":875,"o":"m 561 960 q 792 865 708 960 q 875 593 875 771 q 831 317 875 456 q 687 82 788 178 q 428 -14 586 -14 q 199 83 282 -14 q 115 357 115 179 q 160 629 115 490 q 306 864 206 768 q 561 960 407 960 m 561 932 q 324 840 417 932 q 189 615 231 747 q 147 356 147 482 q 222 104 147 192 q 428 17 296 17 q 671 109 578 17 q 803 333 764 201 q 842 593 842 465 q 768 845 842 758 q 561 932 694 932 m 757 1274 l 786 1258 l 654 1081 l 632 1093 l 757 1274 m 604 1272 l 633 1256 l 511 1086 l 490 1097 l 604 1272 z "},"Ƣ":{"ha":1225,"x_min":115,"x_max":1117,"o":"m 971 960 q 1081 923 1044 960 q 1117 821 1117 886 q 1114 783 1117 808 l 965 -267 l 935 -267 l 1081 783 q 1085 826 1085 807 q 971 933 1085 933 q 874 919 919 933 q 779 878 828 904 q 875 593 875 782 q 831 317 875 456 q 687 82 788 178 q 428 -14 586 -14 q 199 83 282 -14 q 115 357 115 179 q 160 629 115 490 q 306 864 206 768 q 561 960 407 960 q 760 896 683 960 q 865 943 814 926 q 971 960 915 960 m 428 17 q 671 109 578 17 q 803 333 764 201 q 842 593 842 465 q 768 845 842 758 q 561 932 694 932 q 324 840 417 932 q 189 615 231 747 q 147 356 147 482 q 222 104 147 192 q 428 17 296 17 z "},"Ȏ":{"ha":957,"x_min":115,"x_max":875,"o":"m 561 960 q 792 865 708 960 q 875 593 875 771 q 831 317 875 456 q 687 82 788 178 q 428 -14 586 -14 q 199 83 282 -14 q 115 357 115 179 q 160 629 115 490 q 306 864 206 768 q 561 960 407 960 m 561 932 q 324 840 417 932 q 189 615 231 747 q 147 356 147 482 q 222 104 147 192 q 428 17 296 17 q 671 109 578 17 q 803 333 764 201 q 842 593 842 465 q 768 845 842 758 q 561 932 694 932 m 428 1114 q 489 1199 444 1167 q 593 1232 533 1232 q 689 1199 653 1232 q 728 1111 725 1165 l 704 1108 q 669 1178 697 1154 q 592 1203 640 1203 q 505 1178 542 1203 q 449 1107 468 1153 l 428 1114 z "},"Ō":{"ha":957,"x_min":115,"x_max":875,"o":"m 561 960 q 792 865 708 960 q 875 593 875 771 q 831 317 875 456 q 687 82 788 178 q 428 -14 586 -14 q 199 83 282 -14 q 115 357 115 179 q 160 629 115 490 q 306 864 206 768 q 561 960 407 960 m 561 932 q 324 840 417 932 q 189 615 231 747 q 147 356 147 482 q 222 104 147 192 q 428 17 296 17 q 671 109 578 17 q 803 333 764 201 q 842 593 842 465 q 768 845 842 758 q 561 932 694 932 m 729 1126 l 442 1126 l 446 1156 l 733 1156 l 729 1126 z "},"Ṓ":{"ha":957,"x_min":115,"x_max":875,"o":"m 561 960 q 792 865 708 960 q 875 593 875 771 q 831 317 875 456 q 687 82 788 178 q 428 -14 586 -14 q 199 83 282 -14 q 115 357 115 179 q 160 629 115 490 q 306 864 206 768 q 561 960 407 960 m 561 932 q 324 840 417 932 q 189 615 231 747 q 147 356 147 482 q 222 104 147 192 q 428 17 296 17 q 671 109 578 17 q 803 333 764 201 q 842 593 842 465 q 768 845 842 758 q 561 932 694 932 m 724 1065 l 436 1065 l 440 1094 l 728 1094 l 724 1065 m 724 1307 l 736 1272 l 474 1172 l 465 1193 l 724 1307 z "},"Ṑ":{"ha":957,"x_min":115,"x_max":875,"o":"m 561 960 q 792 865 708 960 q 875 593 875 771 q 831 317 875 456 q 687 82 788 178 q 428 -14 586 -14 q 199 83 282 -14 q 115 357 115 179 q 160 629 115 490 q 306 864 206 768 q 561 960 407 960 m 561 932 q 324 840 417 932 q 189 615 231 747 q 147 356 147 482 q 222 104 147 192 q 428 17 296 17 q 671 109 578 17 q 803 333 764 201 q 842 593 842 465 q 768 845 842 758 q 561 932 694 932 m 722 1065 l 435 1065 l 439 1094 l 726 1094 l 722 1065 m 494 1306 l 721 1193 l 710 1172 l 478 1272 l 494 1306 z "},"Ꞷ":{"ha":1167,"x_min":111,"x_max":1071,"o":"m 325 -14 q 165 51 219 -14 q 111 256 111 115 q 162 592 111 422 q 303 946 213 763 l 336 946 q 143 256 143 560 q 190 71 143 125 q 325 17 236 17 q 474 76 415 17 q 554 279 533 136 l 592 550 l 625 550 l 588 276 q 581 190 581 225 q 616 61 581 106 q 736 17 651 17 q 970 189 903 17 q 1038 615 1038 361 q 997 946 1038 756 l 1029 946 q 1060 774 1050 853 q 1071 615 1071 696 q 995 166 1071 346 q 738 -14 919 -14 q 602 33 644 -14 q 557 176 560 81 q 467 31 524 76 q 325 -14 411 -14 z "},"Ǫ":{"ha":957,"x_min":115,"x_max":875,"o":"m 528 -3 q 383 -81 431 -42 q 335 -175 335 -121 q 422 -251 335 -251 q 499 -242 456 -251 l 492 -272 q 418 -282 453 -282 q 331 -256 361 -282 q 301 -187 301 -231 q 339 -88 301 -129 q 450 -14 376 -47 l 428 -14 q 199 83 282 -14 q 115 357 115 179 q 160 629 115 490 q 306 864 206 768 q 561 960 407 960 q 792 865 708 960 q 875 593 875 771 q 840 347 875 472 q 728 125 806 222 q 528 -3 650 28 m 147 356 q 222 104 147 192 q 428 17 296 17 q 671 109 578 17 q 803 333 764 201 q 842 593 842 465 q 768 845 842 758 q 561 932 694 932 q 324 840 417 932 q 189 615 231 747 q 147 356 147 482 z "},"Ǭ":{"ha":957,"x_min":115,"x_max":875,"o":"m 733 1156 l 729 1126 l 442 1126 l 446 1156 l 733 1156 m 528 -3 q 383 -81 431 -42 q 335 -175 335 -121 q 422 -251 335 -251 q 499 -242 456 -251 l 492 -272 q 418 -282 453 -282 q 331 -256 361 -282 q 301 -187 301 -231 q 339 -88 301 -129 q 450 -14 376 -47 l 428 -14 q 199 83 282 -14 q 115 357 115 179 q 160 629 115 490 q 306 864 206 768 q 561 960 407 960 q 792 865 708 960 q 875 593 875 771 q 840 347 875 472 q 728 125 806 222 q 528 -3 650 28 m 147 356 q 222 104 147 192 q 428 17 296 17 q 671 109 578 17 q 803 333 764 201 q 842 593 842 465 q 768 845 842 758 q 561 932 694 932 q 324 840 417 932 q 189 615 231 747 q 147 356 147 482 z "},"Ɔ":{"ha":746,"x_min":-6,"x_max":664,"o":"m 375 960 q 584 867 506 960 q 663 599 663 775 q 613 301 664 442 q 463 73 561 160 q 231 -14 364 -14 q 99 9 153 -14 q -6 75 44 32 l 14 99 q 110 37 64 57 q 229 17 157 17 q 445 99 354 17 q 583 316 536 182 q 631 599 631 450 q 561 848 631 765 q 372 931 492 931 q 247 913 300 931 q 133 857 193 894 l 117 881 q 235 940 175 919 q 375 960 294 960 z "},"Ø":{"ha":957,"x_min":115,"x_max":875,"o":"m 706 931 q 831 807 788 893 q 875 593 875 721 q 831 317 875 456 q 687 82 788 178 q 428 -14 586 -14 q 306 7 360 -14 l 236 -154 l 208 -144 l 281 18 q 158 144 201 58 q 115 357 115 231 q 160 629 115 490 q 306 864 206 768 q 561 960 407 960 q 681 940 625 960 l 753 1108 l 782 1100 l 706 931 m 147 354 q 185 160 147 239 q 296 46 224 82 l 671 914 q 561 932 625 932 q 324 840 417 932 q 189 614 231 747 q 147 354 147 481 m 428 17 q 671 109 578 17 q 803 333 764 201 q 842 594 842 465 q 803 791 842 713 q 693 904 765 869 l 317 36 q 428 17 368 17 z "},"Ǿ":{"ha":957,"x_min":115,"x_max":875,"o":"m 706 931 q 831 807 788 893 q 875 593 875 721 q 831 317 875 456 q 687 82 788 178 q 428 -14 586 -14 q 306 7 360 -14 l 236 -154 l 208 -144 l 281 18 q 158 144 201 58 q 115 357 115 231 q 160 629 115 490 q 306 864 206 768 q 561 960 407 960 q 681 940 625 960 l 753 1108 l 782 1100 l 706 931 m 147 354 q 185 160 147 239 q 296 46 224 82 l 671 914 q 561 932 625 932 q 324 840 417 932 q 189 614 231 747 q 147 354 147 481 m 428 17 q 671 109 578 17 q 803 333 764 201 q 842 594 842 465 q 803 791 842 713 q 693 904 765 869 l 317 36 q 428 17 368 17 m 696 1196 l 708 1161 l 446 1061 l 438 1082 l 696 1196 z "},"Õ":{"ha":957,"x_min":115,"x_max":875,"o":"m 561 960 q 792 865 708 960 q 875 593 875 771 q 831 317 875 456 q 687 82 788 178 q 428 -14 586 -14 q 199 83 282 -14 q 115 357 115 179 q 160 629 115 490 q 306 864 206 768 q 561 960 407 960 m 561 932 q 324 840 417 932 q 189 615 231 747 q 147 356 147 482 q 222 104 147 192 q 428 17 296 17 q 671 109 578 17 q 803 333 764 201 q 842 593 842 465 q 768 845 842 758 q 561 932 694 932 m 668 1117 q 628 1124 646 1117 q 581 1149 610 1132 q 543 1169 558 1163 q 511 1176 528 1176 q 467 1166 485 1176 q 421 1126 450 1156 l 403 1140 q 457 1188 431 1172 q 511 1204 483 1204 q 547 1197 531 1204 q 589 1175 564 1190 q 631 1152 614 1160 q 668 1144 649 1144 q 711 1158 690 1144 q 757 1201 732 1171 l 776 1189 q 723 1133 749 1150 q 668 1117 697 1117 z "},"Ṍ":{"ha":957,"x_min":115,"x_max":875,"o":"m 561 960 q 792 865 708 960 q 875 593 875 771 q 831 317 875 456 q 687 82 788 178 q 428 -14 586 -14 q 199 83 282 -14 q 115 357 115 179 q 160 629 115 490 q 306 864 206 768 q 561 960 407 960 m 561 932 q 324 840 417 932 q 189 615 231 747 q 147 356 147 482 q 222 104 147 192 q 428 17 296 17 q 671 109 578 17 q 803 333 764 201 q 842 593 842 465 q 768 845 842 758 q 561 932 694 932 m 661 1051 q 621 1059 639 1051 q 574 1083 603 1067 q 536 1104 551 1097 q 504 1111 521 1111 q 460 1101 478 1111 q 414 1061 443 1090 l 396 1075 q 450 1123 424 1107 q 504 1139 476 1139 q 540 1132 524 1139 q 582 1110 557 1125 q 624 1087 607 1094 q 661 1079 642 1079 q 704 1092 683 1079 q 750 1136 725 1106 l 769 1124 q 716 1068 742 1085 q 661 1051 690 1051 m 717 1325 l 729 1290 l 467 1190 l 458 1211 l 717 1325 z "},"Ȭ":{"ha":957,"x_min":115,"x_max":875,"o":"m 740 1219 l 453 1219 l 457 1249 l 744 1249 l 740 1219 m 661 1051 q 621 1059 639 1051 q 574 1083 603 1067 q 536 1104 551 1097 q 504 1111 521 1111 q 460 1101 478 1111 q 414 1061 443 1090 l 396 1075 q 450 1123 424 1107 q 504 1139 476 1139 q 540 1132 524 1139 q 583 1110 556 1125 q 624 1087 606 1094 q 661 1079 642 1079 q 704 1092 683 1079 q 750 1136 725 1106 l 769 1124 q 716 1068 742 1085 q 661 1051 690 1051 m 561 960 q 792 865 708 960 q 875 593 875 771 q 831 317 875 456 q 687 82 788 178 q 428 -14 586 -14 q 199 83 282 -14 q 115 357 115 179 q 160 629 115 490 q 306 864 206 768 q 561 960 407 960 m 561 932 q 324 840 417 932 q 189 615 231 747 q 147 356 147 482 q 222 104 147 192 q 428 17 296 17 q 671 109 578 17 q 803 333 764 201 q 842 593 842 465 q 768 845 842 758 q 561 932 694 932 z "},"Œ":{"ha":1172,"x_min":114,"x_max":1185,"o":"m 1178 917 l 697 917 q 805 796 768 876 q 842 600 842 715 q 838 514 842 560 l 1064 514 l 1061 485 l 833 485 q 750 210 814 336 q 574 29 686 85 l 1067 29 l 1063 0 l 503 0 q 410 -14 454 -14 q 194 83 274 -14 q 114 354 114 179 q 159 625 114 485 q 301 863 204 765 q 542 960 397 960 q 638 946 597 960 l 1185 946 l 1178 917 m 811 601 q 740 846 811 760 q 542 932 668 932 q 317 839 406 932 q 187 611 228 746 q 146 351 146 476 q 217 103 146 190 q 410 17 288 17 q 643 113 553 17 q 772 343 733 208 q 811 601 811 478 z "},"P":{"ha":775,"x_min":119,"x_max":743,"o":"m 443 946 q 667 891 592 946 q 743 721 743 836 q 655 485 743 579 q 361 392 567 392 l 207 392 l 151 0 l 119 0 l 253 946 l 443 946 m 365 421 q 631 506 553 421 q 710 721 710 590 q 643 871 710 825 q 440 917 576 917 l 281 917 l 211 421 l 365 421 z "},"Ṕ":{"ha":775,"x_min":119,"x_max":743,"o":"m 443 946 q 667 891 592 946 q 743 721 743 836 q 655 485 743 579 q 361 392 567 392 l 207 392 l 151 0 l 119 0 l 253 946 l 443 946 m 365 421 q 631 506 553 421 q 710 721 710 590 q 643 871 710 825 q 440 917 576 917 l 281 917 l 211 421 l 365 421 m 604 1196 l 617 1161 l 354 1061 l 346 1082 l 604 1196 z "},"Ṗ":{"ha":775,"x_min":119,"x_max":743,"o":"m 443 946 q 667 891 592 946 q 743 721 743 836 q 655 485 743 579 q 361 392 567 392 l 207 392 l 151 0 l 119 0 l 253 946 l 443 946 m 365 421 q 631 506 553 421 q 710 721 710 590 q 643 871 710 825 q 440 917 576 917 l 281 917 l 211 421 l 365 421 m 499 1126 q 481 1133 488 1126 q 474 1150 474 1139 q 482 1172 474 1163 q 503 1181 490 1181 q 522 1174 515 1181 q 529 1156 529 1167 q 521 1135 529 1144 q 499 1126 513 1126 z "},"Ƥ":{"ha":836,"x_min":94,"x_max":803,"o":"m 503 946 q 727 891 651 946 q 803 721 803 836 q 715 485 803 579 q 421 392 626 392 l 267 392 l 211 0 l 179 0 l 308 918 l 264 918 q 160 883 194 918 q 125 790 125 847 q 131 746 125 764 q 147 704 136 728 l 121 692 q 101 739 107 718 q 94 790 94 760 q 140 903 94 860 q 268 946 185 946 l 503 946 m 425 421 q 691 506 613 421 q 769 721 769 590 q 703 871 769 825 q 500 917 636 917 l 340 917 l 271 421 l 425 421 z "},"Þ":{"ha":775,"x_min":119,"x_max":718,"o":"m 419 769 q 643 714 568 769 q 718 533 718 658 q 629 300 718 396 q 335 204 540 204 l 181 204 l 151 0 l 119 0 l 253 946 l 285 946 l 260 769 l 419 769 m 340 233 q 606 320 525 233 q 686 533 686 407 q 620 693 686 646 q 417 740 554 740 l 256 740 l 185 233 l 340 233 z "},"Q":{"ha":936,"x_min":115,"x_max":875,"o":"m 875 593 q 841 349 875 474 q 729 129 807 225 q 531 6 651 33 q 692 -19 621 3 q 813 -89 763 -40 l 789 -114 q 648 -34 729 -56 q 432 -14 567 -12 l 428 -14 q 199 83 282 -14 q 115 357 115 179 q 160 629 115 490 q 306 864 206 768 q 561 960 407 960 q 792 865 708 960 q 875 593 875 771 m 147 354 q 222 104 147 192 q 428 17 297 17 q 671 109 578 17 q 803 333 764 201 q 842 594 842 465 q 768 845 842 758 q 561 932 694 932 q 324 840 417 932 q 189 614 231 747 q 147 354 147 481 z "},"Ɋ":{"ha":907,"x_min":114,"x_max":875,"o":"m 875 -233 q 747 -274 818 -274 q 662 -243 693 -274 q 631 -154 631 -212 q 633 -118 631 -143 l 649 0 l 663 103 q 404 -14 557 -14 q 193 80 272 -14 q 114 346 114 174 q 165 639 114 497 q 313 870 217 781 q 536 960 408 960 q 768 844 685 960 l 785 946 l 811 946 l 681 0 l 664 -119 q 663 -150 663 -131 q 747 -244 663 -244 q 861 -210 808 -244 l 875 -233 m 404 17 q 669 144 563 17 l 763 808 q 536 931 682 931 q 326 844 415 931 q 192 622 238 757 q 146 344 146 486 q 217 101 146 186 q 404 17 288 17 z "},"R":{"ha":794,"x_min":119,"x_max":740,"o":"m 740 738 q 675 551 740 632 q 479 453 610 471 l 682 0 l 647 0 l 446 450 l 215 450 l 151 0 l 119 0 l 253 946 l 467 946 q 740 738 740 946 m 419 479 q 584 517 519 479 q 678 613 649 554 q 707 738 707 671 q 649 872 707 826 q 463 917 592 917 l 281 917 l 219 479 l 419 479 z "},"Ŕ":{"ha":794,"x_min":119,"x_max":740,"o":"m 740 738 q 675 551 740 632 q 479 453 610 471 l 682 0 l 647 0 l 446 450 l 215 450 l 151 0 l 119 0 l 253 946 l 467 946 q 740 738 740 946 m 419 479 q 584 517 519 479 q 678 613 649 554 q 707 738 707 671 q 649 872 707 826 q 463 917 592 917 l 281 917 l 219 479 l 419 479 m 614 1196 l 626 1161 l 364 1061 l 356 1082 l 614 1196 z "},"Ř":{"ha":794,"x_min":119,"x_max":740,"o":"m 740 738 q 675 551 740 632 q 479 453 610 471 l 682 0 l 647 0 l 446 450 l 215 450 l 151 0 l 119 0 l 253 946 l 467 946 q 740 738 740 946 m 419 479 q 584 517 519 479 q 678 613 649 554 q 707 738 707 671 q 649 872 707 826 q 463 917 592 917 l 281 917 l 219 479 l 419 479 m 674 1199 l 688 1181 l 504 1056 l 488 1056 l 339 1181 l 356 1197 l 500 1089 l 674 1199 z "},"Ŗ":{"ha":794,"x_min":119,"x_max":740,"o":"m 740 738 q 675 551 740 632 q 479 453 610 471 l 682 0 l 647 0 l 446 450 l 215 450 l 151 0 l 119 0 l 253 946 l 467 946 q 740 738 740 946 m 419 479 q 584 517 519 479 q 678 613 649 554 q 707 738 707 671 q 649 872 707 826 q 463 917 592 917 l 281 917 l 219 479 l 419 479 m 361 -133 q 383 -142 375 -133 q 392 -162 392 -150 q 387 -187 392 -175 q 365 -228 382 -199 l 299 -358 l 276 -358 l 343 -197 q 324 -168 324 -189 q 334 -143 324 -153 q 361 -133 344 -133 z "},"Ȑ":{"ha":794,"x_min":119,"x_max":740,"o":"m 740 738 q 675 551 740 632 q 479 453 610 471 l 682 0 l 647 0 l 446 450 l 215 450 l 151 0 l 119 0 l 253 946 l 467 946 q 740 738 740 946 m 419 479 q 584 517 519 479 q 678 613 649 554 q 707 738 707 671 q 649 872 707 826 q 463 917 592 917 l 281 917 l 219 479 l 419 479 m 368 1274 l 442 1093 l 417 1081 l 335 1258 l 368 1274 m 521 1272 l 586 1097 l 561 1086 l 486 1256 l 521 1272 z "},"Ṛ":{"ha":794,"x_min":119,"x_max":740,"o":"m 740 738 q 675 551 740 632 q 479 453 610 471 l 682 0 l 647 0 l 446 450 l 215 450 l 151 0 l 119 0 l 253 946 l 467 946 q 740 738 740 946 m 419 479 q 584 517 519 479 q 678 613 649 554 q 707 738 707 671 q 649 872 707 826 q 463 917 592 917 l 281 917 l 219 479 l 419 479 m 351 -137 q 369 -144 363 -137 q 376 -161 376 -150 q 368 -183 376 -174 q 347 -192 360 -192 q 328 -185 335 -192 q 321 -167 321 -178 q 329 -147 321 -156 q 351 -137 338 -137 z "},"Ȓ":{"ha":794,"x_min":119,"x_max":740,"o":"m 740 738 q 675 551 740 632 q 479 453 610 471 l 682 0 l 647 0 l 446 450 l 215 450 l 151 0 l 119 0 l 253 946 l 467 946 q 740 738 740 946 m 419 479 q 584 517 519 479 q 678 613 649 554 q 707 738 707 671 q 649 872 707 826 q 463 917 592 917 l 281 917 l 219 479 l 419 479 m 349 1114 q 410 1199 365 1167 q 514 1232 454 1232 q 610 1199 574 1232 q 649 1111 646 1165 l 625 1108 q 590 1178 618 1154 q 513 1203 561 1203 q 426 1178 463 1203 q 369 1107 389 1153 l 349 1114 z "},"Ɍ":{"ha":803,"x_min":64,"x_max":749,"o":"m 749 738 q 683 551 749 632 q 488 453 618 471 l 690 0 l 656 0 l 454 450 l 224 450 l 160 0 l 128 0 l 192 450 l 64 450 l 68 479 l 196 479 l 261 946 l 475 946 q 749 738 749 946 m 428 479 q 592 517 528 479 q 686 613 657 554 q 715 738 715 671 q 658 872 715 826 q 471 917 600 917 l 289 917 l 228 479 l 428 479 z "},"Ɽ":{"ha":794,"x_min":101,"x_max":740,"o":"m 740 738 q 675 551 740 632 q 479 453 610 471 l 682 0 l 647 0 l 446 450 l 215 450 l 151 0 l 135 -119 q 133 -150 133 -131 q 218 -244 133 -244 q 332 -210 279 -244 l 346 -233 q 218 -274 289 -274 q 133 -243 164 -274 q 101 -154 101 -212 q 104 -118 101 -143 l 119 0 l 253 946 l 467 946 q 740 738 740 946 m 419 479 q 584 517 519 479 q 678 613 649 554 q 707 738 707 671 q 649 872 707 826 q 463 917 592 917 l 281 917 l 219 479 l 419 479 z "},"S":{"ha":744,"x_min":39,"x_max":688,"o":"m 450 960 q 584 935 528 960 q 688 863 640 910 l 668 842 q 571 910 622 889 q 450 932 519 932 q 312 903 369 932 q 224 827 254 875 q 194 724 194 779 q 241 605 194 647 q 403 526 288 563 q 581 430 525 486 q 636 278 636 374 q 601 142 636 210 q 492 31 567 75 q 308 -14 418 -14 q 156 15 219 -14 q 39 101 92 44 l 60 121 q 167 43 108 69 q 307 17 225 17 q 478 58 411 17 q 574 158 544 99 q 604 278 604 218 q 554 412 604 363 q 390 499 504 461 q 213 590 264 540 q 163 724 163 639 q 195 839 163 785 q 293 926 228 893 q 450 960 358 960 z "},"Ś":{"ha":744,"x_min":39,"x_max":688,"o":"m 450 960 q 584 935 528 960 q 688 863 640 910 l 668 842 q 571 910 622 889 q 450 932 519 932 q 312 903 369 932 q 224 827 254 875 q 194 724 194 779 q 241 605 194 647 q 403 526 288 563 q 581 430 525 486 q 636 278 636 374 q 601 142 636 210 q 492 31 567 75 q 308 -14 418 -14 q 156 15 219 -14 q 39 101 92 44 l 60 121 q 167 43 108 69 q 307 17 225 17 q 478 58 411 17 q 574 158 544 99 q 604 278 604 218 q 554 412 604 363 q 390 499 504 461 q 213 590 264 540 q 163 724 163 639 q 195 839 163 785 q 293 926 228 893 q 450 960 358 960 m 588 1196 l 600 1161 l 338 1061 l 329 1082 l 588 1196 z "},"Ꞌ":{"ha":264,"x_min":140,"x_max":231,"o":"m 140 501 l 197 946 l 231 946 l 165 501 l 140 501 z "},"Š":{"ha":744,"x_min":39,"x_max":688,"o":"m 450 960 q 584 935 528 960 q 688 863 640 910 l 668 842 q 571 910 622 889 q 450 932 519 932 q 312 903 369 932 q 224 827 254 875 q 194 724 194 779 q 241 605 194 647 q 403 526 288 563 q 581 430 525 486 q 636 278 636 374 q 601 142 636 210 q 492 31 567 75 q 308 -14 418 -14 q 156 15 219 -14 q 39 101 92 44 l 60 121 q 167 43 108 69 q 307 17 225 17 q 478 58 411 17 q 574 158 544 99 q 604 278 604 218 q 554 412 604 363 q 390 499 504 461 q 213 590 264 540 q 163 724 163 639 q 195 839 163 785 q 293 926 228 893 q 450 960 358 960 m 647 1199 l 661 1181 l 478 1056 l 461 1056 l 313 1181 l 329 1197 l 474 1089 l 647 1199 z "},"Ş":{"ha":744,"x_min":39,"x_max":688,"o":"m 450 960 q 584 935 528 960 q 688 863 640 910 l 668 842 q 571 910 622 889 q 450 932 519 932 q 312 903 369 932 q 224 827 254 875 q 194 724 194 779 q 241 605 194 647 q 403 526 288 563 q 581 430 525 486 q 636 278 636 374 q 602 144 636 210 q 497 33 568 78 q 319 -14 426 -11 l 303 -103 q 391 -128 363 -107 q 419 -192 419 -150 q 383 -267 419 -239 q 290 -294 347 -294 q 197 -269 235 -294 l 211 -247 q 290 -267 243 -267 q 361 -247 335 -267 q 388 -192 388 -228 q 361 -142 388 -157 q 272 -126 335 -128 l 294 -14 q 151 17 211 -12 q 39 101 90 47 l 60 121 q 167 43 108 69 q 307 17 225 17 q 478 58 411 17 q 574 158 544 99 q 604 278 604 218 q 554 412 604 363 q 390 499 504 461 q 213 590 264 540 q 163 724 163 639 q 195 839 163 785 q 293 926 228 893 q 450 960 358 960 z "},"Ŝ":{"ha":744,"x_min":39,"x_max":688,"o":"m 450 960 q 584 935 528 960 q 688 863 640 910 l 668 842 q 571 910 622 889 q 450 932 519 932 q 312 903 369 932 q 224 827 254 875 q 194 724 194 779 q 241 605 194 647 q 403 526 288 563 q 581 430 525 486 q 636 278 636 374 q 601 142 636 210 q 492 31 567 75 q 308 -14 418 -14 q 156 15 219 -14 q 39 101 92 44 l 60 121 q 167 43 108 69 q 307 17 225 17 q 478 58 411 17 q 574 158 544 99 q 604 278 604 218 q 554 412 604 363 q 390 499 504 461 q 213 590 264 540 q 163 724 163 639 q 195 839 163 785 q 293 926 228 893 q 450 960 358 960 m 306 1064 l 292 1083 l 475 1207 l 492 1207 l 640 1082 l 624 1064 l 482 1174 l 306 1064 z "},"Ș":{"ha":744,"x_min":39,"x_max":688,"o":"m 450 960 q 584 935 528 960 q 688 863 640 910 l 668 842 q 571 910 622 889 q 450 932 519 932 q 312 903 369 932 q 224 827 254 875 q 194 724 194 779 q 241 605 194 647 q 403 526 288 563 q 581 430 525 486 q 636 278 636 374 q 601 142 636 210 q 492 31 567 75 q 308 -14 418 -14 q 156 15 219 -14 q 39 101 92 44 l 60 121 q 167 43 108 69 q 307 17 225 17 q 478 58 411 17 q 574 158 544 99 q 604 278 604 218 q 554 412 604 363 q 390 499 504 461 q 213 590 264 540 q 163 724 163 639 q 195 839 163 785 q 293 926 228 893 q 450 960 358 960 m 301 -133 q 324 -142 315 -133 q 332 -162 332 -150 q 327 -187 332 -175 q 306 -228 322 -199 l 239 -358 l 217 -358 l 283 -197 q 264 -168 264 -189 q 274 -143 264 -153 q 301 -133 285 -133 z "},"Ṡ":{"ha":744,"x_min":39,"x_max":688,"o":"m 450 960 q 584 935 528 960 q 688 863 640 910 l 668 842 q 571 910 622 889 q 450 932 519 932 q 312 903 369 932 q 224 827 254 875 q 194 724 194 779 q 241 605 194 647 q 403 526 288 563 q 581 430 525 486 q 636 278 636 374 q 601 142 636 210 q 492 31 567 75 q 308 -14 418 -14 q 156 15 219 -14 q 39 101 92 44 l 60 121 q 167 43 108 69 q 307 17 225 17 q 478 58 411 17 q 574 158 544 99 q 604 278 604 218 q 554 412 604 363 q 390 499 504 461 q 213 590 264 540 q 163 724 163 639 q 195 839 163 785 q 293 926 228 893 q 450 960 358 960 m 482 1126 q 464 1133 471 1126 q 457 1150 457 1139 q 465 1172 457 1163 q 486 1181 474 1181 q 506 1174 499 1181 q 513 1156 513 1167 q 504 1135 513 1144 q 482 1126 496 1126 z "},"Ṣ":{"ha":744,"x_min":39,"x_max":688,"o":"m 450 960 q 584 935 528 960 q 688 863 640 910 l 668 842 q 571 910 622 889 q 450 932 519 932 q 312 903 369 932 q 224 827 254 875 q 194 724 194 779 q 241 605 194 647 q 403 526 288 563 q 581 430 525 486 q 636 278 636 374 q 601 142 636 210 q 492 31 567 75 q 308 -14 418 -14 q 156 15 219 -14 q 39 101 92 44 l 60 121 q 167 43 108 69 q 307 17 225 17 q 478 58 411 17 q 574 158 544 99 q 604 278 604 218 q 554 412 604 363 q 390 499 504 461 q 213 590 264 540 q 163 724 163 639 q 195 839 163 785 q 293 926 228 893 q 450 960 358 960 m 292 -137 q 310 -144 303 -137 q 317 -161 317 -150 q 308 -183 317 -174 q 288 -192 300 -192 q 268 -185 275 -192 q 261 -167 261 -178 q 269 -147 261 -156 q 292 -137 278 -137 z "},"ẞ":{"ha":885,"x_min":119,"x_max":818,"o":"m 529 960 q 681 937 611 960 q 818 868 750 914 l 815 844 l 485 531 q 712 454 636 514 q 788 288 788 394 q 750 134 788 203 q 645 26 713 65 q 489 -14 578 -14 q 335 17 399 -14 l 350 42 q 489 15 410 15 q 630 51 569 15 q 722 149 690 86 q 754 288 754 211 q 681 439 754 388 q 447 506 607 490 l 450 535 l 782 856 q 663 911 724 892 q 529 931 603 931 q 338 869 411 931 q 247 683 264 807 l 151 0 l 119 0 l 217 689 q 317 890 235 819 q 529 960 399 960 z "},"Ə":{"ha":897,"x_min":97,"x_max":815,"o":"m 525 960 q 740 875 664 960 q 815 614 815 790 q 769 303 815 446 q 626 74 722 161 q 390 -14 531 -14 q 175 76 253 -14 q 97 335 97 167 q 103 421 97 372 q 115 500 108 469 l 775 500 q 782 611 782 567 q 716 853 782 776 q 524 931 650 931 q 381 906 447 931 q 240 826 314 881 l 224 850 q 369 933 297 907 q 525 960 440 960 m 392 17 q 637 129 535 17 q 771 469 739 242 l 142 469 q 131 338 131 392 q 199 98 131 179 q 392 17 267 17 z "},"T":{"ha":661,"x_min":101,"x_max":725,"o":"m 725 946 l 715 915 l 424 915 l 294 0 l 264 0 l 393 915 l 101 915 l 104 946 l 725 946 z "},"Ŧ":{"ha":661,"x_min":101,"x_max":725,"o":"m 715 915 l 424 915 l 369 528 l 539 528 l 536 500 l 365 500 l 294 0 l 264 0 l 335 500 l 164 500 l 168 528 l 339 528 l 393 915 l 101 915 l 104 946 l 725 946 l 715 915 z "},"Ť":{"ha":661,"x_min":101,"x_max":725,"o":"m 725 946 l 715 915 l 424 915 l 294 0 l 264 0 l 393 915 l 101 915 l 104 946 l 725 946 m 606 1199 l 619 1181 l 436 1056 l 419 1056 l 271 1181 l 288 1197 l 432 1089 l 606 1199 z "},"Ţ":{"ha":661,"x_min":101,"x_max":725,"o":"m 725 946 l 715 915 l 424 915 l 294 0 l 276 -103 q 363 -126 335 -106 q 392 -187 392 -146 q 353 -264 392 -233 q 261 -294 315 -294 q 168 -269 208 -294 l 183 -246 q 261 -267 214 -267 q 331 -244 304 -267 q 358 -187 358 -222 q 333 -141 358 -156 q 246 -125 307 -126 l 271 0 l 264 0 l 393 915 l 101 915 l 104 946 l 725 946 z "},"Ṱ":{"ha":661,"x_min":71,"x_max":725,"o":"m 725 946 l 715 915 l 424 915 l 294 0 l 264 0 l 393 915 l 101 915 l 104 946 l 725 946 m 88 -256 l 71 -236 l 257 -104 l 274 -104 l 421 -236 l 406 -256 l 261 -137 l 88 -256 z "},"Ț":{"ha":661,"x_min":101,"x_max":725,"o":"m 725 946 l 715 915 l 424 915 l 294 0 l 264 0 l 393 915 l 101 915 l 104 946 l 725 946 m 269 -133 q 292 -142 283 -133 q 300 -162 300 -150 q 295 -187 300 -175 q 274 -228 290 -199 l 207 -358 l 185 -358 l 251 -197 q 232 -168 232 -189 q 242 -143 232 -153 q 269 -133 253 -133 z "},"Ⱦ":{"ha":661,"x_min":101,"x_max":725,"o":"m 715 915 l 538 915 l 363 481 l 294 0 l 264 0 l 315 364 l 132 -92 l 108 -86 l 329 461 l 393 915 l 101 915 l 104 946 l 524 946 l 556 1024 l 578 1017 l 549 946 l 725 946 l 715 915 m 376 578 l 513 915 l 424 915 l 376 578 z "},"Ṫ":{"ha":661,"x_min":101,"x_max":725,"o":"m 725 946 l 715 915 l 424 915 l 294 0 l 264 0 l 393 915 l 101 915 l 104 946 l 725 946 m 440 1126 q 422 1133 429 1126 q 415 1150 415 1139 q 424 1172 415 1163 q 444 1181 432 1181 q 464 1174 457 1181 q 471 1156 471 1167 q 463 1135 471 1144 q 440 1126 454 1126 z "},"Ṭ":{"ha":661,"x_min":101,"x_max":725,"o":"m 725 946 l 715 915 l 424 915 l 294 0 l 264 0 l 393 915 l 101 915 l 104 946 l 725 946 m 260 -137 q 278 -144 271 -137 q 285 -161 285 -150 q 276 -183 285 -174 q 256 -192 268 -192 q 236 -185 243 -192 q 229 -167 229 -178 q 238 -147 229 -156 q 260 -137 246 -137 z "},"Ƭ":{"ha":690,"x_min":94,"x_max":754,"o":"m 744 915 l 453 915 l 325 0 l 293 0 l 422 915 l 264 915 q 160 881 194 915 q 125 790 125 847 q 131 746 125 764 q 147 704 136 728 l 121 692 q 101 739 107 718 q 94 790 94 760 q 140 903 94 860 q 265 946 185 946 l 754 946 l 744 915 z "},"Ṯ":{"ha":661,"x_min":101,"x_max":725,"o":"m 725 946 l 715 915 l 424 915 l 294 0 l 264 0 l 393 915 l 101 915 l 104 946 l 725 946 m 117 -164 l 404 -164 l 400 -193 l 113 -193 l 117 -164 z "},"Ƽ":{"ha":669,"x_min":22,"x_max":639,"o":"m 260 -14 q 22 96 103 -14 l 46 114 q 135 40 83 64 q 261 15 188 15 q 428 69 363 15 q 522 201 493 122 q 551 356 551 279 q 501 509 551 456 q 357 563 450 563 q 258 549 301 563 q 165 506 215 535 l 139 506 l 201 946 l 639 946 l 629 918 l 228 918 l 174 536 q 357 590 261 590 q 524 528 465 590 q 583 356 583 467 q 551 189 583 274 q 445 45 518 104 q 260 -14 372 -14 z "},"Ƅ":{"ha":765,"x_min":119,"x_max":690,"o":"m 411 567 q 619 508 547 567 q 690 333 690 450 q 655 174 690 250 q 540 49 619 99 q 335 0 461 0 l 119 0 l 235 815 l 194 846 q 258 946 238 883 l 285 946 l 232 567 l 411 567 m 346 29 q 530 77 460 29 q 629 194 600 125 q 658 332 658 263 q 411 538 658 538 l 228 538 l 156 29 l 346 29 z "},"Ƨ":{"ha":735,"x_min":76,"x_max":689,"o":"m 472 960 q 632 908 575 960 q 689 772 689 857 q 656 645 689 696 q 559 561 622 594 q 394 497 496 528 q 176 388 243 451 q 108 208 108 324 q 167 67 108 118 q 322 17 225 17 q 474 44 408 17 q 604 121 540 71 l 622 99 q 483 15 556 43 q 321 -14 411 -14 q 144 47 213 -14 q 76 208 76 107 q 151 406 76 333 q 385 526 225 478 q 540 584 482 554 q 627 658 597 614 q 657 772 657 703 q 609 888 657 846 q 472 931 561 931 q 338 909 396 931 q 213 842 279 888 l 194 864 q 326 936 263 913 q 472 960 389 960 z "},"Ʈ":{"ha":661,"x_min":101,"x_max":725,"o":"m 424 915 l 294 0 l 296 0 l 279 -119 q 278 -150 278 -131 q 363 -244 278 -244 q 476 -210 424 -244 l 490 -233 q 363 -274 433 -274 q 277 -243 308 -274 q 246 -154 246 -212 q 249 -118 246 -143 l 264 0 l 393 915 l 101 915 l 104 946 l 725 946 l 715 915 l 424 915 z "},"U":{"ha":890,"x_min":142,"x_max":815,"o":"m 724 288 q 622 67 704 149 q 396 -14 540 -14 q 204 49 267 -14 q 142 222 142 113 q 147 289 142 242 l 239 946 l 271 946 l 179 290 q 175 226 175 257 q 228 72 175 126 q 396 17 282 17 q 601 91 528 17 q 692 292 675 165 l 783 946 l 815 946 l 724 288 z "},"Ú":{"ha":890,"x_min":142,"x_max":815,"o":"m 724 288 q 622 67 704 149 q 396 -14 540 -14 q 204 49 267 -14 q 142 222 142 113 q 147 289 142 242 l 239 946 l 271 946 l 179 290 q 175 226 175 257 q 228 72 175 126 q 396 17 282 17 q 601 91 528 17 q 692 292 675 165 l 783 946 l 815 946 l 724 288 m 661 1196 l 674 1161 l 411 1061 l 403 1082 l 661 1196 z "},"Ʉ":{"ha":918,"x_min":142,"x_max":888,"o":"m 883 722 l 803 722 l 742 288 q 640 67 722 149 q 414 -14 558 -14 q 222 49 285 -14 q 160 222 160 113 q 165 289 160 242 l 226 722 l 142 722 l 146 747 l 229 747 l 257 946 l 289 946 l 261 747 l 774 747 l 801 946 l 833 946 l 806 747 l 888 747 l 883 722 m 769 722 l 257 722 l 197 290 q 193 226 193 257 q 247 72 193 126 q 414 17 300 17 q 619 91 546 17 q 710 292 693 165 l 769 722 z "},"Ŭ":{"ha":890,"x_min":142,"x_max":815,"o":"m 724 288 q 622 67 704 149 q 396 -14 540 -14 q 204 49 267 -14 q 142 222 142 113 q 147 289 142 242 l 239 946 l 271 946 l 179 290 q 175 226 175 257 q 228 72 175 126 q 396 17 282 17 q 601 91 528 17 q 692 292 675 165 l 783 946 l 815 946 l 724 288 m 542 1071 q 446 1102 483 1071 q 403 1178 408 1133 l 426 1181 q 464 1122 433 1144 q 542 1100 494 1100 q 626 1122 590 1100 q 681 1182 663 1144 l 704 1175 q 644 1101 688 1131 q 542 1071 600 1071 z "},"Ǔ":{"ha":890,"x_min":142,"x_max":815,"o":"m 724 288 q 622 67 704 149 q 396 -14 540 -14 q 204 49 267 -14 q 142 222 142 113 q 147 289 142 242 l 239 946 l 271 946 l 179 290 q 175 226 175 257 q 228 72 175 126 q 396 17 282 17 q 601 91 528 17 q 692 292 675 165 l 783 946 l 815 946 l 724 288 m 721 1199 l 735 1181 l 551 1056 l 535 1056 l 386 1181 l 403 1197 l 547 1089 l 721 1199 z "},"Û":{"ha":890,"x_min":142,"x_max":815,"o":"m 724 288 q 622 67 704 149 q 396 -14 540 -14 q 204 49 267 -14 q 142 222 142 113 q 147 289 142 242 l 239 946 l 271 946 l 179 290 q 175 226 175 257 q 228 72 175 126 q 396 17 282 17 q 601 91 528 17 q 692 292 675 165 l 783 946 l 815 946 l 724 288 m 379 1064 l 365 1083 l 549 1207 l 565 1207 l 714 1082 l 697 1064 l 556 1174 l 379 1064 z "},"Ȕ":{"ha":890,"x_min":142,"x_max":815,"o":"m 724 288 q 622 67 704 149 q 396 -14 540 -14 q 204 49 267 -14 q 142 222 142 113 q 147 289 142 242 l 239 946 l 271 946 l 179 290 q 175 226 175 257 q 228 72 175 126 q 396 17 282 17 q 601 91 528 17 q 692 292 675 165 l 783 946 l 815 946 l 724 288 m 415 1274 l 489 1093 l 464 1081 l 382 1258 l 415 1274 m 568 1272 l 633 1097 l 608 1086 l 533 1256 l 568 1272 z "},"Ü":{"ha":890,"x_min":142,"x_max":815,"o":"m 724 288 q 622 67 704 149 q 396 -14 540 -14 q 204 49 267 -14 q 142 222 142 113 q 147 289 142 242 l 239 946 l 271 946 l 179 290 q 175 226 175 257 q 228 72 175 126 q 396 17 282 17 q 601 91 528 17 q 692 292 675 165 l 783 946 l 815 946 l 724 288 m 438 1110 q 419 1116 426 1110 q 413 1133 413 1122 q 421 1155 413 1146 q 442 1164 429 1164 q 461 1157 454 1164 q 468 1139 468 1150 q 459 1119 468 1128 q 438 1110 450 1110 m 667 1110 q 649 1116 656 1110 q 642 1133 642 1122 q 650 1155 642 1146 q 672 1164 658 1164 q 690 1157 683 1164 q 697 1139 697 1150 q 689 1118 697 1126 q 667 1110 681 1110 z "},"Ǘ":{"ha":890,"x_min":142,"x_max":815,"o":"m 724 288 q 622 67 704 149 q 396 -14 540 -14 q 204 49 267 -14 q 142 222 142 113 q 147 289 142 242 l 239 946 l 271 946 l 179 290 q 175 226 175 257 q 228 72 175 126 q 396 17 282 17 q 601 91 528 17 q 692 292 675 165 l 783 946 l 815 946 l 724 288 m 681 1279 l 703 1253 l 539 1100 l 524 1117 l 681 1279 m 421 1031 q 401 1037 408 1031 q 394 1054 394 1043 q 403 1076 394 1067 q 425 1085 411 1085 q 443 1078 436 1085 q 450 1061 450 1072 q 442 1040 450 1049 q 421 1031 433 1031 m 650 1031 q 632 1037 639 1031 q 625 1054 625 1043 q 633 1076 625 1067 q 656 1085 642 1085 q 674 1078 667 1085 q 681 1061 681 1072 q 672 1040 681 1049 q 650 1031 664 1031 z "},"Ǚ":{"ha":890,"x_min":142,"x_max":815,"o":"m 724 288 q 622 67 704 149 q 396 -14 540 -14 q 204 49 267 -14 q 142 222 142 113 q 147 289 142 242 l 239 946 l 271 946 l 179 290 q 175 226 175 257 q 228 72 175 126 q 396 17 282 17 q 601 91 528 17 q 692 292 675 165 l 783 946 l 815 946 l 724 288 m 719 1242 l 733 1224 l 550 1099 l 533 1099 l 385 1224 l 401 1240 l 546 1132 l 719 1242 m 419 1031 q 401 1037 408 1031 q 394 1054 394 1043 q 403 1076 394 1067 q 425 1085 411 1085 q 443 1078 436 1085 q 450 1061 450 1072 q 442 1040 450 1049 q 419 1031 433 1031 m 650 1031 q 632 1037 639 1031 q 625 1054 625 1043 q 633 1076 625 1067 q 654 1085 642 1085 q 674 1078 667 1085 q 681 1061 681 1072 q 672 1040 681 1049 q 650 1031 664 1031 z "},"Ǜ":{"ha":890,"x_min":142,"x_max":815,"o":"m 724 288 q 622 67 704 149 q 396 -14 540 -14 q 204 49 267 -14 q 142 222 142 113 q 147 289 142 242 l 239 946 l 271 946 l 179 290 q 175 226 175 257 q 228 72 175 126 q 396 17 282 17 q 601 91 528 17 q 692 292 675 165 l 783 946 l 815 946 l 724 288 m 443 1279 l 556 1114 l 536 1100 l 415 1257 l 443 1279 m 419 1031 q 401 1037 408 1031 q 394 1054 394 1043 q 403 1076 394 1067 q 425 1085 411 1085 q 443 1078 436 1085 q 450 1061 450 1072 q 442 1040 450 1049 q 419 1031 433 1031 m 649 1031 q 631 1037 638 1031 q 624 1054 624 1043 q 632 1076 624 1067 q 654 1085 640 1085 q 672 1078 665 1085 q 679 1061 679 1072 q 671 1040 679 1049 q 649 1031 663 1031 z "},"Ǖ":{"ha":890,"x_min":142,"x_max":815,"o":"m 724 288 q 622 67 704 149 q 396 -14 540 -14 q 204 49 267 -14 q 142 222 142 113 q 147 289 142 242 l 239 946 l 271 946 l 179 290 q 175 226 175 257 q 228 72 175 126 q 396 17 282 17 q 601 91 528 17 q 692 292 675 165 l 783 946 l 815 946 l 724 288 m 424 1031 q 406 1037 413 1031 q 399 1054 399 1043 q 407 1076 399 1067 q 428 1085 415 1085 q 447 1078 440 1085 q 454 1060 454 1071 q 445 1040 454 1049 q 424 1031 436 1031 m 653 1031 q 635 1037 642 1031 q 628 1054 628 1043 q 636 1076 628 1067 q 658 1085 644 1085 q 676 1078 669 1085 q 683 1060 683 1071 q 675 1039 683 1047 q 653 1031 667 1031 m 697 1181 l 410 1181 l 414 1210 l 701 1210 l 697 1181 z "},"Ụ":{"ha":890,"x_min":142,"x_max":815,"o":"m 724 288 q 622 67 704 149 q 396 -14 540 -14 q 204 49 267 -14 q 142 222 142 113 q 147 289 142 242 l 239 946 l 271 946 l 179 290 q 175 226 175 257 q 228 72 175 126 q 396 17 282 17 q 601 91 528 17 q 692 292 675 165 l 783 946 l 815 946 l 724 288 m 376 -137 q 394 -144 388 -137 q 401 -161 401 -150 q 393 -183 401 -174 q 372 -192 385 -192 q 353 -185 360 -192 q 346 -167 346 -178 q 354 -147 346 -156 q 376 -137 363 -137 z "},"Ù":{"ha":890,"x_min":142,"x_max":815,"o":"m 724 288 q 622 67 704 149 q 396 -14 540 -14 q 204 49 267 -14 q 142 222 142 113 q 147 289 142 242 l 239 946 l 271 946 l 179 290 q 175 226 175 257 q 228 72 175 126 q 396 17 282 17 q 601 91 528 17 q 692 292 675 165 l 783 946 l 815 946 l 724 288 m 450 1194 l 676 1082 l 665 1061 l 433 1161 l 450 1194 z "},"Ủ":{"ha":890,"x_min":142,"x_max":815,"o":"m 724 288 q 622 67 704 149 q 396 -14 540 -14 q 204 49 267 -14 q 142 222 142 113 q 147 289 142 242 l 239 946 l 271 946 l 179 290 q 175 226 175 257 q 228 72 175 126 q 396 17 282 17 q 601 91 528 17 q 692 292 675 165 l 783 946 l 815 946 l 724 288 m 542 1165 q 618 1187 589 1168 q 647 1244 647 1206 q 585 1301 647 1301 q 543 1297 560 1301 q 501 1281 526 1292 l 490 1304 q 585 1329 536 1329 q 654 1307 629 1329 q 679 1244 679 1285 q 650 1177 679 1203 q 569 1144 621 1151 l 563 1086 l 532 1086 l 542 1165 z "},"Ư":{"ha":890,"x_min":142,"x_max":926,"o":"m 926 983 q 897 889 926 922 q 801 846 867 856 l 724 288 q 622 67 704 149 q 396 -14 540 -14 q 204 49 267 -14 q 142 222 142 113 q 147 289 142 242 l 239 946 l 271 946 l 179 290 q 175 226 175 257 q 228 72 175 126 q 396 17 282 17 q 601 91 528 17 q 692 292 675 165 l 783 946 l 815 946 l 804 869 q 878 907 857 879 q 899 983 899 935 q 889 1054 899 1026 l 914 1061 q 926 983 926 1018 z "},"Ứ":{"ha":890,"x_min":142,"x_max":926,"o":"m 674 1161 l 411 1061 l 403 1082 l 661 1196 l 674 1161 m 926 983 q 897 889 926 922 q 801 846 867 856 l 724 288 q 622 67 704 149 q 396 -14 540 -14 q 204 49 267 -14 q 142 222 142 113 q 147 289 142 242 l 239 946 l 271 946 l 179 290 q 175 226 175 257 q 228 72 175 126 q 396 17 282 17 q 601 91 528 17 q 692 292 675 165 l 783 946 l 815 946 l 804 869 q 878 907 857 879 q 899 983 899 935 q 889 1054 899 1026 l 914 1061 q 926 983 926 1018 z "},"Ự":{"ha":890,"x_min":142,"x_max":926,"o":"m 926 983 q 897 889 926 922 q 801 846 867 856 l 724 288 q 622 67 704 149 q 396 -14 540 -14 q 204 49 267 -14 q 142 222 142 113 q 147 289 142 242 l 239 946 l 271 946 l 179 290 q 175 226 175 257 q 228 72 175 126 q 396 17 282 17 q 601 91 528 17 q 692 292 675 165 l 783 946 l 815 946 l 804 869 q 878 907 857 879 q 899 983 899 935 q 889 1054 899 1026 l 914 1061 q 926 983 926 1018 m 376 -137 q 394 -144 388 -137 q 401 -161 401 -150 q 393 -183 401 -174 q 372 -192 385 -192 q 353 -185 360 -192 q 346 -167 346 -178 q 355 -147 346 -156 q 376 -137 364 -137 z "},"Ừ":{"ha":890,"x_min":142,"x_max":926,"o":"m 676 1082 l 665 1061 l 433 1161 l 450 1194 l 676 1082 m 926 983 q 897 889 926 922 q 801 846 867 856 l 724 288 q 622 67 704 149 q 396 -14 540 -14 q 204 49 267 -14 q 142 222 142 113 q 147 289 142 242 l 239 946 l 271 946 l 179 290 q 175 226 175 257 q 228 72 175 126 q 396 17 282 17 q 601 91 528 17 q 692 292 675 165 l 783 946 l 815 946 l 804 869 q 878 907 857 879 q 899 983 899 935 q 889 1054 899 1026 l 914 1061 q 926 983 926 1018 z "},"Ử":{"ha":890,"x_min":142,"x_max":926,"o":"m 585 1301 q 543 1297 560 1301 q 501 1281 526 1292 l 490 1304 q 585 1329 536 1329 q 654 1307 629 1329 q 679 1244 679 1285 q 650 1177 679 1203 q 569 1144 621 1151 l 563 1086 l 532 1086 l 542 1165 q 618 1187 589 1168 q 647 1244 647 1206 q 585 1301 647 1301 m 926 983 q 897 889 926 922 q 801 846 867 856 l 724 288 q 622 67 704 149 q 396 -14 540 -14 q 204 49 267 -14 q 142 222 142 113 q 147 289 142 242 l 239 946 l 271 946 l 179 290 q 175 226 175 257 q 228 72 175 126 q 396 17 282 17 q 601 91 528 17 q 692 292 675 165 l 783 946 l 815 946 l 804 869 q 878 907 857 879 q 899 983 899 935 q 889 1054 899 1026 l 914 1061 q 926 983 926 1018 z "},"Ữ":{"ha":890,"x_min":142,"x_max":926,"o":"m 479 1176 q 435 1166 453 1176 q 389 1126 418 1156 l 371 1140 q 425 1188 399 1172 q 479 1204 451 1204 q 515 1197 499 1204 q 558 1175 531 1190 q 599 1152 581 1160 q 636 1144 617 1144 q 679 1158 658 1144 q 725 1201 700 1171 l 744 1189 q 691 1133 717 1150 q 636 1117 665 1117 q 596 1124 614 1117 q 549 1149 578 1132 q 511 1169 526 1163 q 479 1176 496 1176 m 926 983 q 897 889 926 922 q 801 846 867 856 l 724 288 q 622 67 704 149 q 396 -14 540 -14 q 204 49 267 -14 q 142 222 142 113 q 147 289 142 242 l 239 946 l 271 946 l 179 290 q 175 226 175 257 q 228 72 175 126 q 396 17 282 17 q 601 91 528 17 q 692 292 675 165 l 783 946 l 815 946 l 804 869 q 878 907 857 879 q 899 983 899 935 q 889 1054 899 1026 l 914 1061 q 926 983 926 1018 z "},"Ű":{"ha":890,"x_min":142,"x_max":815,"o":"m 724 288 q 622 67 704 149 q 396 -14 540 -14 q 204 49 267 -14 q 142 222 142 113 q 147 289 142 242 l 239 946 l 271 946 l 179 290 q 175 226 175 257 q 228 72 175 126 q 396 17 282 17 q 601 91 528 17 q 692 292 675 165 l 783 946 l 815 946 l 724 288 m 725 1274 l 754 1258 l 622 1081 l 600 1093 l 725 1274 m 572 1272 l 601 1256 l 479 1086 l 458 1097 l 572 1272 z "},"Ȗ":{"ha":890,"x_min":142,"x_max":815,"o":"m 724 288 q 622 67 704 149 q 396 -14 540 -14 q 204 49 267 -14 q 142 222 142 113 q 147 289 142 242 l 239 946 l 271 946 l 179 290 q 175 226 175 257 q 228 72 175 126 q 396 17 282 17 q 601 91 528 17 q 692 292 675 165 l 783 946 l 815 946 l 724 288 m 396 1114 q 457 1199 413 1167 q 561 1232 501 1232 q 657 1199 621 1232 q 696 1111 693 1165 l 672 1108 q 637 1178 665 1154 q 560 1203 608 1203 q 473 1178 510 1203 q 417 1107 436 1153 l 396 1114 z "},"Ū":{"ha":890,"x_min":142,"x_max":815,"o":"m 724 288 q 622 67 704 149 q 396 -14 540 -14 q 204 49 267 -14 q 142 222 142 113 q 147 289 142 242 l 239 946 l 271 946 l 179 290 q 175 226 175 257 q 228 72 175 126 q 396 17 282 17 q 601 91 528 17 q 692 292 675 165 l 783 946 l 815 946 l 724 288 m 697 1126 l 410 1126 l 414 1156 l 701 1156 l 697 1126 z "},"Ų":{"ha":890,"x_min":142,"x_max":815,"o":"m 815 946 l 724 288 q 649 97 707 174 q 489 -3 590 21 q 365 -77 407 -40 q 324 -168 324 -114 q 350 -229 324 -207 q 424 -251 376 -251 q 497 -242 457 -251 l 494 -272 q 419 -282 454 -282 q 323 -251 356 -282 q 290 -168 290 -219 q 324 -82 290 -119 q 424 -12 358 -44 q 396 -14 415 -14 q 204 49 267 -14 q 142 222 142 113 q 147 289 142 242 l 239 946 l 271 946 l 179 290 q 175 226 175 257 q 228 72 175 126 q 396 17 282 17 q 601 91 528 17 q 692 292 675 165 l 783 946 l 815 946 z "},"Ʊ":{"ha":958,"x_min":115,"x_max":901,"o":"m 431 -14 q 199 83 283 -14 q 115 349 115 179 q 190 682 115 531 q 399 918 264 833 l 222 918 l 226 946 l 450 946 l 447 918 q 224 681 301 835 q 147 346 147 526 q 222 102 147 189 q 431 15 297 15 q 651 91 558 15 q 791 293 743 167 q 839 567 839 419 q 675 918 839 801 l 678 946 l 901 946 l 897 917 l 719 917 q 872 569 872 799 q 819 277 872 410 q 667 65 767 144 q 431 -14 567 -14 z "},"Ů":{"ha":890,"x_min":142,"x_max":815,"o":"m 724 288 q 622 67 704 149 q 396 -14 540 -14 q 204 49 267 -14 q 142 222 142 113 q 147 289 142 242 l 239 946 l 271 946 l 179 290 q 175 226 175 257 q 228 72 175 126 q 396 17 282 17 q 601 91 528 17 q 692 292 675 165 l 783 946 l 815 946 l 724 288 m 576 1288 q 647 1263 621 1288 q 674 1196 674 1238 q 638 1105 674 1140 q 550 1069 603 1069 q 478 1096 504 1069 q 451 1164 451 1122 q 487 1253 451 1218 q 576 1288 522 1288 m 575 1263 q 506 1234 532 1263 q 481 1163 481 1206 q 499 1113 481 1131 q 550 1094 517 1094 q 619 1124 594 1094 q 644 1193 644 1153 q 626 1244 644 1226 q 575 1263 608 1263 z "},"Ũ":{"ha":890,"x_min":142,"x_max":815,"o":"m 724 288 q 622 67 704 149 q 396 -14 540 -14 q 204 49 267 -14 q 142 222 142 113 q 147 289 142 242 l 239 946 l 271 946 l 179 290 q 175 226 175 257 q 228 72 175 126 q 396 17 282 17 q 601 91 528 17 q 692 292 675 165 l 783 946 l 815 946 l 724 288 m 636 1117 q 596 1124 614 1117 q 549 1149 578 1132 q 511 1169 526 1163 q 479 1176 496 1176 q 435 1166 453 1176 q 389 1126 418 1156 l 371 1140 q 425 1188 399 1172 q 479 1204 451 1204 q 515 1197 499 1204 q 557 1175 532 1190 q 599 1152 582 1160 q 636 1144 617 1144 q 679 1158 658 1144 q 725 1201 700 1171 l 744 1189 q 691 1133 717 1150 q 636 1117 665 1117 z "},"Ṹ":{"ha":890,"x_min":142,"x_max":815,"o":"m 724 288 q 622 67 704 149 q 396 -14 540 -14 q 204 49 267 -14 q 142 222 142 113 q 147 289 142 242 l 239 946 l 271 946 l 179 290 q 175 226 175 257 q 228 72 175 126 q 396 17 282 17 q 601 91 528 17 q 692 292 675 165 l 783 946 l 815 946 l 724 288 m 629 1051 q 589 1059 607 1051 q 542 1083 571 1067 q 504 1104 519 1097 q 472 1111 489 1111 q 428 1101 446 1111 q 382 1061 411 1090 l 364 1075 q 418 1123 392 1107 q 472 1139 444 1139 q 508 1132 492 1139 q 550 1110 525 1125 q 592 1087 575 1094 q 629 1079 610 1079 q 672 1092 651 1079 q 718 1136 693 1106 l 738 1124 q 684 1068 710 1085 q 629 1051 658 1051 m 685 1325 l 697 1290 l 435 1190 l 426 1211 l 685 1325 z "},"V":{"ha":742,"x_min":121,"x_max":785,"o":"m 785 946 l 339 0 l 300 0 l 121 946 l 153 946 l 324 29 l 751 946 l 785 946 z "},"Ʋ":{"ha":876,"x_min":138,"x_max":803,"o":"m 711 960 q 778 936 754 960 q 803 865 803 913 q 800 835 803 857 l 739 399 q 607 91 710 196 q 360 -14 504 -14 q 197 42 256 -14 q 138 199 138 99 q 142 250 138 224 l 239 946 l 271 946 l 174 251 q 169 200 169 225 q 219 64 169 111 q 360 17 269 17 q 587 115 493 17 q 707 403 681 213 l 768 835 q 771 865 771 857 q 708 933 771 933 q 642 918 675 933 l 631 940 q 711 960 669 960 z "},"Ʌ":{"ha":774,"x_min":-12,"x_max":685,"o":"m 488 946 l 685 0 l 651 0 l 465 921 l 21 0 l -12 0 l 450 946 l 488 946 z "},"W":{"ha":1097,"x_min":135,"x_max":1126,"o":"m 1126 946 l 772 0 l 736 0 l 626 915 l 260 0 l 222 0 l 135 946 l 167 946 l 247 36 l 611 946 l 650 946 l 758 33 l 1094 946 l 1126 946 z "},"Ẃ":{"ha":1097,"x_min":135,"x_max":1126,"o":"m 1126 946 l 772 0 l 736 0 l 626 915 l 260 0 l 222 0 l 135 946 l 167 946 l 247 36 l 611 946 l 650 946 l 758 33 l 1094 946 l 1126 946 m 764 1196 l 776 1161 l 514 1061 l 506 1082 l 764 1196 z "},"Ŵ":{"ha":1097,"x_min":135,"x_max":1126,"o":"m 1126 946 l 772 0 l 736 0 l 626 915 l 260 0 l 222 0 l 135 946 l 167 946 l 247 36 l 611 946 l 650 946 l 758 33 l 1094 946 l 1126 946 m 482 1064 l 468 1083 l 651 1207 l 668 1207 l 817 1082 l 800 1064 l 658 1174 l 482 1064 z "},"Ẅ":{"ha":1097,"x_min":135,"x_max":1126,"o":"m 1126 946 l 772 0 l 736 0 l 626 915 l 260 0 l 222 0 l 135 946 l 167 946 l 247 36 l 611 946 l 650 946 l 758 33 l 1094 946 l 1126 946 m 540 1110 q 522 1116 529 1110 q 515 1133 515 1122 q 524 1155 515 1146 q 544 1164 532 1164 q 564 1157 557 1164 q 571 1139 571 1150 q 562 1119 571 1128 q 540 1110 553 1110 m 769 1110 q 751 1116 758 1110 q 744 1133 744 1122 q 753 1155 744 1146 q 775 1164 761 1164 q 793 1157 786 1164 q 800 1139 800 1150 q 792 1118 800 1126 q 769 1110 783 1110 z "},"Ẁ":{"ha":1097,"x_min":135,"x_max":1126,"o":"m 1126 946 l 772 0 l 736 0 l 626 915 l 260 0 l 222 0 l 135 946 l 167 946 l 247 36 l 611 946 l 650 946 l 758 33 l 1094 946 l 1126 946 m 553 1194 l 779 1082 l 768 1061 l 536 1161 l 553 1194 z "},"Ⱳ":{"ha":1146,"x_min":135,"x_max":1306,"o":"m 260 0 l 626 915 l 736 0 l 772 0 l 1086 849 q 1127 913 1103 893 q 1189 933 1151 933 q 1241 921 1218 933 q 1288 885 1264 908 l 1306 904 q 1189 960 1253 960 q 1112 937 1143 960 q 1060 860 1081 914 l 758 33 l 650 946 l 611 946 l 247 36 l 167 946 l 135 946 l 222 0 l 260 0 z "},"Ƿ":{"ha":775,"x_min":119,"x_max":749,"o":"m 536 960 q 691 905 633 960 q 749 754 749 850 q 647 513 749 601 q 358 364 544 425 l 196 311 l 151 0 l 119 0 l 253 946 l 285 946 l 272 858 q 392 932 328 904 q 536 960 456 960 m 358 393 q 624 533 532 451 q 715 754 715 614 q 667 885 715 839 q 536 931 619 931 q 390 901 454 931 q 268 824 325 872 l 200 340 l 358 393 z "},"X":{"ha":675,"x_min":-28,"x_max":689,"o":"m 689 946 l 375 514 l 600 0 l 567 0 l 353 490 l 7 0 l -28 0 l 335 514 l 139 946 l 174 946 l 357 536 l 654 946 l 689 946 z "},"Y":{"ha":686,"x_min":111,"x_max":739,"o":"m 739 946 l 363 376 l 310 0 l 278 0 l 331 375 l 111 946 l 146 946 l 349 407 l 701 946 l 739 946 z "},"Ý":{"ha":686,"x_min":111,"x_max":739,"o":"m 739 946 l 363 376 l 310 0 l 278 0 l 331 375 l 111 946 l 146 946 l 349 407 l 701 946 l 739 946 m 554 1196 l 567 1161 l 304 1061 l 296 1082 l 554 1196 z "},"Ŷ":{"ha":686,"x_min":111,"x_max":739,"o":"m 739 946 l 363 376 l 310 0 l 278 0 l 331 375 l 111 946 l 146 946 l 349 407 l 701 946 l 739 946 m 272 1064 l 258 1083 l 442 1207 l 458 1207 l 607 1082 l 590 1064 l 449 1174 l 272 1064 z "},"Ÿ":{"ha":686,"x_min":111,"x_max":739,"o":"m 739 946 l 363 376 l 310 0 l 278 0 l 331 375 l 111 946 l 146 946 l 349 407 l 701 946 l 739 946 m 331 1110 q 313 1116 319 1110 q 306 1133 306 1122 q 314 1155 306 1146 q 335 1164 322 1164 q 354 1157 347 1164 q 361 1139 361 1150 q 352 1119 361 1128 q 331 1110 343 1110 m 560 1110 q 542 1116 549 1110 q 535 1133 535 1122 q 543 1155 535 1146 q 565 1164 551 1164 q 583 1157 576 1164 q 590 1139 590 1150 q 582 1118 590 1126 q 560 1110 574 1110 z "},"Ỵ":{"ha":686,"x_min":111,"x_max":739,"o":"m 739 946 l 363 376 l 310 0 l 278 0 l 331 375 l 111 946 l 146 946 l 349 407 l 701 946 l 739 946 m 275 -137 q 293 -144 286 -137 q 300 -161 300 -150 q 292 -183 300 -174 q 271 -192 283 -192 q 251 -185 258 -192 q 244 -167 244 -178 q 253 -147 244 -156 q 275 -137 261 -137 z "},"Ỳ":{"ha":686,"x_min":111,"x_max":739,"o":"m 739 946 l 363 376 l 310 0 l 278 0 l 331 375 l 111 946 l 146 946 l 349 407 l 701 946 l 739 946 m 343 1194 l 569 1082 l 558 1061 l 326 1161 l 343 1194 z "},"Ƴ":{"ha":722,"x_min":111,"x_max":886,"o":"m 331 375 l 111 946 l 146 946 l 350 407 l 628 863 q 691 938 658 915 q 769 960 724 960 q 886 904 833 960 l 868 885 q 769 933 819 933 q 706 915 732 933 q 653 849 681 896 l 363 375 l 310 0 l 278 0 l 331 375 z "},"Ỷ":{"ha":686,"x_min":111,"x_max":739,"o":"m 739 946 l 363 376 l 310 0 l 278 0 l 331 375 l 111 946 l 146 946 l 349 407 l 701 946 l 739 946 m 435 1165 q 511 1187 482 1168 q 540 1244 540 1206 q 478 1301 540 1301 q 436 1297 453 1301 q 394 1281 419 1292 l 383 1304 q 478 1329 429 1329 q 547 1307 522 1329 q 572 1244 572 1285 q 543 1177 572 1203 q 463 1144 514 1151 l 456 1086 l 425 1086 l 435 1165 z "},"Ȳ":{"ha":686,"x_min":111,"x_max":739,"o":"m 739 946 l 363 376 l 310 0 l 278 0 l 331 375 l 111 946 l 146 946 l 349 407 l 701 946 l 739 946 m 590 1126 l 303 1126 l 307 1156 l 594 1156 l 590 1126 z "},"Ʀ":{"ha":794,"x_min":119,"x_max":714,"o":"m 714 556 q 651 372 714 451 q 453 269 589 292 l 657 -185 l 622 -185 l 421 265 l 189 265 l 151 0 l 119 0 l 253 946 l 285 946 l 258 763 l 433 763 q 646 710 578 763 q 714 556 714 658 m 393 294 q 560 333 494 294 q 653 432 625 372 q 682 557 682 492 q 624 688 682 644 q 438 732 567 732 l 254 732 l 193 294 l 393 294 z "},"Ɏ":{"ha":692,"x_min":90,"x_max":742,"o":"m 742 946 l 653 811 l 725 811 l 721 788 l 638 788 l 367 376 l 313 0 l 282 0 l 333 375 l 176 788 l 90 788 l 94 811 l 167 811 l 115 946 l 150 946 l 200 811 l 617 811 l 706 946 l 742 946 m 351 407 l 601 788 l 210 788 l 351 407 z "},"Ỹ":{"ha":686,"x_min":111,"x_max":739,"o":"m 739 946 l 363 376 l 310 0 l 278 0 l 331 375 l 111 946 l 146 946 l 349 407 l 701 946 l 739 946 m 529 1117 q 489 1124 507 1117 q 442 1149 471 1132 q 404 1169 419 1163 q 372 1176 389 1176 q 328 1166 346 1176 q 282 1126 311 1156 l 264 1140 q 318 1188 292 1172 q 372 1204 344 1204 q 408 1197 392 1204 q 450 1175 425 1190 q 492 1152 475 1160 q 529 1144 510 1144 q 572 1158 551 1144 q 618 1201 593 1171 l 638 1189 q 584 1133 610 1150 q 529 1117 558 1117 z "},"Z":{"ha":707,"x_min":7,"x_max":719,"o":"m 7 0 l 11 29 l 676 917 l 188 917 l 192 946 l 719 946 l 717 919 l 50 31 l 572 31 l 564 0 l 7 0 z "},"Ź":{"ha":707,"x_min":7,"x_max":719,"o":"m 7 0 l 11 29 l 676 917 l 188 917 l 192 946 l 719 946 l 717 919 l 50 31 l 572 31 l 564 0 l 7 0 m 569 1196 l 582 1161 l 319 1061 l 311 1082 l 569 1196 z "},"Ž":{"ha":707,"x_min":7,"x_max":719,"o":"m 7 0 l 11 29 l 676 917 l 188 917 l 192 946 l 719 946 l 717 919 l 50 31 l 572 31 l 564 0 l 7 0 m 629 1199 l 643 1181 l 460 1056 l 443 1056 l 294 1181 l 311 1197 l 456 1089 l 629 1199 z "},"Ż":{"ha":707,"x_min":7,"x_max":719,"o":"m 7 0 l 11 29 l 676 917 l 188 917 l 192 946 l 719 946 l 717 919 l 50 31 l 572 31 l 564 0 l 7 0 m 464 1126 q 446 1133 453 1126 q 439 1150 439 1139 q 447 1172 439 1163 q 468 1181 456 1181 q 488 1174 481 1181 q 494 1156 494 1167 q 486 1135 494 1144 q 464 1126 478 1126 z "},"Ẓ":{"ha":707,"x_min":7,"x_max":719,"o":"m 7 0 l 11 29 l 676 917 l 188 917 l 192 946 l 719 946 l 717 919 l 50 31 l 572 31 l 564 0 l 7 0 m 268 -137 q 286 -144 279 -137 q 293 -161 293 -150 q 285 -183 293 -174 q 264 -192 276 -192 q 244 -185 251 -192 q 238 -167 238 -178 q 246 -147 238 -156 q 268 -137 254 -137 z "},"Ȥ":{"ha":707,"x_min":7,"x_max":719,"o":"m 717 919 l 50 31 l 571 31 l 567 0 l 550 -121 q 497 -235 539 -196 q 393 -274 454 -274 q 276 -231 328 -274 l 293 -210 q 337 -235 314 -226 q 393 -244 360 -244 q 474 -214 440 -244 q 518 -117 508 -183 l 535 0 l 7 0 l 11 29 l 676 917 l 188 917 l 192 946 l 719 946 l 717 919 z "},"Ƶ":{"ha":707,"x_min":7,"x_max":719,"o":"m 719 946 l 717 919 l 394 490 l 550 490 l 546 461 l 374 461 l 50 31 l 572 31 l 564 0 l 7 0 l 11 29 l 335 461 l 174 461 l 178 490 l 357 490 l 676 917 l 188 917 l 192 946 l 719 946 z "},"ʙ":{"ha":706,"x_min":114,"x_max":631,"o":"m 468 390 q 584 349 543 385 q 625 244 625 313 q 539 63 625 126 q 317 0 453 0 l 114 0 l 214 714 q 418 735 326 735 q 578 692 525 735 q 631 575 631 649 q 585 451 631 500 q 468 390 540 403 m 203 403 l 411 403 q 548 451 497 403 q 599 576 599 500 q 555 672 599 638 q 418 707 511 707 q 243 689 325 707 l 203 403 m 318 29 q 517 85 442 29 q 593 244 593 140 q 419 375 593 375 l 199 375 l 149 29 l 318 29 z "},"ɢ":{"ha":764,"x_min":96,"x_max":654,"o":"m 457 738 q 565 720 518 738 q 654 668 613 703 l 633 647 q 458 710 558 710 q 281 650 357 710 q 166 491 206 590 q 126 278 126 392 q 189 82 126 146 q 363 18 251 18 q 557 63 468 18 l 596 350 l 424 350 l 424 378 l 633 378 l 588 46 q 363 -11 481 -11 q 167 63 238 -11 q 96 282 96 136 q 141 507 96 403 q 268 674 186 611 q 457 738 350 738 z "},"ʛ":{"ha":763,"x_min":96,"x_max":925,"o":"m 806 1024 q 874 1012 846 1024 q 925 981 901 1000 l 908 961 q 863 987 886 978 q 806 996 839 996 q 723 965 757 996 q 681 867 689 933 l 654 668 l 636 650 q 458 710 556 710 q 281 650 357 710 q 166 491 206 590 q 126 278 126 392 q 189 82 126 146 q 364 18 251 18 q 557 63 468 18 l 596 350 l 424 350 l 424 378 l 633 378 l 588 46 q 364 -11 481 -11 q 167 63 238 -11 q 96 282 96 136 q 141 507 96 403 q 268 674 186 611 q 457 738 350 738 q 625 688 556 738 l 651 871 q 703 985 661 946 q 806 1024 744 1024 z "},"ʜ":{"ha":808,"x_min":113,"x_max":696,"o":"m 564 0 l 615 364 l 194 364 l 143 0 l 113 0 l 215 721 l 246 721 l 199 392 l 619 392 l 665 721 l 696 721 l 594 0 l 564 0 z "},"ɪ":{"ha":417,"x_min":-11,"x_max":428,"o":"m 424 696 l 269 696 l 176 25 l 331 25 l 326 0 l -11 0 l -8 25 l 146 25 l 239 696 l 86 696 l 90 721 l 428 721 l 424 696 z "},"ʟ":{"ha":554,"x_min":113,"x_max":489,"o":"m 246 721 l 147 29 l 489 29 l 479 0 l 113 0 l 215 721 l 246 721 z "},"ɴ":{"ha":810,"x_min":113,"x_max":697,"o":"m 594 0 l 556 0 l 236 690 q 208 465 228 599 l 142 0 l 113 0 l 215 721 l 254 721 l 574 31 l 579 78 l 600 249 l 668 721 l 697 721 l 594 0 z "},"ɶ":{"ha":993,"x_min":96,"x_max":967,"o":"m 958 693 l 581 693 q 657 603 628 665 q 686 453 686 540 q 685 396 686 414 l 868 396 l 864 368 l 682 368 q 618 163 668 256 q 488 29 568 71 l 878 29 l 874 0 l 429 0 q 338 -14 385 -14 q 160 61 224 -14 q 96 272 96 136 q 131 483 96 376 q 243 662 165 589 q 442 735 321 735 q 532 721 494 735 l 967 721 l 958 693 m 654 454 q 599 640 654 572 q 442 707 544 707 q 260 637 331 707 q 158 467 189 567 q 126 271 126 367 q 182 82 126 149 q 339 15 238 15 q 521 83 450 15 q 623 252 592 151 q 654 454 654 353 z "},"ʀ":{"ha":706,"x_min":113,"x_max":625,"o":"m 625 549 q 565 398 625 453 q 407 328 504 343 l 576 0 l 543 0 l 376 325 l 189 325 l 143 0 l 113 0 l 215 721 l 382 721 q 625 549 625 721 m 347 353 q 526 403 458 353 q 593 549 593 454 q 542 657 593 621 q 376 693 490 693 l 242 693 l 193 353 l 347 353 z "},"ʁ":{"ha":706,"x_min":113,"x_max":679,"o":"m 418 393 q 535 340 492 381 q 578 228 578 299 q 497 56 578 113 q 278 0 417 0 l 113 0 l 215 721 l 246 721 l 200 396 l 388 396 l 643 721 l 679 721 l 418 393 m 276 29 q 547 229 547 29 q 498 333 547 299 q 363 368 449 368 l 196 368 l 147 29 l 276 29 z "},"ʏ":{"ha":581,"x_min":83,"x_max":600,"o":"m 600 721 l 299 294 l 257 0 l 226 0 l 268 293 l 83 721 l 114 721 l 285 321 l 564 721 l 600 721 z "},"a":{"ha":761,"x_min":94,"x_max":657,"o":"m 456 735 q 564 720 517 735 q 657 678 611 706 l 582 156 q 576 94 576 111 q 588 42 576 63 q 626 10 599 21 l 617 -14 q 565 26 582 0 q 549 94 549 51 q 551 135 549 104 q 447 26 508 65 q 317 -14 386 -14 q 153 60 213 -14 q 94 264 94 135 q 131 481 94 372 q 249 662 168 589 q 456 735 331 735 m 456 708 q 267 639 342 708 q 159 467 193 569 q 125 265 125 365 q 175 81 125 147 q 317 15 225 15 q 556 188 458 15 l 624 663 q 456 708 550 708 z "},"á":{"ha":761,"x_min":94,"x_max":657,"o":"m 456 735 q 564 720 517 735 q 657 678 611 706 l 582 156 q 576 94 576 111 q 588 42 576 63 q 626 10 599 21 l 617 -14 q 565 26 582 0 q 549 94 549 51 q 551 135 549 104 q 447 26 508 65 q 317 -14 386 -14 q 153 60 213 -14 q 94 264 94 135 q 131 481 94 372 q 249 662 168 589 q 456 735 331 735 m 456 708 q 267 639 342 708 q 159 467 193 569 q 125 265 125 365 q 175 81 125 147 q 317 15 225 15 q 556 188 458 15 l 624 663 q 456 708 550 708 m 628 1057 l 640 1025 l 376 908 l 367 929 l 628 1057 z "},"ă":{"ha":761,"x_min":94,"x_max":660,"o":"m 456 735 q 564 720 517 735 q 657 678 611 706 l 582 156 q 576 94 576 111 q 588 42 576 63 q 626 10 599 21 l 617 -14 q 565 26 582 0 q 549 94 549 51 q 551 135 549 104 q 447 26 508 65 q 317 -14 386 -14 q 153 60 213 -14 q 94 264 94 135 q 131 481 94 372 q 249 662 168 589 q 456 735 331 735 m 456 708 q 267 639 342 708 q 159 467 193 569 q 125 265 125 365 q 175 81 125 147 q 317 15 225 15 q 556 188 458 15 l 624 663 q 456 708 550 708 m 494 919 q 398 953 435 919 q 358 1040 361 988 l 382 1043 q 417 974 388 997 q 494 950 446 950 q 581 975 544 950 q 638 1046 618 1000 l 660 1038 q 597 952 642 985 q 494 919 553 919 z "},"ắ":{"ha":761,"x_min":94,"x_max":657,"o":"m 624 1133 l 646 1107 l 482 954 l 467 971 l 624 1133 m 482 826 q 386 858 424 826 q 343 933 349 889 l 367 936 q 404 878 374 900 q 482 856 435 856 q 567 878 531 856 q 621 938 603 900 l 644 931 q 584 856 628 886 q 482 826 540 826 m 456 735 q 564 720 517 735 q 657 678 611 706 l 582 156 q 576 94 576 111 q 588 42 576 63 q 626 10 599 21 l 617 -14 q 565 26 582 0 q 549 94 549 51 q 551 135 549 104 q 447 26 508 65 q 317 -14 386 -14 q 153 60 213 -14 q 94 264 94 135 q 131 481 94 372 q 249 662 168 589 q 456 735 331 735 m 456 708 q 267 639 342 708 q 159 467 193 569 q 125 265 125 365 q 175 81 125 147 q 317 15 225 15 q 556 188 458 15 l 624 663 q 456 708 550 708 z "},"ặ":{"ha":761,"x_min":94,"x_max":660,"o":"m 456 735 q 564 720 517 735 q 657 678 611 706 l 582 156 q 576 94 576 111 q 588 42 576 63 q 626 10 599 21 l 617 -14 q 565 26 582 0 q 549 94 549 51 q 551 135 549 104 q 447 26 508 65 q 317 -14 386 -14 q 153 60 213 -14 q 94 264 94 135 q 131 481 94 372 q 249 662 168 589 q 456 735 331 735 m 456 708 q 267 639 342 708 q 159 467 193 569 q 125 265 125 365 q 175 81 125 147 q 317 15 225 15 q 556 188 458 15 l 624 663 q 456 708 550 708 m 494 919 q 398 953 435 919 q 358 1040 361 988 l 382 1043 q 417 974 388 997 q 494 950 446 950 q 581 975 544 950 q 638 1046 618 1000 l 660 1038 q 597 952 642 985 q 494 919 553 919 m 347 -137 q 365 -144 358 -137 q 372 -161 372 -150 q 364 -183 372 -174 q 343 -192 356 -192 q 324 -185 331 -192 q 317 -167 317 -178 q 325 -147 317 -156 q 347 -137 333 -137 z "},"ằ":{"ha":761,"x_min":94,"x_max":657,"o":"m 392 1133 l 504 968 l 485 954 l 364 1111 l 392 1133 m 482 826 q 386 858 424 826 q 343 933 349 889 l 367 936 q 404 878 374 900 q 482 856 435 856 q 567 878 531 856 q 621 938 603 900 l 644 931 q 584 856 628 886 q 482 826 540 826 m 456 735 q 564 720 517 735 q 657 678 611 706 l 582 156 q 576 94 576 111 q 588 42 576 63 q 626 10 599 21 l 617 -14 q 565 26 582 0 q 549 94 549 51 q 551 135 549 104 q 447 26 508 65 q 317 -14 386 -14 q 153 60 213 -14 q 94 264 94 135 q 131 481 94 372 q 249 662 168 589 q 456 735 331 735 m 456 708 q 267 639 342 708 q 159 467 193 569 q 125 265 125 365 q 175 81 125 147 q 317 15 225 15 q 556 188 458 15 l 624 663 q 456 708 550 708 z "},"ẳ":{"ha":761,"x_min":94,"x_max":657,"o":"m 456 735 q 564 720 517 735 q 657 678 611 706 l 582 156 q 576 94 576 111 q 588 42 576 63 q 626 10 599 21 l 617 -14 q 565 26 582 0 q 549 94 549 51 q 551 135 549 104 q 447 26 508 65 q 317 -14 386 -14 q 153 60 213 -14 q 94 264 94 135 q 131 481 94 372 q 249 662 168 589 q 456 735 331 735 m 456 708 q 267 639 342 708 q 159 467 193 569 q 125 265 125 365 q 175 81 125 147 q 317 15 225 15 q 556 188 458 15 l 624 663 q 456 708 550 708 m 482 826 q 386 858 424 826 q 343 933 349 889 l 367 936 q 404 878 374 900 q 482 856 435 856 q 567 878 531 856 q 621 938 603 900 l 644 931 q 584 856 628 886 q 482 826 540 826 m 486 1011 q 563 1033 533 1014 q 593 1090 593 1051 q 531 1149 593 1149 q 488 1143 506 1149 q 447 1126 471 1138 l 435 1150 q 531 1176 483 1176 q 600 1153 575 1176 q 625 1090 625 1131 q 596 1023 625 1049 q 515 990 567 997 l 506 914 l 475 914 l 486 1011 z "},"ẵ":{"ha":761,"x_min":94,"x_max":697,"o":"m 589 1001 q 549 1009 567 1001 q 501 1033 531 1017 q 464 1054 479 1047 q 432 1061 449 1061 q 388 1051 406 1061 q 342 1011 371 1040 l 324 1025 q 378 1073 351 1057 q 432 1089 404 1089 q 467 1082 451 1089 q 511 1060 483 1075 q 551 1037 533 1044 q 589 1029 569 1029 q 632 1042 611 1029 q 678 1086 653 1056 l 697 1074 q 644 1018 669 1035 q 589 1001 618 1001 m 485 826 q 389 858 426 826 q 346 933 351 889 l 369 936 q 407 878 376 900 q 485 856 438 856 q 569 878 533 856 q 624 938 606 900 l 647 931 q 587 856 631 886 q 485 826 543 826 m 456 735 q 564 720 517 735 q 657 678 611 706 l 582 156 q 576 94 576 111 q 588 42 576 63 q 626 10 599 21 l 617 -14 q 565 26 582 0 q 549 94 549 51 q 551 135 549 104 q 447 26 508 65 q 317 -14 386 -14 q 153 60 213 -14 q 94 264 94 135 q 131 481 94 372 q 249 662 168 589 q 456 735 331 735 m 456 708 q 267 639 342 708 q 159 467 193 569 q 125 265 125 365 q 175 81 125 147 q 317 15 225 15 q 556 188 458 15 l 624 663 q 456 708 550 708 z "},"ǎ":{"ha":761,"x_min":94,"x_max":686,"o":"m 456 735 q 564 720 517 735 q 657 678 611 706 l 582 156 q 576 94 576 111 q 588 42 576 63 q 626 10 599 21 l 617 -14 q 565 26 582 0 q 549 94 549 51 q 551 135 549 104 q 447 26 508 65 q 317 -14 386 -14 q 153 60 213 -14 q 94 264 94 135 q 131 481 94 372 q 249 662 168 589 q 456 735 331 735 m 456 708 q 267 639 342 708 q 159 467 193 569 q 125 265 125 365 q 175 81 125 147 q 317 15 225 15 q 556 188 458 15 l 624 663 q 456 708 550 708 m 671 1040 l 686 1022 l 500 890 l 483 890 l 336 1022 l 353 1040 l 496 924 l 671 1040 z "},"â":{"ha":761,"x_min":94,"x_max":669,"o":"m 456 735 q 564 720 517 735 q 657 678 611 706 l 582 156 q 576 94 576 111 q 588 42 576 63 q 626 10 599 21 l 617 -14 q 565 26 582 0 q 549 94 549 51 q 551 135 549 104 q 447 26 508 65 q 317 -14 386 -14 q 153 60 213 -14 q 94 264 94 135 q 131 481 94 372 q 249 662 168 589 q 456 735 331 735 m 456 708 q 267 639 342 708 q 159 467 193 569 q 125 265 125 365 q 175 81 125 147 q 317 15 225 15 q 556 188 458 15 l 624 663 q 456 708 550 708 m 335 908 l 319 926 l 506 1058 l 522 1058 l 669 926 l 653 908 l 510 1025 l 335 908 z "},"ấ":{"ha":761,"x_min":94,"x_max":769,"o":"m 747 1114 l 769 1088 l 606 935 l 590 951 l 747 1114 m 317 814 l 303 833 l 486 957 l 503 957 l 651 832 l 635 814 l 493 924 l 317 814 m 456 735 q 564 720 517 735 q 657 678 611 706 l 582 156 q 576 94 576 111 q 588 42 576 63 q 626 10 599 21 l 617 -14 q 565 26 582 0 q 549 94 549 51 q 551 135 549 104 q 447 26 508 65 q 317 -14 386 -14 q 153 60 213 -14 q 94 264 94 135 q 131 481 94 372 q 249 662 168 589 q 456 735 331 735 m 456 708 q 267 639 342 708 q 159 467 193 569 q 125 265 125 365 q 175 81 125 147 q 317 15 225 15 q 556 188 458 15 l 624 663 q 456 708 550 708 z "},"ậ":{"ha":761,"x_min":94,"x_max":669,"o":"m 456 735 q 564 720 517 735 q 657 678 611 706 l 582 156 q 576 94 576 111 q 588 42 576 63 q 626 10 599 21 l 617 -14 q 565 26 582 0 q 549 94 549 51 q 551 135 549 104 q 447 26 508 65 q 317 -14 386 -14 q 153 60 213 -14 q 94 264 94 135 q 131 481 94 372 q 249 662 168 589 q 456 735 331 735 m 456 708 q 267 639 342 708 q 159 467 193 569 q 125 265 125 365 q 175 81 125 147 q 317 15 225 15 q 556 188 458 15 l 624 663 q 456 708 550 708 m 335 908 l 319 926 l 506 1058 l 522 1058 l 669 926 l 653 908 l 510 1025 l 335 908 m 347 -137 q 365 -144 358 -137 q 372 -161 372 -150 q 364 -183 372 -174 q 343 -192 356 -192 q 324 -185 331 -192 q 317 -167 317 -178 q 325 -147 317 -156 q 347 -137 333 -137 z "},"ầ":{"ha":761,"x_min":94,"x_max":657,"o":"m 272 1114 l 385 949 l 365 935 l 244 1092 l 272 1114 m 315 814 l 301 833 l 485 957 l 501 957 l 650 832 l 633 814 l 492 924 l 315 814 m 456 735 q 564 720 517 735 q 657 678 611 706 l 582 156 q 576 94 576 111 q 588 42 576 63 q 626 10 599 21 l 617 -14 q 565 26 582 0 q 549 94 549 51 q 551 135 549 104 q 447 26 508 65 q 317 -14 386 -14 q 153 60 213 -14 q 94 264 94 135 q 131 481 94 372 q 249 662 168 589 q 456 735 331 735 m 456 708 q 267 639 342 708 q 159 467 193 569 q 125 265 125 365 q 175 81 125 147 q 317 15 225 15 q 556 188 458 15 l 624 663 q 456 708 550 708 z "},"ẩ":{"ha":761,"x_min":94,"x_max":783,"o":"m 456 735 q 564 720 517 735 q 657 678 611 706 l 582 156 q 576 94 576 111 q 588 42 576 63 q 626 10 599 21 l 617 -14 q 565 26 582 0 q 549 94 549 51 q 551 135 549 104 q 447 26 508 65 q 317 -14 386 -14 q 153 60 213 -14 q 94 264 94 135 q 131 481 94 372 q 249 662 168 589 q 456 735 331 735 m 456 708 q 267 639 342 708 q 159 467 193 569 q 125 265 125 365 q 175 81 125 147 q 317 15 225 15 q 556 188 458 15 l 624 663 q 456 708 550 708 m 314 814 l 300 833 l 483 957 l 500 957 l 649 832 l 632 814 l 490 924 l 314 814 m 644 1019 q 722 1041 692 1022 q 751 1099 751 1060 q 689 1157 751 1157 q 647 1151 664 1157 q 606 1135 629 1146 l 593 1158 q 689 1185 642 1185 q 758 1162 733 1185 q 783 1099 783 1139 q 754 1031 783 1057 q 674 999 725 1006 l 664 922 l 633 922 l 644 1019 z "},"ẫ":{"ha":761,"x_min":94,"x_max":692,"o":"m 583 1000 q 543 1008 561 1000 q 496 1032 525 1015 q 458 1053 474 1046 q 426 1060 443 1060 q 383 1049 400 1060 q 336 1010 365 1039 l 318 1024 q 372 1072 346 1056 q 426 1088 399 1088 q 462 1081 446 1088 q 506 1058 478 1074 q 546 1035 528 1043 q 583 1028 564 1028 q 626 1041 606 1028 q 672 1085 647 1054 l 692 1072 q 638 1017 664 1033 q 583 1000 613 1000 m 315 801 l 301 821 l 485 944 l 501 944 l 650 819 l 633 801 l 492 911 l 315 801 m 456 735 q 564 720 517 735 q 657 678 611 706 l 582 156 q 576 94 576 111 q 588 42 576 63 q 626 10 599 21 l 617 -14 q 565 26 582 0 q 549 94 549 51 q 551 135 549 104 q 447 26 508 65 q 317 -14 386 -14 q 153 60 213 -14 q 94 264 94 135 q 131 481 94 372 q 249 662 168 589 q 456 735 331 735 m 456 708 q 267 639 342 708 q 159 467 193 569 q 125 265 125 365 q 175 81 125 147 q 317 15 225 15 q 556 188 458 15 l 624 663 q 456 708 550 708 z "},"ȁ":{"ha":761,"x_min":94,"x_max":657,"o":"m 456 735 q 564 720 517 735 q 657 678 611 706 l 582 156 q 576 94 576 111 q 588 42 576 63 q 626 10 599 21 l 617 -14 q 565 26 582 0 q 549 94 549 51 q 551 135 549 104 q 447 26 508 65 q 317 -14 386 -14 q 153 60 213 -14 q 94 264 94 135 q 131 481 94 372 q 249 662 168 589 q 456 735 331 735 m 456 708 q 267 639 342 708 q 159 467 193 569 q 125 265 125 365 q 175 81 125 147 q 317 15 225 15 q 556 188 458 15 l 624 663 q 456 708 550 708 m 361 1099 l 435 918 l 410 906 l 328 1083 l 361 1099 m 514 1097 l 579 922 l 554 911 l 479 1081 l 514 1097 z "},"ä":{"ha":761,"x_min":94,"x_max":657,"o":"m 456 735 q 564 720 517 735 q 657 678 611 706 l 582 156 q 576 94 576 111 q 588 42 576 63 q 626 10 599 21 l 617 -14 q 565 26 582 0 q 549 94 549 51 q 551 135 549 104 q 447 26 508 65 q 317 -14 386 -14 q 153 60 213 -14 q 94 264 94 135 q 131 481 94 372 q 249 662 168 589 q 456 735 331 735 m 456 708 q 267 639 342 708 q 159 467 193 569 q 125 265 125 365 q 175 81 125 147 q 317 15 225 15 q 556 188 458 15 l 624 663 q 456 708 550 708 m 385 935 q 367 941 374 935 q 360 958 360 947 q 368 980 360 971 q 389 989 376 989 q 408 982 401 989 q 415 964 415 975 q 406 944 415 953 q 385 935 397 935 m 614 935 q 596 941 603 935 q 589 958 589 947 q 597 980 589 971 q 619 989 606 989 q 638 982 631 989 q 644 964 644 975 q 636 943 644 951 q 614 935 628 935 z "},"ǟ":{"ha":761,"x_min":94,"x_max":657,"o":"m 456 735 q 564 720 517 735 q 657 678 611 706 l 582 156 q 576 94 576 111 q 588 42 576 63 q 626 10 599 21 l 617 -14 q 565 26 582 0 q 549 94 549 51 q 551 135 549 104 q 447 26 508 65 q 317 -14 386 -14 q 153 60 213 -14 q 94 264 94 135 q 131 481 94 372 q 249 662 168 589 q 456 735 331 735 m 456 708 q 267 639 342 708 q 159 467 193 569 q 125 265 125 365 q 175 81 125 147 q 317 15 225 15 q 556 188 458 15 l 624 663 q 456 708 550 708 m 378 893 q 360 899 367 893 q 353 917 353 906 q 361 938 353 929 q 382 947 369 947 q 401 940 394 947 q 408 922 408 933 q 399 902 408 911 q 378 893 390 893 m 607 893 q 589 899 596 893 q 582 917 582 906 q 590 938 582 929 q 613 947 599 947 q 631 940 624 947 q 638 922 638 933 q 629 901 638 910 q 607 893 621 893 m 653 1046 l 365 1046 l 369 1075 l 657 1075 l 653 1046 z "},"ȧ":{"ha":761,"x_min":94,"x_max":657,"o":"m 456 735 q 564 720 517 735 q 657 678 611 706 l 582 156 q 576 94 576 111 q 588 42 576 63 q 626 10 599 21 l 617 -14 q 565 26 582 0 q 549 94 549 51 q 551 135 549 104 q 447 26 508 65 q 317 -14 386 -14 q 153 60 213 -14 q 94 264 94 135 q 131 481 94 372 q 249 662 168 589 q 456 735 331 735 m 456 708 q 267 639 342 708 q 159 467 193 569 q 125 265 125 365 q 175 81 125 147 q 317 15 225 15 q 556 188 458 15 l 624 663 q 456 708 550 708 m 503 951 q 485 958 492 951 q 478 975 478 964 q 486 997 478 988 q 507 1006 494 1006 q 526 999 519 1006 q 533 981 533 992 q 525 960 533 969 q 503 951 517 951 z "},"ạ":{"ha":761,"x_min":94,"x_max":657,"o":"m 456 735 q 564 720 517 735 q 657 678 611 706 l 582 156 q 576 94 576 111 q 588 42 576 63 q 626 10 599 21 l 617 -14 q 565 26 582 0 q 549 94 549 51 q 551 135 549 104 q 447 26 508 65 q 317 -14 386 -14 q 153 60 213 -14 q 94 264 94 135 q 131 481 94 372 q 249 662 168 589 q 456 735 331 735 m 456 708 q 267 639 342 708 q 159 467 193 569 q 125 265 125 365 q 175 81 125 147 q 317 15 225 15 q 556 188 458 15 l 624 663 q 456 708 550 708 m 347 -137 q 365 -144 358 -137 q 372 -161 372 -150 q 364 -183 372 -174 q 343 -192 356 -192 q 324 -185 331 -192 q 317 -167 317 -178 q 325 -147 317 -156 q 347 -137 333 -137 z "},"ǡ":{"ha":761,"x_min":94,"x_max":657,"o":"m 456 735 q 564 720 517 735 q 657 678 611 706 l 582 156 q 576 94 576 111 q 588 42 576 63 q 626 10 599 21 l 617 -14 q 565 26 582 0 q 549 94 549 51 q 551 135 549 104 q 447 26 508 65 q 317 -14 386 -14 q 153 60 213 -14 q 94 264 94 135 q 131 481 94 372 q 249 662 168 589 q 456 735 331 735 m 456 708 q 267 639 342 708 q 159 467 193 569 q 125 265 125 365 q 175 81 125 147 q 317 15 225 15 q 556 188 458 15 l 624 663 q 456 708 550 708 m 490 878 q 472 884 479 878 q 465 901 465 890 q 474 923 465 914 q 494 932 482 932 q 514 925 507 932 q 521 907 521 918 q 513 887 521 896 q 490 878 504 878 m 653 1035 l 365 1035 l 369 1064 l 657 1064 l 653 1035 z "},"à":{"ha":761,"x_min":94,"x_max":657,"o":"m 456 735 q 564 720 517 735 q 657 678 611 706 l 582 156 q 576 94 576 111 q 588 42 576 63 q 626 10 599 21 l 617 -14 q 565 26 582 0 q 549 94 549 51 q 551 135 549 104 q 447 26 508 65 q 317 -14 386 -14 q 153 60 213 -14 q 94 264 94 135 q 131 481 94 372 q 249 662 168 589 q 456 735 331 735 m 456 708 q 267 639 342 708 q 159 467 193 569 q 125 265 125 365 q 175 81 125 147 q 317 15 225 15 q 556 188 458 15 l 624 663 q 456 708 550 708 m 415 1057 l 640 929 l 628 908 l 397 1025 l 415 1057 z "},"ả":{"ha":761,"x_min":94,"x_max":657,"o":"m 456 735 q 564 720 517 735 q 657 678 611 706 l 582 156 q 576 94 576 111 q 588 42 576 63 q 626 10 599 21 l 617 -14 q 565 26 582 0 q 549 94 549 51 q 551 135 549 104 q 447 26 508 65 q 317 -14 386 -14 q 153 60 213 -14 q 94 264 94 135 q 131 481 94 372 q 249 662 168 589 q 456 735 331 735 m 456 708 q 267 639 342 708 q 159 467 193 569 q 125 265 125 365 q 175 81 125 147 q 317 15 225 15 q 556 188 458 15 l 624 663 q 456 708 550 708 m 485 961 q 562 983 532 964 q 592 1040 592 1001 q 529 1099 592 1099 q 487 1093 504 1099 q 446 1076 469 1088 l 433 1100 q 529 1126 482 1126 q 599 1103 574 1126 q 624 1040 624 1081 q 594 973 624 999 q 514 940 565 947 l 504 864 l 474 864 l 485 961 z "},"ȃ":{"ha":761,"x_min":94,"x_max":657,"o":"m 456 735 q 564 720 517 735 q 657 678 611 706 l 582 156 q 576 94 576 111 q 588 42 576 63 q 626 10 599 21 l 617 -14 q 565 26 582 0 q 549 94 549 51 q 551 135 549 104 q 447 26 508 65 q 317 -14 386 -14 q 153 60 213 -14 q 94 264 94 135 q 131 481 94 372 q 249 662 168 589 q 456 735 331 735 m 456 708 q 267 639 342 708 q 159 467 193 569 q 125 265 125 365 q 175 81 125 147 q 317 15 225 15 q 556 188 458 15 l 624 663 q 456 708 550 708 m 336 889 q 397 974 353 942 q 501 1007 442 1007 q 597 974 561 1007 q 636 886 633 940 l 613 883 q 577 953 606 929 q 500 978 549 978 q 413 953 450 978 q 357 882 376 928 l 336 889 z "},"ɑ":{"ha":760,"x_min":94,"x_max":664,"o":"m 579 156 q 574 94 574 111 q 585 42 574 63 q 624 10 596 21 l 615 -14 q 563 26 579 0 q 546 96 546 53 q 549 135 546 107 q 445 25 506 64 q 314 -14 385 -14 q 153 60 211 -14 q 94 264 94 135 q 133 479 94 369 q 248 662 171 589 q 432 735 325 735 q 618 601 574 735 l 640 721 l 664 721 l 579 156 m 315 15 q 556 188 457 15 l 610 551 q 542 670 588 633 q 431 707 497 707 q 264 638 333 707 q 160 465 194 568 q 125 265 125 363 q 175 82 125 149 q 315 15 225 15 z "},"ɒ":{"ha":760,"x_min":96,"x_max":665,"o":"m 446 735 q 607 660 549 735 q 665 457 665 586 q 627 242 665 351 q 512 59 589 132 q 328 -14 435 -14 q 142 119 186 -14 l 119 0 l 96 0 l 181 565 q 186 626 186 610 q 175 679 186 658 q 136 711 164 700 l 144 735 q 197 694 181 721 q 214 625 214 668 q 211 586 214 614 q 315 696 254 657 q 446 735 375 735 m 329 14 q 496 83 426 14 q 600 256 565 153 q 635 456 635 358 q 585 639 635 572 q 444 706 535 706 q 204 533 303 706 l 150 169 q 217 51 172 88 q 329 14 263 14 z "},"ā":{"ha":761,"x_min":94,"x_max":657,"o":"m 456 735 q 564 720 517 735 q 657 678 611 706 l 582 156 q 576 94 576 111 q 588 42 576 63 q 626 10 599 21 l 617 -14 q 565 26 582 0 q 549 94 549 51 q 551 135 549 104 q 447 26 508 65 q 317 -14 386 -14 q 153 60 213 -14 q 94 264 94 135 q 131 481 94 372 q 249 662 168 589 q 456 735 331 735 m 456 708 q 267 639 342 708 q 159 467 193 569 q 125 265 125 365 q 175 81 125 147 q 317 15 225 15 q 556 188 458 15 l 624 663 q 456 708 550 708 m 643 951 l 356 951 l 360 981 l 647 981 l 643 951 z "},"ą":{"ha":761,"x_min":94,"x_max":657,"o":"m 582 156 q 576 94 576 111 q 588 42 576 63 q 626 10 599 21 l 617 -14 q 467 -94 517 -54 q 418 -189 418 -133 q 506 -265 418 -265 q 582 -256 539 -265 l 575 -286 q 501 -296 536 -296 q 415 -270 444 -296 q 385 -201 385 -244 q 437 -87 385 -132 q 593 -1 489 -43 q 549 94 549 26 q 551 135 549 119 q 447 26 508 65 q 317 -14 386 -14 q 153 60 213 -14 q 94 264 94 135 q 131 481 94 372 q 249 662 168 589 q 456 735 331 735 q 564 720 517 735 q 657 678 611 706 l 582 156 m 317 15 q 556 188 458 15 l 624 663 q 456 708 550 708 q 267 639 342 708 q 159 467 193 569 q 125 265 125 365 q 175 81 125 147 q 317 15 225 15 z "},"å":{"ha":761,"x_min":94,"x_max":657,"o":"m 456 735 q 564 720 517 735 q 657 678 611 706 l 582 156 q 576 94 576 111 q 588 42 576 63 q 626 10 599 21 l 617 -14 q 565 26 582 0 q 549 94 549 51 q 551 135 549 104 q 447 26 508 65 q 317 -14 386 -14 q 153 60 213 -14 q 94 264 94 135 q 131 481 94 372 q 249 662 168 589 q 456 735 331 735 m 456 708 q 267 639 342 708 q 159 467 193 569 q 125 265 125 365 q 175 81 125 147 q 317 15 225 15 q 556 188 458 15 l 624 663 q 456 708 550 708 m 522 1113 q 593 1088 567 1113 q 619 1021 619 1063 q 584 930 619 965 q 496 894 549 894 q 424 921 450 894 q 397 989 397 947 q 433 1078 397 1043 q 522 1113 468 1113 m 521 1088 q 452 1059 478 1088 q 426 988 426 1031 q 444 938 426 956 q 496 919 463 919 q 565 949 540 919 q 590 1018 590 978 q 572 1069 590 1051 q 521 1088 554 1088 z "},"ǻ":{"ha":761,"x_min":94,"x_max":657,"o":"m 456 735 q 564 720 517 735 q 657 678 611 706 l 582 156 q 576 94 576 111 q 588 42 576 63 q 626 10 599 21 l 617 -14 q 565 26 582 0 q 549 94 549 51 q 551 135 549 104 q 447 26 508 65 q 317 -14 386 -14 q 153 60 213 -14 q 94 264 94 135 q 131 481 94 372 q 249 662 168 589 q 456 735 331 735 m 456 708 q 267 639 342 708 q 159 467 193 569 q 125 265 125 365 q 175 81 125 147 q 317 15 225 15 q 556 188 458 15 l 624 663 q 456 708 550 708 m 507 1035 q 578 1010 551 1035 q 604 943 604 985 q 569 852 604 888 q 481 817 533 817 q 408 843 435 817 q 382 911 382 869 q 417 1000 382 965 q 507 1035 453 1035 m 506 1010 q 437 981 463 1010 q 411 910 411 953 q 429 860 411 878 q 481 842 447 842 q 550 871 525 842 q 575 940 575 900 q 557 992 575 974 q 506 1010 539 1010 m 631 1190 l 643 1156 l 381 1056 l 372 1076 l 631 1190 z "},"ⱥ":{"ha":761,"x_min":94,"x_max":657,"o":"m 582 156 q 576 94 576 111 q 588 42 576 63 q 626 10 599 21 l 617 -14 q 565 24 581 -1 q 549 94 549 50 q 551 135 549 107 q 447 26 508 65 q 317 -14 386 -14 q 236 0 272 -14 l 199 -92 l 178 -86 l 217 8 q 126 105 158 39 q 94 264 94 171 q 131 481 94 372 q 249 662 168 589 q 456 735 331 735 q 515 731 489 735 l 550 814 l 572 808 l 538 726 q 657 678 596 714 l 582 156 m 125 265 q 151 122 125 181 q 228 36 178 63 l 506 706 q 456 708 472 708 q 267 639 342 708 q 159 467 193 569 q 125 265 125 365 m 624 663 q 528 701 578 690 l 247 26 q 317 15 281 15 q 556 188 458 15 l 624 663 z "},"ã":{"ha":761,"x_min":94,"x_max":692,"o":"m 456 735 q 564 720 517 735 q 657 678 611 706 l 582 156 q 576 94 576 111 q 588 42 576 63 q 626 10 599 21 l 617 -14 q 565 26 582 0 q 549 94 549 51 q 551 135 549 104 q 447 26 508 65 q 317 -14 386 -14 q 153 60 213 -14 q 94 264 94 135 q 131 481 94 372 q 249 662 168 589 q 456 735 331 735 m 456 708 q 267 639 342 708 q 159 467 193 569 q 125 265 125 365 q 175 81 125 147 q 317 15 225 15 q 556 188 458 15 l 624 663 q 456 708 550 708 m 583 942 q 543 949 561 942 q 496 974 525 957 q 458 994 474 988 q 426 1001 443 1001 q 383 991 400 1001 q 336 951 365 981 l 318 965 q 372 1013 346 997 q 426 1029 399 1029 q 463 1022 446 1029 q 504 1000 479 1015 q 547 977 529 985 q 583 969 564 969 q 626 983 606 969 q 672 1026 647 996 l 692 1014 q 638 958 664 975 q 583 942 613 942 z "},"ɐ":{"ha":711,"x_min":125,"x_max":654,"o":"m 161 206 q 157 151 157 176 q 194 49 157 82 q 313 15 232 15 q 415 26 367 15 q 519 60 464 38 l 529 33 q 419 -2 469 10 q 313 -14 368 -14 q 172 27 218 -14 q 125 151 125 68 q 129 204 125 175 l 181 569 q 186 626 186 611 q 174 679 186 658 q 135 711 163 700 l 144 735 q 214 626 214 710 q 213 597 214 607 q 324 701 264 667 q 461 735 385 735 q 603 685 553 735 q 654 553 654 636 q 565 362 654 431 q 338 293 476 293 l 172 293 l 161 206 m 176 321 l 336 321 q 544 382 465 321 q 622 553 622 443 q 581 666 622 626 q 461 706 539 706 q 208 553 308 706 l 176 321 z "},"æ":{"ha":1136,"x_min":57,"x_max":1082,"o":"m 394 735 q 540 688 486 735 q 601 561 593 642 q 654 636 617 596 q 750 706 692 676 q 881 735 808 735 q 1026 690 971 735 q 1082 569 1082 646 q 947 381 1082 449 q 553 297 813 313 q 605 88 551 161 q 765 15 658 15 q 876 34 828 15 q 982 93 925 53 l 997 71 q 885 7 940 28 q 765 -14 831 -14 q 621 28 679 -14 q 539 151 563 71 q 401 24 471 63 q 251 -14 332 -14 q 109 36 161 -14 q 57 171 57 86 q 134 346 57 276 q 374 415 211 415 l 540 415 q 578 528 557 483 q 527 659 576 611 q 394 707 478 707 q 190 663 304 707 l 181 688 q 394 735 301 735 m 881 707 q 706 647 776 707 q 600 501 636 588 q 556 325 564 414 q 926 401 803 339 q 1050 569 1050 464 q 1005 670 1050 633 q 881 707 960 707 m 374 388 q 156 327 224 388 q 89 171 89 267 q 132 56 89 97 q 251 15 175 15 q 397 55 331 15 q 531 182 464 94 q 521 274 521 231 q 533 388 521 329 l 374 388 z "},"ǽ":{"ha":1136,"x_min":57,"x_max":1082,"o":"m 394 735 q 540 688 486 735 q 601 561 593 642 q 654 636 617 596 q 750 706 692 676 q 881 735 808 735 q 1026 690 971 735 q 1082 569 1082 646 q 947 381 1082 449 q 553 297 813 313 q 605 88 551 161 q 765 15 658 15 q 876 34 828 15 q 982 93 925 53 l 997 71 q 885 7 940 28 q 765 -14 831 -14 q 621 28 679 -14 q 539 151 563 71 q 401 24 471 63 q 251 -14 332 -14 q 109 36 161 -14 q 57 171 57 86 q 134 346 57 276 q 374 415 211 415 l 540 415 q 578 528 557 483 q 527 659 576 611 q 394 707 478 707 q 190 663 304 707 l 181 688 q 394 735 301 735 m 881 707 q 706 647 776 707 q 600 501 636 588 q 556 325 564 414 q 926 401 803 339 q 1050 569 1050 464 q 1005 670 1050 633 q 881 707 960 707 m 374 388 q 156 327 224 388 q 89 171 89 267 q 132 56 89 97 q 251 15 175 15 q 397 55 331 15 q 531 182 464 94 q 521 274 521 231 q 533 388 521 329 l 374 388 m 776 1057 l 789 1025 l 525 908 l 515 929 l 776 1057 z "},"ǣ":{"ha":1136,"x_min":57,"x_max":1082,"o":"m 394 735 q 540 688 486 735 q 601 561 593 642 q 654 636 617 596 q 750 706 692 676 q 881 735 808 735 q 1026 690 971 735 q 1082 569 1082 646 q 947 381 1082 449 q 553 297 813 313 q 605 88 551 161 q 765 15 658 15 q 876 34 828 15 q 982 93 925 53 l 997 71 q 885 7 940 28 q 765 -14 831 -14 q 621 28 679 -14 q 539 151 563 71 q 401 24 471 63 q 251 -14 332 -14 q 109 36 161 -14 q 57 171 57 86 q 134 346 57 276 q 374 415 211 415 l 540 415 q 578 528 557 483 q 527 659 576 611 q 394 707 478 707 q 190 663 304 707 l 181 688 q 394 735 301 735 m 881 707 q 706 647 776 707 q 600 501 636 588 q 556 325 564 414 q 926 401 803 339 q 1050 569 1050 464 q 1005 670 1050 633 q 881 707 960 707 m 374 388 q 156 327 224 388 q 89 171 89 267 q 132 56 89 97 q 251 15 175 15 q 397 55 331 15 q 531 182 464 94 q 521 274 521 231 q 533 388 521 329 l 374 388 m 792 951 l 504 951 l 508 981 l 796 981 l 792 951 z "},"b":{"ha":785,"x_min":118,"x_max":692,"o":"m 479 735 q 637 667 582 735 q 692 471 692 600 q 657 251 692 363 q 543 63 622 140 q 340 -14 464 -14 q 231 -3 281 -14 q 118 33 182 7 l 257 1018 l 288 1022 l 231 606 q 479 735 340 735 m 479 707 q 344 672 403 707 q 224 567 285 636 l 153 54 q 241 25 199 35 q 339 15 283 15 q 526 89 454 15 q 630 267 599 163 q 661 471 661 372 q 615 647 661 586 q 479 707 568 707 z "},"ḃ":{"ha":785,"x_min":118,"x_max":692,"o":"m 479 735 q 637 667 582 735 q 692 471 692 600 q 657 251 692 363 q 543 63 622 140 q 340 -14 464 -14 q 231 -3 281 -14 q 118 33 182 7 l 257 1018 l 288 1022 l 231 606 q 479 735 340 735 m 479 707 q 344 672 403 707 q 224 567 285 636 l 153 54 q 241 25 199 35 q 339 15 283 15 q 526 89 454 15 q 630 267 599 163 q 661 471 661 372 q 615 647 661 586 q 479 707 568 707 m 522 1197 q 504 1203 511 1197 q 497 1221 497 1210 q 506 1242 497 1233 q 526 1251 514 1251 q 546 1244 539 1251 q 553 1226 553 1238 q 544 1206 553 1215 q 522 1197 536 1197 z "},"ḅ":{"ha":785,"x_min":118,"x_max":692,"o":"m 479 735 q 637 667 582 735 q 692 471 692 600 q 657 251 692 363 q 543 63 622 140 q 340 -14 464 -14 q 231 -3 281 -14 q 118 33 182 7 l 257 1018 l 288 1022 l 231 606 q 479 735 340 735 m 479 707 q 344 672 403 707 q 224 567 285 636 l 153 54 q 241 25 199 35 q 339 15 283 15 q 526 89 454 15 q 630 267 599 163 q 661 471 661 372 q 615 647 661 586 q 479 707 568 707 m 322 -137 q 340 -144 333 -137 q 347 -161 347 -150 q 339 -183 347 -174 q 318 -192 331 -192 q 299 -185 306 -192 q 292 -167 292 -178 q 300 -147 292 -156 q 322 -137 308 -137 z "},"ꞵ":{"ha":800,"x_min":74,"x_max":715,"o":"m 219 753 q 314 952 236 881 q 501 1024 392 1024 q 656 968 596 1024 q 715 815 715 913 q 647 637 715 710 q 454 553 579 564 q 639 485 569 550 q 708 308 708 421 q 674 157 708 231 q 569 35 640 83 q 392 -14 497 -14 q 160 103 239 -14 l 107 -268 l 74 -272 l 219 753 m 392 15 q 551 60 488 15 q 646 171 615 104 q 676 306 676 238 q 603 478 676 417 q 400 540 531 540 l 328 540 l 336 568 l 403 568 q 557 601 493 568 q 653 691 621 635 q 685 815 685 747 q 634 949 685 903 q 501 996 583 996 q 335 932 404 996 q 250 749 267 868 l 164 140 q 260 44 204 74 q 392 15 315 15 z "},"ɓ":{"ha":785,"x_min":118,"x_max":692,"o":"m 479 735 q 638 667 583 735 q 692 471 692 599 q 657 251 692 363 q 543 63 622 140 q 340 -14 464 -14 q 231 -3 281 -14 q 118 33 182 7 l 215 719 l 214 719 l 233 858 q 297 981 244 938 q 428 1024 350 1024 q 583 981 513 1024 l 569 957 q 429 994 503 994 q 317 959 361 994 q 264 853 274 924 l 244 719 l 246 719 l 231 606 q 479 735 340 735 m 339 15 q 526 89 454 15 q 630 267 599 163 q 661 472 661 372 q 615 647 661 588 q 479 707 569 707 q 344 672 403 707 q 224 567 285 636 l 153 54 q 241 25 199 35 q 339 15 283 15 z "},"ʭ":{"ha":425,"x_min":-10,"x_max":432,"o":"m 411 557 l 381 557 l 397 682 l 118 682 l 100 556 l 69 556 l 92 710 l 432 710 l 411 557 m 332 1 l 301 1 l 318 126 l 39 126 l 21 0 l -10 0 l 13 154 l 353 154 l 332 1 z "},"ʘ":{"ha":1096,"x_min":117,"x_max":1011,"o":"m 631 960 q 910 859 808 960 q 1011 574 1011 758 q 949 274 1011 407 q 770 63 886 140 q 497 -14 654 -14 q 218 88 319 -14 q 117 374 117 190 q 181 669 117 535 q 361 881 244 803 q 631 960 478 960 m 631 932 q 375 857 485 932 q 207 654 265 782 q 149 374 149 526 q 242 109 149 203 q 497 15 335 15 q 756 89 647 15 q 923 290 865 163 q 981 574 981 417 q 888 840 981 747 q 631 932 796 932 m 561 444 q 543 451 550 444 q 536 468 536 457 q 544 490 536 481 q 565 499 553 499 q 585 492 578 499 q 592 474 592 485 q 583 453 592 463 q 561 444 575 444 z "},"ʬ":{"ha":633,"x_min":74,"x_max":638,"o":"m 638 917 l 485 556 l 447 556 l 393 890 l 243 556 l 206 556 l 151 917 l 179 917 l 228 578 l 378 917 l 414 917 l 469 578 l 611 917 l 638 917 m 560 361 l 407 0 l 369 0 l 315 335 l 165 0 l 128 0 l 74 361 l 101 361 l 150 22 l 300 361 l 336 361 l 392 22 l 533 361 l 560 361 z "},"ƀ":{"ha":789,"x_min":122,"x_max":696,"o":"m 483 735 q 641 667 586 735 q 696 471 696 600 q 661 251 696 363 q 547 63 626 140 q 344 -14 468 -14 q 235 -3 285 -14 q 122 33 186 7 l 240 874 l 138 874 l 142 901 l 244 901 l 261 1018 l 292 1022 l 275 901 l 533 901 l 524 874 l 271 874 l 235 606 q 483 735 344 735 m 343 15 q 531 89 458 15 q 634 267 603 163 q 665 471 665 372 q 619 647 665 586 q 483 707 572 707 q 348 672 407 707 q 228 567 289 636 l 157 54 q 245 25 203 35 q 343 15 288 15 z "},"ƃ":{"ha":785,"x_min":119,"x_max":693,"o":"m 479 735 q 639 667 585 735 q 693 471 693 600 q 658 251 693 363 q 543 63 622 140 q 340 -14 464 -14 q 232 -3 281 -14 q 119 33 183 7 l 257 1017 l 626 1017 l 617 988 l 283 988 l 231 606 q 479 735 340 735 m 339 15 q 527 89 454 15 q 631 267 600 163 q 663 472 663 372 q 616 647 663 588 q 479 707 569 707 q 344 672 403 707 q 225 567 286 636 l 154 54 q 241 25 199 35 q 339 15 283 15 z "},"c":{"ha":644,"x_min":96,"x_max":624,"o":"m 444 735 q 624 665 554 735 l 604 646 q 443 707 540 707 q 266 641 338 707 q 161 475 194 575 q 128 274 128 375 q 185 81 128 147 q 343 15 243 15 q 531 82 443 15 l 547 60 q 342 -14 453 -14 q 163 61 229 -14 q 96 274 96 136 q 133 488 96 382 q 249 665 171 594 q 444 735 328 735 z "},"ć":{"ha":644,"x_min":96,"x_max":624,"o":"m 444 735 q 624 665 554 735 l 604 646 q 443 707 540 707 q 266 641 338 707 q 161 475 194 575 q 128 274 128 375 q 185 81 128 147 q 343 15 243 15 q 531 82 443 15 l 547 60 q 342 -14 453 -14 q 163 61 229 -14 q 96 274 96 136 q 133 488 96 382 q 249 665 171 594 q 444 735 328 735 m 603 1057 l 615 1025 l 351 908 l 342 929 l 603 1057 z "},"č":{"ha":644,"x_min":96,"x_max":661,"o":"m 444 735 q 624 665 554 735 l 604 646 q 443 707 540 707 q 266 641 338 707 q 161 475 194 575 q 128 274 128 375 q 185 81 128 147 q 343 15 243 15 q 531 82 443 15 l 547 60 q 342 -14 453 -14 q 163 61 229 -14 q 96 274 96 136 q 133 488 96 382 q 249 665 171 594 q 444 735 328 735 m 646 1040 l 661 1022 l 475 890 l 458 890 l 311 1022 l 328 1040 l 471 924 l 646 1040 z "},"ç":{"ha":644,"x_min":96,"x_max":624,"o":"m 443 707 q 266 641 338 707 q 161 475 194 575 q 128 274 128 375 q 185 81 128 147 q 343 15 243 15 q 531 82 443 15 l 547 60 q 347 -14 454 -12 l 331 -103 q 419 -128 390 -107 q 447 -192 447 -150 q 411 -267 447 -239 q 318 -294 375 -294 q 225 -269 263 -294 l 239 -247 q 318 -267 271 -267 q 389 -247 363 -267 q 415 -192 415 -228 q 389 -142 415 -157 q 300 -126 363 -128 l 322 -14 q 157 68 218 -7 q 96 274 96 143 q 133 488 96 382 q 249 665 171 594 q 444 735 328 735 q 624 665 554 735 l 604 646 q 443 707 540 707 z "},"ĉ":{"ha":644,"x_min":96,"x_max":644,"o":"m 444 735 q 624 665 554 735 l 604 646 q 443 707 540 707 q 266 641 338 707 q 161 475 194 575 q 128 274 128 375 q 185 81 128 147 q 343 15 243 15 q 531 82 443 15 l 547 60 q 342 -14 453 -14 q 163 61 229 -14 q 96 274 96 136 q 133 488 96 382 q 249 665 171 594 q 444 735 328 735 m 310 908 l 294 926 l 481 1058 l 497 1058 l 644 926 l 628 908 l 485 1025 l 310 908 z "},"ɕ":{"ha":660,"x_min":96,"x_max":624,"o":"m 446 707 q 266 640 338 707 q 161 472 194 572 q 128 269 128 371 q 199 67 128 131 q 326 232 267 183 q 456 281 386 281 q 549 248 517 281 q 582 163 582 215 q 519 34 582 82 q 351 -14 456 -14 q 273 -4 307 -14 q 206 25 239 6 l 143 -78 l 119 -67 l 183 40 q 96 274 96 117 q 133 488 96 382 q 249 665 171 594 q 444 735 328 735 q 624 665 554 735 l 604 646 q 446 707 543 707 m 456 253 q 340 208 393 253 q 222 50 288 164 q 351 15 274 15 q 495 53 439 15 q 551 163 551 92 q 527 229 551 206 q 456 253 503 253 z "},"ċ":{"ha":644,"x_min":96,"x_max":624,"o":"m 444 735 q 624 665 554 735 l 604 646 q 443 707 540 707 q 266 641 338 707 q 161 475 194 575 q 128 274 128 375 q 185 81 128 147 q 343 15 243 15 q 531 82 443 15 l 547 60 q 342 -14 453 -14 q 163 61 229 -14 q 96 274 96 136 q 133 488 96 382 q 249 665 171 594 q 444 735 328 735 m 478 951 q 460 958 467 951 q 453 975 453 964 q 461 997 453 988 q 482 1006 469 1006 q 501 999 494 1006 q 508 981 508 992 q 500 960 508 969 q 478 951 492 951 z "},"ƈ":{"ha":644,"x_min":96,"x_max":896,"o":"m 776 1024 q 843 1012 815 1024 q 896 981 871 1000 l 878 961 q 832 987 854 978 q 776 996 810 996 q 694 964 728 996 q 651 867 660 932 l 624 665 l 608 649 q 534 692 574 678 q 443 707 494 707 q 266 641 338 707 q 161 475 194 575 q 128 274 128 375 q 185 81 128 147 q 343 15 243 15 q 531 82 443 15 l 547 60 q 342 -14 453 -14 q 163 61 229 -14 q 96 274 96 136 q 133 488 96 382 q 249 665 171 594 q 444 735 328 735 q 596 689 532 735 l 621 871 q 674 985 632 946 q 776 1024 715 1024 z "},"ʗ":{"ha":676,"x_min":103,"x_max":656,"o":"m 485 735 q 578 718 539 735 q 656 664 617 701 l 636 646 q 569 692 606 676 q 485 707 532 707 q 297 612 376 707 q 176 371 217 517 q 135 78 135 225 q 190 -166 135 -81 q 343 -251 244 -251 q 525 -183 439 -251 l 540 -207 q 343 -281 449 -281 q 166 -186 229 -281 q 103 78 103 -92 q 149 387 103 235 q 281 637 194 539 q 485 735 368 735 z "},"ȼ":{"ha":644,"x_min":96,"x_max":624,"o":"m 604 646 q 519 696 568 682 l 246 35 q 343 15 289 15 q 531 82 443 15 l 547 60 q 342 -14 453 -14 q 235 8 279 -14 l 193 -92 l 171 -86 l 214 18 q 127 117 158 51 q 96 274 96 182 q 133 488 96 382 q 249 665 171 594 q 444 735 328 735 q 508 728 476 735 l 544 814 l 567 808 l 531 722 q 624 665 583 706 l 604 646 m 499 701 q 443 707 475 707 q 266 641 338 707 q 161 475 194 575 q 128 274 128 375 q 153 133 128 190 q 226 46 179 75 l 499 701 z "},"d":{"ha":790,"x_min":94,"x_max":719,"o":"m 719 1018 l 575 0 l 550 0 l 571 181 q 458 40 521 93 q 308 -14 396 -14 q 152 60 210 -14 q 94 264 94 133 q 128 478 94 369 q 239 660 163 586 q 432 735 315 735 q 557 701 508 735 q 632 618 606 668 l 689 1022 l 719 1018 m 432 707 q 258 638 326 707 q 157 466 189 568 q 125 265 125 364 q 174 81 125 146 q 310 15 224 15 q 456 72 394 15 q 579 238 518 129 l 626 578 q 432 707 568 707 z "},"ð":{"ha":771,"x_min":90,"x_max":664,"o":"m 506 924 q 624 768 583 858 q 664 550 664 678 q 627 276 664 404 q 513 67 590 147 q 322 -14 436 -14 q 151 56 211 -14 q 90 244 90 125 q 122 430 90 339 q 224 581 154 521 q 400 640 294 640 q 633 504 543 640 q 635 547 635 519 q 600 747 635 658 q 485 906 565 836 l 351 786 l 328 796 l 465 921 q 383 967 429 947 q 292 997 338 988 l 300 1025 q 486 939 406 1000 l 592 1036 l 611 1019 l 506 924 m 322 14 q 483 79 417 14 q 585 247 549 144 q 631 468 621 350 q 401 613 536 613 q 242 557 306 613 q 151 417 179 501 q 122 244 122 333 q 174 75 122 136 q 322 14 226 14 z "},"ȸ":{"ha":1163,"x_min":94,"x_max":1068,"o":"m 869 735 q 1016 667 964 735 q 1068 472 1068 599 q 1033 238 1068 350 q 928 56 997 126 q 760 -14 858 -14 q 642 29 692 -14 q 568 144 593 72 l 544 0 l 522 0 l 538 144 q 303 -14 446 -14 q 151 60 207 -14 q 94 265 94 133 q 134 492 94 383 q 247 667 174 600 q 418 735 321 735 q 603 608 540 735 l 661 1018 l 692 1022 l 633 606 q 742 700 681 665 q 869 735 803 735 m 304 15 q 437 60 379 15 q 546 200 494 106 l 599 574 q 521 674 561 640 q 419 707 481 707 q 264 643 331 707 q 162 477 197 579 q 126 265 126 375 q 174 81 126 146 q 304 15 221 15 m 760 15 q 912 83 849 15 q 1006 256 975 150 q 1038 474 1038 361 q 994 647 1038 588 q 869 707 951 707 q 742 671 801 707 q 628 568 683 635 l 575 197 q 760 15 626 15 z "},"ď":{"ha":790,"x_min":94,"x_max":885,"o":"m 719 1018 l 575 0 l 550 0 l 571 181 q 458 40 521 93 q 308 -14 396 -14 q 152 60 210 -14 q 94 264 94 133 q 128 478 94 369 q 239 660 163 586 q 432 735 315 735 q 557 701 508 735 q 632 618 606 668 l 689 1022 l 719 1018 m 432 707 q 258 638 326 707 q 157 466 189 568 q 125 265 125 364 q 174 81 125 146 q 310 15 224 15 q 456 72 394 15 q 579 238 518 129 l 626 578 q 432 707 568 707 m 853 1024 l 885 1021 l 821 819 l 799 824 l 853 1024 z "},"ḓ":{"ha":790,"x_min":94,"x_max":719,"o":"m 719 1018 l 575 0 l 550 0 l 571 181 q 458 40 521 93 q 308 -14 396 -14 q 152 60 210 -14 q 94 264 94 133 q 128 478 94 369 q 239 660 163 586 q 432 735 315 735 q 557 701 508 735 q 632 618 606 668 l 689 1022 l 719 1018 m 432 707 q 258 638 326 707 q 157 466 189 568 q 125 265 125 364 q 174 81 125 146 q 310 15 224 15 q 456 72 394 15 q 579 238 518 129 l 626 578 q 432 707 568 707 m 158 -256 l 142 -236 l 328 -104 l 344 -104 l 492 -236 l 476 -256 l 332 -137 l 158 -256 z "},"đ":{"ha":796,"x_min":94,"x_max":806,"o":"m 803 874 l 699 874 l 575 0 l 550 0 l 571 181 q 458 40 521 93 q 308 -14 396 -14 q 152 60 210 -14 q 94 264 94 133 q 128 478 94 369 q 239 660 163 586 q 432 735 315 735 q 557 701 508 735 q 632 618 606 668 l 668 874 l 431 874 l 431 901 l 672 901 l 689 1022 l 719 1018 l 703 901 l 806 901 l 803 874 m 626 578 q 432 707 568 707 q 258 638 326 707 q 157 466 189 568 q 125 265 125 364 q 174 81 125 146 q 310 15 224 15 q 456 72 394 15 q 579 238 518 129 l 626 578 z "},"ȡ":{"ha":904,"x_min":94,"x_max":918,"o":"m 803 253 q 887 224 856 253 q 918 147 918 194 q 860 32 918 78 q 715 -14 801 -14 q 588 43 625 -14 l 504 -78 l 481 -67 l 575 68 q 565 128 565 92 q 568 164 565 139 l 571 179 q 308 -14 467 -14 q 152 60 210 -14 q 94 264 94 133 q 128 478 94 369 q 238 660 163 586 q 432 735 314 735 q 557 701 508 735 q 632 618 606 668 l 689 1022 l 719 1018 l 599 163 q 596 126 596 138 l 597 104 q 694 217 647 181 q 803 253 740 253 m 308 15 q 456 72 394 15 q 578 235 518 129 l 626 578 q 432 707 565 707 q 257 638 326 707 q 156 467 188 568 q 125 265 125 365 q 174 81 125 147 q 308 15 224 15 m 717 15 q 838 51 789 15 q 888 147 888 86 q 864 204 888 183 q 800 225 840 225 q 706 191 749 225 q 607 71 663 157 q 717 15 632 15 z "},"ḋ":{"ha":790,"x_min":94,"x_max":719,"o":"m 719 1018 l 575 0 l 550 0 l 571 181 q 458 40 521 93 q 308 -14 396 -14 q 152 60 210 -14 q 94 264 94 133 q 128 478 94 369 q 239 660 163 586 q 432 735 315 735 q 557 701 508 735 q 632 618 606 668 l 689 1022 l 719 1018 m 432 707 q 258 638 326 707 q 157 466 189 568 q 125 265 125 364 q 174 81 125 146 q 310 15 224 15 q 456 72 394 15 q 579 238 518 129 l 626 578 q 432 707 568 707 m 499 1197 q 481 1203 488 1197 q 474 1221 474 1210 q 482 1242 474 1233 q 503 1251 490 1251 q 522 1244 515 1251 q 529 1226 529 1238 q 521 1206 529 1215 q 499 1197 513 1197 z "},"ḍ":{"ha":790,"x_min":94,"x_max":719,"o":"m 719 1018 l 575 0 l 550 0 l 571 181 q 458 40 521 93 q 308 -14 396 -14 q 152 60 210 -14 q 94 264 94 133 q 128 478 94 369 q 239 660 163 586 q 432 735 315 735 q 557 701 508 735 q 632 618 606 668 l 689 1022 l 719 1018 m 432 707 q 258 638 326 707 q 157 466 189 568 q 125 265 125 364 q 174 81 125 146 q 310 15 224 15 q 456 72 394 15 q 579 238 518 129 l 626 578 q 432 707 568 707 m 331 -137 q 349 -144 342 -137 q 356 -161 356 -150 q 347 -183 356 -174 q 326 -192 339 -192 q 307 -185 314 -192 q 300 -167 300 -178 q 308 -147 300 -156 q 331 -137 317 -137 z "},"ƍ":{"ha":775,"x_min":88,"x_max":683,"o":"m 300 -274 q 88 -199 178 -274 l 108 -179 q 196 -228 150 -212 q 300 -244 242 -244 q 449 -206 397 -244 q 500 -110 500 -167 q 464 -28 500 -61 q 335 42 428 6 q 156 154 210 90 q 101 324 101 218 q 133 509 101 415 q 240 669 165 603 q 436 735 315 735 q 618 661 553 735 q 683 460 683 588 q 615 210 683 315 q 388 49 547 104 q 499 -22 465 14 q 532 -110 532 -57 q 505 -190 532 -153 q 426 -251 478 -228 q 300 -274 374 -274 m 357 61 q 587 220 521 118 q 653 460 653 322 q 595 641 653 575 q 435 707 538 707 q 256 644 324 707 q 160 493 188 581 q 132 324 132 406 q 183 167 132 225 q 357 61 233 110 z "},"ʤ":{"ha":1186,"x_min":94,"x_max":1147,"o":"m 1143 696 l 775 269 l 808 269 q 1088 53 1088 269 q 1048 -116 1088 -42 q 935 -232 1008 -190 q 769 -274 863 -274 q 632 -244 690 -274 q 528 -160 574 -215 l 550 -143 q 646 -220 594 -196 q 768 -244 697 -244 q 921 -206 856 -244 q 1021 -101 986 -168 q 1056 51 1056 -35 q 994 195 1056 150 q 807 240 933 240 l 733 240 l 738 269 l 1103 693 l 674 693 l 575 0 l 550 0 l 571 181 q 458 40 521 93 q 308 -14 396 -14 q 152 60 210 -14 q 94 264 94 133 q 128 478 94 369 q 239 660 163 586 q 432 735 315 735 q 557 701 508 735 q 632 618 606 668 l 689 1022 l 719 1018 l 678 721 l 1147 721 l 1143 696 m 626 578 q 432 707 568 707 q 258 638 326 707 q 157 466 189 568 q 125 265 125 364 q 174 81 125 146 q 310 15 224 15 q 456 72 394 15 q 579 238 518 129 l 626 578 z "},"ɗ":{"ha":790,"x_min":94,"x_max":942,"o":"m 822 1024 q 890 1012 863 1024 q 942 981 918 1000 l 925 961 q 879 987 903 978 q 822 996 856 996 q 740 965 774 996 q 697 867 707 933 l 676 721 l 575 0 l 550 0 l 571 181 q 458 40 521 93 q 308 -14 396 -14 q 152 60 210 -14 q 94 264 94 133 q 128 478 94 369 q 238 660 163 586 q 432 735 314 735 q 557 701 508 735 q 632 618 606 668 l 646 721 l 668 871 q 720 985 679 946 q 822 1024 761 1024 m 626 578 q 432 707 565 707 q 257 638 326 707 q 156 467 188 568 q 125 265 125 365 q 174 81 125 147 q 308 15 224 15 q 456 72 394 15 q 579 238 518 129 l 626 578 z "},"ḏ":{"ha":790,"x_min":94,"x_max":719,"o":"m 719 1018 l 575 0 l 550 0 l 571 181 q 458 40 521 93 q 308 -14 396 -14 q 152 60 210 -14 q 94 264 94 133 q 128 478 94 369 q 239 660 163 586 q 432 735 315 735 q 557 701 508 735 q 632 618 606 668 l 689 1022 l 719 1018 m 432 707 q 258 638 326 707 q 157 466 189 568 q 125 265 125 364 q 174 81 125 146 q 310 15 224 15 q 456 72 394 15 q 579 238 518 129 l 626 578 q 432 707 568 707 m 188 -164 l 475 -164 l 471 -193 l 183 -193 l 188 -164 z "},"ɖ":{"ha":790,"x_min":94,"x_max":771,"o":"m 771 -233 q 643 -274 714 -274 q 558 -243 589 -274 q 526 -154 526 -212 q 529 -119 526 -144 l 544 0 l 569 175 q 458 38 521 90 q 308 -14 396 -14 q 152 60 210 -14 q 94 264 94 133 q 128 478 94 369 q 238 660 163 586 q 432 735 314 735 q 557 701 508 735 q 632 618 606 668 l 689 1022 l 719 1018 l 575 0 l 560 -119 q 557 -151 557 -142 q 643 -246 557 -246 q 757 -211 704 -246 l 771 -233 m 308 15 q 456 72 394 15 q 579 238 518 129 l 626 578 q 432 707 565 707 q 257 638 326 707 q 156 467 188 568 q 125 265 125 365 q 174 81 125 147 q 308 15 224 15 z "},"ƌ":{"ha":790,"x_min":94,"x_max":719,"o":"m 575 0 l 550 0 l 571 181 q 458 40 521 93 q 308 -14 396 -14 q 152 60 210 -14 q 94 264 94 133 q 128 478 94 369 q 238 660 163 586 q 432 735 314 735 q 557 701 508 735 q 632 618 606 668 l 685 988 l 349 988 l 353 1017 l 719 1017 l 575 0 m 626 578 q 432 707 565 707 q 257 638 326 707 q 156 467 188 568 q 125 265 125 365 q 174 81 125 147 q 308 15 224 15 q 456 72 394 15 q 579 238 518 129 l 626 578 z "},"ǳ":{"ha":1360,"x_min":94,"x_max":1360,"o":"m 719 1018 l 575 0 l 550 0 l 571 181 q 458 40 521 93 q 308 -14 396 -14 q 152 60 210 -14 q 94 264 94 133 q 128 478 94 369 q 239 660 163 586 q 432 735 315 735 q 557 701 508 735 q 632 618 606 668 l 689 1022 l 719 1018 m 432 707 q 258 638 326 707 q 157 466 189 568 q 125 265 125 364 q 174 81 125 146 q 310 15 224 15 q 456 72 394 15 q 579 238 518 129 l 626 578 q 432 707 568 707 m 1360 721 l 1356 696 l 828 29 l 1251 29 l 1244 0 l 783 0 l 788 25 l 1317 693 l 918 693 l 922 721 l 1360 721 z "},"ʣ":{"ha":1150,"x_min":94,"x_max":1150,"o":"m 1146 696 l 615 29 l 1042 29 l 1035 0 l 550 0 l 571 181 q 458 40 521 93 q 308 -14 396 -14 q 152 60 210 -14 q 94 264 94 133 q 128 478 94 369 q 239 660 163 586 q 432 735 315 735 q 557 701 508 735 q 632 618 606 668 l 689 1022 l 719 1018 l 678 721 l 1150 721 l 1146 696 m 310 15 q 456 72 394 15 q 579 238 518 129 l 626 578 q 432 707 568 707 q 258 638 326 707 q 157 466 189 568 q 125 265 125 364 q 174 81 125 146 q 310 15 224 15 m 579 28 l 1107 693 l 674 693 l 579 28 z "},"ǆ":{"ha":1360,"x_min":94,"x_max":1360,"o":"m 719 1018 l 575 0 l 550 0 l 571 181 q 458 40 521 93 q 308 -14 396 -14 q 152 60 210 -14 q 94 264 94 133 q 128 478 94 369 q 239 660 163 586 q 432 735 315 735 q 557 701 508 735 q 632 618 606 668 l 689 1022 l 719 1018 m 432 707 q 258 638 326 707 q 157 466 189 568 q 125 265 125 364 q 174 81 125 146 q 310 15 224 15 q 456 72 394 15 q 579 238 518 129 l 626 578 q 432 707 568 707 m 1360 721 l 1356 696 l 828 29 l 1251 29 l 1244 0 l 783 0 l 788 25 l 1317 693 l 918 693 l 922 721 l 1360 721 m 1343 1040 l 1358 1022 l 1172 890 l 1156 890 l 1008 1022 l 1025 1040 l 1168 924 l 1343 1040 z "},"ʥ":{"ha":1165,"x_min":94,"x_max":1174,"o":"m 1063 267 q 1144 238 1114 267 q 1174 160 1174 210 q 1099 35 1174 69 q 890 0 1025 0 q 869 -143 874 -101 l 840 -140 q 861 0 849 -69 l 550 0 l 571 181 q 458 40 521 93 q 308 -14 396 -14 q 152 60 210 -14 q 94 264 94 133 q 128 478 94 369 q 239 660 163 586 q 432 735 315 735 q 557 701 508 735 q 632 618 606 668 l 689 1022 l 719 1018 l 678 721 l 1151 721 l 1147 696 l 618 29 l 868 29 q 939 206 889 144 q 1063 267 989 267 m 310 15 q 456 72 394 15 q 579 238 518 129 l 626 578 q 432 707 568 707 q 258 638 326 707 q 157 466 189 568 q 125 265 125 364 q 174 81 125 146 q 310 15 224 15 m 674 693 l 579 26 l 1108 693 l 674 693 m 896 29 q 1078 55 1013 26 q 1144 158 1144 83 q 1063 239 1144 239 q 896 29 938 239 z "},"e":{"ha":707,"x_min":94,"x_max":654,"o":"m 654 571 q 519 381 654 449 q 125 297 385 313 l 125 272 q 182 80 125 144 q 339 15 239 15 q 449 34 401 15 q 554 93 497 53 l 571 71 q 459 7 514 28 q 339 -14 404 -14 q 159 60 224 -14 q 94 271 94 133 q 133 483 94 376 q 254 663 172 590 q 456 735 336 735 q 600 690 546 735 q 654 571 654 646 m 456 707 q 285 650 356 707 q 176 506 214 593 q 128 325 138 419 q 622 569 622 354 q 578 670 622 633 q 456 707 535 707 z "},"é":{"ha":707,"x_min":94,"x_max":654,"o":"m 654 571 q 519 381 654 449 q 125 297 385 313 l 125 272 q 182 80 125 144 q 339 15 239 15 q 449 34 401 15 q 554 93 497 53 l 571 71 q 459 7 514 28 q 339 -14 404 -14 q 159 60 224 -14 q 94 271 94 133 q 133 483 94 376 q 254 663 172 590 q 456 735 336 735 q 600 690 546 735 q 654 571 654 646 m 456 707 q 285 650 356 707 q 176 506 214 593 q 128 325 138 419 q 622 569 622 354 q 578 670 622 633 q 456 707 535 707 m 590 1057 l 603 1025 l 339 908 l 329 929 l 590 1057 z "},"ĕ":{"ha":707,"x_min":94,"x_max":654,"o":"m 654 571 q 519 381 654 449 q 125 297 385 313 l 125 272 q 182 80 125 144 q 339 15 239 15 q 449 34 401 15 q 554 93 497 53 l 571 71 q 459 7 514 28 q 339 -14 404 -14 q 159 60 224 -14 q 94 271 94 133 q 133 483 94 376 q 254 663 172 590 q 456 735 336 735 q 600 690 546 735 q 654 571 654 646 m 456 707 q 285 650 356 707 q 176 506 214 593 q 128 325 138 419 q 622 569 622 354 q 578 670 622 633 q 456 707 535 707 m 457 919 q 360 953 397 919 q 321 1040 324 988 l 344 1043 q 379 974 350 997 q 457 950 408 950 q 544 975 507 950 q 600 1046 581 1000 l 622 1038 q 560 952 604 985 q 457 919 515 919 z "},"ě":{"ha":707,"x_min":94,"x_max":654,"o":"m 654 571 q 519 381 654 449 q 125 297 385 313 l 125 272 q 182 80 125 144 q 339 15 239 15 q 449 34 401 15 q 554 93 497 53 l 571 71 q 459 7 514 28 q 339 -14 404 -14 q 159 60 224 -14 q 94 271 94 133 q 133 483 94 376 q 254 663 172 590 q 456 735 336 735 q 600 690 546 735 q 654 571 654 646 m 456 707 q 285 650 356 707 q 176 506 214 593 q 128 325 138 419 q 622 569 622 354 q 578 670 622 633 q 456 707 535 707 m 633 1040 l 649 1022 l 463 890 l 446 890 l 299 1022 l 315 1040 l 458 924 l 633 1040 z "},"ȩ":{"ha":707,"x_min":94,"x_max":654,"o":"m 654 571 q 519 381 654 449 q 125 297 385 313 l 125 272 q 182 80 125 144 q 339 15 239 15 q 449 34 401 15 q 554 93 497 53 l 571 71 q 459 7 514 28 q 339 -14 404 -14 l 336 -14 l 319 -103 q 408 -128 379 -107 q 436 -192 436 -150 q 400 -267 436 -239 q 307 -294 364 -294 q 214 -269 251 -294 l 228 -247 q 307 -267 260 -267 q 378 -247 351 -267 q 404 -192 404 -228 q 378 -142 404 -157 q 289 -126 351 -128 l 311 -12 q 151 69 208 -4 q 94 271 94 142 q 133 483 94 376 q 254 663 172 590 q 456 735 336 735 q 600 690 546 735 q 654 571 654 646 m 456 707 q 285 650 356 707 q 176 506 214 593 q 128 325 138 419 q 622 569 622 354 q 578 670 622 633 q 456 707 535 707 z "},"ê":{"ha":707,"x_min":94,"x_max":654,"o":"m 654 571 q 519 381 654 449 q 125 297 385 313 l 125 272 q 182 80 125 144 q 339 15 239 15 q 449 34 401 15 q 554 93 497 53 l 571 71 q 459 7 514 28 q 339 -14 404 -14 q 159 60 224 -14 q 94 271 94 133 q 133 483 94 376 q 254 663 172 590 q 456 735 336 735 q 600 690 546 735 q 654 571 654 646 m 456 707 q 285 650 356 707 q 176 506 214 593 q 128 325 138 419 q 622 569 622 354 q 578 670 622 633 q 456 707 535 707 m 297 908 l 282 926 l 468 1058 l 485 1058 l 632 926 l 615 908 l 472 1025 l 297 908 z "},"ế":{"ha":707,"x_min":94,"x_max":732,"o":"m 732 1088 l 568 935 l 553 951 l 710 1114 l 732 1088 m 456 924 l 279 814 l 265 833 l 449 957 l 465 957 l 614 832 l 597 814 l 456 924 m 456 735 q 600 690 546 735 q 654 571 654 646 q 519 381 654 449 q 125 297 385 313 l 125 272 q 182 80 125 144 q 339 15 239 15 q 449 34 401 15 q 554 93 497 53 l 571 71 q 459 7 514 28 q 339 -14 404 -14 q 159 60 224 -14 q 94 271 94 133 q 133 483 94 376 q 254 663 172 590 q 456 735 336 735 m 128 325 q 622 569 622 354 q 578 670 622 633 q 456 707 535 707 q 285 650 356 707 q 176 506 214 593 q 128 325 138 419 z "},"ệ":{"ha":707,"x_min":94,"x_max":654,"o":"m 654 571 q 519 381 654 449 q 125 297 385 313 l 125 272 q 182 80 125 144 q 339 15 239 15 q 449 34 401 15 q 554 93 497 53 l 571 71 q 459 7 514 28 q 339 -14 404 -14 q 159 60 224 -14 q 94 271 94 133 q 133 483 94 376 q 254 663 172 590 q 456 735 336 735 q 600 690 546 735 q 654 571 654 646 m 456 707 q 285 650 356 707 q 176 506 214 593 q 128 325 138 419 q 622 569 622 354 q 578 670 622 633 q 456 707 535 707 m 297 908 l 282 926 l 468 1058 l 485 1058 l 632 926 l 615 908 l 472 1025 l 297 908 m 313 -137 q 331 -144 324 -137 q 338 -161 338 -150 q 329 -183 338 -174 q 308 -192 321 -192 q 289 -185 296 -192 q 282 -167 282 -178 q 290 -147 282 -156 q 313 -137 299 -137 z "},"ề":{"ha":707,"x_min":94,"x_max":654,"o":"m 347 949 l 328 935 l 207 1092 l 235 1114 l 347 949 m 278 814 l 264 833 l 447 957 l 464 957 l 613 832 l 596 814 l 454 924 l 278 814 m 654 571 q 519 381 654 449 q 125 297 385 313 l 125 272 q 182 80 125 144 q 339 15 239 15 q 449 34 401 15 q 554 93 497 53 l 571 71 q 459 7 514 28 q 339 -14 404 -14 q 159 60 224 -14 q 94 271 94 133 q 133 483 94 376 q 254 663 172 590 q 456 735 336 735 q 600 690 546 735 q 654 571 654 646 m 456 707 q 285 650 356 707 q 176 506 214 593 q 128 325 138 419 q 622 569 622 354 q 578 670 622 633 q 456 707 535 707 z "},"ể":{"ha":707,"x_min":94,"x_max":746,"o":"m 654 571 q 519 381 654 449 q 125 297 385 313 l 125 272 q 182 80 125 144 q 339 15 239 15 q 449 34 401 15 q 554 93 497 53 l 571 71 q 459 7 514 28 q 339 -14 404 -14 q 159 60 224 -14 q 94 271 94 133 q 133 483 94 376 q 254 663 172 590 q 456 735 336 735 q 600 690 546 735 q 654 571 654 646 m 456 707 q 285 650 356 707 q 176 506 214 593 q 128 325 138 419 q 622 569 622 354 q 578 670 622 633 q 456 707 535 707 m 276 814 l 263 833 l 446 957 l 463 957 l 611 832 l 594 814 l 453 924 l 276 814 m 607 1019 q 684 1041 654 1022 q 714 1099 714 1060 q 651 1157 714 1157 q 609 1151 626 1157 q 568 1135 592 1146 l 556 1158 q 651 1185 604 1185 q 721 1162 696 1185 q 746 1099 746 1139 q 717 1031 746 1057 q 636 999 688 1006 l 626 922 l 596 922 l 607 1019 z "},"ễ":{"ha":707,"x_min":94,"x_max":654,"o":"m 389 1060 q 345 1049 363 1060 q 299 1010 328 1039 l 281 1024 q 335 1072 308 1056 q 389 1088 361 1088 q 424 1081 408 1088 q 468 1058 440 1074 q 508 1035 490 1043 q 546 1028 526 1028 q 589 1041 568 1028 q 635 1085 610 1054 l 654 1072 q 601 1017 626 1033 q 546 1000 575 1000 q 506 1008 524 1000 q 458 1032 488 1015 q 421 1053 436 1046 q 389 1060 406 1060 m 454 911 l 278 801 l 264 821 l 447 944 l 464 944 l 613 819 l 596 801 l 454 911 m 456 735 q 600 690 546 735 q 654 571 654 646 q 519 381 654 449 q 125 297 385 313 l 125 272 q 182 80 125 144 q 339 15 239 15 q 449 34 401 15 q 554 93 497 53 l 571 71 q 459 7 514 28 q 339 -14 404 -14 q 159 60 224 -14 q 94 271 94 133 q 133 483 94 376 q 254 663 172 590 q 456 735 336 735 m 128 325 q 622 569 622 354 q 578 670 622 633 q 456 707 535 707 q 285 650 356 707 q 176 506 214 593 q 128 325 138 419 z "},"ȅ":{"ha":707,"x_min":94,"x_max":654,"o":"m 654 571 q 519 381 654 449 q 125 297 385 313 l 125 272 q 182 80 125 144 q 339 15 239 15 q 449 34 401 15 q 554 93 497 53 l 571 71 q 459 7 514 28 q 339 -14 404 -14 q 159 60 224 -14 q 94 271 94 133 q 133 483 94 376 q 254 663 172 590 q 456 735 336 735 q 600 690 546 735 q 654 571 654 646 m 456 707 q 285 650 356 707 q 176 506 214 593 q 128 325 138 419 q 622 569 622 354 q 578 670 622 633 q 456 707 535 707 m 324 1099 l 397 918 l 372 906 l 290 1083 l 324 1099 m 476 1097 l 542 922 l 517 911 l 442 1081 l 476 1097 z "},"ë":{"ha":707,"x_min":94,"x_max":654,"o":"m 654 571 q 519 381 654 449 q 125 297 385 313 l 125 272 q 182 80 125 144 q 339 15 239 15 q 449 34 401 15 q 554 93 497 53 l 571 71 q 459 7 514 28 q 339 -14 404 -14 q 159 60 224 -14 q 94 271 94 133 q 133 483 94 376 q 254 663 172 590 q 456 735 336 735 q 600 690 546 735 q 654 571 654 646 m 456 707 q 285 650 356 707 q 176 506 214 593 q 128 325 138 419 q 622 569 622 354 q 578 670 622 633 q 456 707 535 707 m 347 935 q 329 941 336 935 q 322 958 322 947 q 331 980 322 971 q 351 989 339 989 q 371 982 364 989 q 378 964 378 975 q 369 944 378 953 q 347 935 360 935 m 576 935 q 558 941 565 935 q 551 958 551 947 q 560 980 551 971 q 582 989 568 989 q 600 982 593 989 q 607 964 607 975 q 599 943 607 951 q 576 935 590 935 z "},"ė":{"ha":707,"x_min":94,"x_max":654,"o":"m 654 571 q 519 381 654 449 q 125 297 385 313 l 125 272 q 182 80 125 144 q 339 15 239 15 q 449 34 401 15 q 554 93 497 53 l 571 71 q 459 7 514 28 q 339 -14 404 -14 q 159 60 224 -14 q 94 271 94 133 q 133 483 94 376 q 254 663 172 590 q 456 735 336 735 q 600 690 546 735 q 654 571 654 646 m 456 707 q 285 650 356 707 q 176 506 214 593 q 128 325 138 419 q 622 569 622 354 q 578 670 622 633 q 456 707 535 707 m 465 951 q 447 958 454 951 q 440 975 440 964 q 449 997 440 988 q 469 1006 457 1006 q 489 999 482 1006 q 496 981 496 992 q 488 960 496 969 q 465 951 479 951 z "},"ẹ":{"ha":707,"x_min":94,"x_max":654,"o":"m 654 571 q 519 381 654 449 q 125 297 385 313 l 125 272 q 182 80 125 144 q 339 15 239 15 q 449 34 401 15 q 554 93 497 53 l 571 71 q 459 7 514 28 q 339 -14 404 -14 q 159 60 224 -14 q 94 271 94 133 q 133 483 94 376 q 254 663 172 590 q 456 735 336 735 q 600 690 546 735 q 654 571 654 646 m 456 707 q 285 650 356 707 q 176 506 214 593 q 128 325 138 419 q 622 569 622 354 q 578 670 622 633 q 456 707 535 707 m 313 -137 q 331 -144 324 -137 q 338 -161 338 -150 q 329 -183 338 -174 q 308 -192 321 -192 q 289 -185 296 -192 q 282 -167 282 -178 q 290 -147 282 -156 q 313 -137 299 -137 z "},"è":{"ha":707,"x_min":94,"x_max":654,"o":"m 654 571 q 519 381 654 449 q 125 297 385 313 l 125 272 q 182 80 125 144 q 339 15 239 15 q 449 34 401 15 q 554 93 497 53 l 571 71 q 459 7 514 28 q 339 -14 404 -14 q 159 60 224 -14 q 94 271 94 133 q 133 483 94 376 q 254 663 172 590 q 456 735 336 735 q 600 690 546 735 q 654 571 654 646 m 456 707 q 285 650 356 707 q 176 506 214 593 q 128 325 138 419 q 622 569 622 354 q 578 670 622 633 q 456 707 535 707 m 378 1057 l 603 929 l 590 908 l 360 1025 l 378 1057 z "},"ẻ":{"ha":707,"x_min":94,"x_max":654,"o":"m 654 571 q 519 381 654 449 q 125 297 385 313 l 125 272 q 182 80 125 144 q 339 15 239 15 q 449 34 401 15 q 554 93 497 53 l 571 71 q 459 7 514 28 q 339 -14 404 -14 q 159 60 224 -14 q 94 271 94 133 q 133 483 94 376 q 254 663 172 590 q 456 735 336 735 q 600 690 546 735 q 654 571 654 646 m 456 707 q 285 650 356 707 q 176 506 214 593 q 128 325 138 419 q 622 569 622 354 q 578 670 622 633 q 456 707 535 707 m 447 961 q 524 983 494 964 q 554 1040 554 1001 q 492 1099 554 1099 q 449 1093 467 1099 q 408 1076 432 1088 l 396 1100 q 492 1126 444 1126 q 561 1103 536 1126 q 586 1040 586 1081 q 557 973 586 999 q 476 940 528 947 l 467 864 l 436 864 l 447 961 z "},"ȇ":{"ha":707,"x_min":94,"x_max":654,"o":"m 654 571 q 519 381 654 449 q 125 297 385 313 l 125 272 q 182 80 125 144 q 339 15 239 15 q 449 34 401 15 q 554 93 497 53 l 571 71 q 459 7 514 28 q 339 -14 404 -14 q 159 60 224 -14 q 94 271 94 133 q 133 483 94 376 q 254 663 172 590 q 456 735 336 735 q 600 690 546 735 q 654 571 654 646 m 456 707 q 285 650 356 707 q 176 506 214 593 q 128 325 138 419 q 622 569 622 354 q 578 670 622 633 q 456 707 535 707 m 299 889 q 360 974 315 942 q 464 1007 404 1007 q 560 974 524 1007 q 599 886 596 940 l 575 883 q 540 953 568 929 q 463 978 511 978 q 376 953 413 978 q 319 882 339 928 l 299 889 z "},"ē":{"ha":707,"x_min":94,"x_max":654,"o":"m 654 571 q 519 381 654 449 q 125 297 385 313 l 125 272 q 182 80 125 144 q 339 15 239 15 q 449 34 401 15 q 554 93 497 53 l 571 71 q 459 7 514 28 q 339 -14 404 -14 q 159 60 224 -14 q 94 271 94 133 q 133 483 94 376 q 254 663 172 590 q 456 735 336 735 q 600 690 546 735 q 654 571 654 646 m 456 707 q 285 650 356 707 q 176 506 214 593 q 128 325 138 419 q 622 569 622 354 q 578 670 622 633 q 456 707 535 707 m 606 951 l 318 951 l 322 981 l 610 981 l 606 951 z "},"ę":{"ha":707,"x_min":94,"x_max":654,"o":"m 654 571 q 519 381 654 449 q 125 297 385 313 l 125 272 q 182 80 125 144 q 339 15 239 15 q 449 34 401 15 q 554 93 497 53 l 571 71 q 456 6 517 29 q 331 -68 374 -31 q 288 -160 288 -106 q 314 -221 288 -199 q 388 -243 340 -243 q 461 -233 421 -243 l 458 -264 q 383 -274 418 -274 q 287 -242 319 -274 q 254 -160 254 -211 q 284 -78 254 -114 q 372 -12 314 -42 q 339 -14 361 -14 q 159 60 224 -14 q 94 271 94 133 q 133 483 94 376 q 254 663 172 590 q 456 735 336 735 q 600 690 546 735 q 654 571 654 646 m 456 707 q 285 650 356 707 q 176 506 214 593 q 128 325 138 419 q 622 569 622 354 q 578 670 622 633 q 456 707 535 707 z "},"ɛ":{"ha":635,"x_min":78,"x_max":611,"o":"m 300 -14 q 139 38 200 -14 q 78 178 78 89 q 133 317 78 258 q 296 381 189 375 q 158 531 158 406 q 185 626 158 579 q 269 704 213 674 q 408 735 326 735 q 524 718 475 735 q 611 671 572 701 l 590 650 q 408 707 518 707 q 284 681 333 707 q 212 614 235 654 q 189 531 189 574 q 233 431 189 468 q 365 393 278 393 l 446 393 l 439 365 l 358 365 q 165 310 222 365 q 108 176 108 256 q 160 58 108 100 q 300 15 211 15 q 424 34 374 15 q 528 93 474 53 l 544 71 q 434 8 492 29 q 300 -14 376 -14 z "},"ʚ":{"ha":760,"x_min":78,"x_max":664,"o":"m 300 -14 q 139 38 200 -14 q 78 178 78 89 q 133 317 78 258 q 296 381 189 375 q 158 531 158 406 q 185 626 158 579 q 269 704 213 674 q 406 735 325 735 q 597 660 529 735 q 664 446 664 585 q 622 214 664 318 q 498 48 581 110 q 300 -14 415 -14 m 301 15 q 483 74 408 15 q 596 231 558 132 q 633 446 633 329 q 574 640 633 574 q 406 707 515 707 q 283 681 332 707 q 212 614 235 654 q 189 531 189 574 q 233 431 189 468 q 365 393 278 393 l 422 393 l 414 365 l 358 365 q 165 310 222 365 q 108 176 108 256 q 160 58 108 100 q 301 15 213 15 z "},"ɜ":{"ha":643,"x_min":11,"x_max":542,"o":"m 344 735 q 489 689 436 735 q 542 567 542 643 q 492 442 542 492 q 353 382 443 392 q 482 333 435 375 q 529 215 529 292 q 501 105 529 157 q 410 19 472 53 q 254 -14 349 -14 q 114 13 172 -14 q 11 83 56 39 l 32 103 q 126 38 74 61 q 253 15 178 15 q 438 74 379 15 q 497 215 497 133 q 443 329 497 290 q 285 368 389 368 l 206 368 l 213 394 l 286 394 q 452 443 396 394 q 508 567 508 492 q 466 669 508 631 q 344 707 424 707 q 233 691 282 707 q 124 640 185 675 l 108 663 q 224 717 168 699 q 344 735 279 735 z "},"ɞ":{"ha":753,"x_min":96,"x_max":651,"o":"m 358 -14 q 163 60 231 -14 q 96 271 96 135 q 138 502 96 396 q 260 672 179 608 q 456 735 342 735 q 599 688 546 735 q 651 565 651 642 q 603 442 651 489 q 463 382 556 394 q 592 333 544 375 q 639 215 639 292 q 610 105 639 157 q 519 19 582 53 q 358 -14 456 -14 m 358 15 q 547 74 488 15 q 607 215 607 133 q 553 329 607 290 q 394 368 499 368 l 342 368 l 349 394 l 396 394 q 562 442 506 394 q 618 565 618 489 q 576 668 618 629 q 456 707 535 707 q 275 647 349 707 q 165 487 201 586 q 128 271 128 388 q 186 81 128 147 q 358 15 244 15 z "},"ɝ":{"ha":832,"x_min":11,"x_max":899,"o":"m 899 504 q 771 464 839 464 q 684 495 717 464 q 651 585 651 526 q 654 619 651 594 l 665 692 l 529 633 q 542 567 542 603 q 492 442 542 492 q 353 382 443 392 q 482 333 435 375 q 529 215 529 292 q 501 105 529 157 q 410 19 472 53 q 254 -14 349 -14 q 114 13 172 -14 q 11 83 56 39 l 32 103 q 126 38 74 61 q 253 15 178 15 q 438 74 379 15 q 497 215 497 133 q 443 329 497 290 q 285 368 389 368 l 206 368 l 213 394 l 286 394 q 452 443 396 394 q 508 567 508 492 q 466 669 508 631 q 344 707 424 707 q 233 691 282 707 q 124 640 185 675 l 108 663 q 224 717 168 699 q 344 735 279 735 q 449 715 404 735 q 517 657 493 694 l 669 721 l 700 721 l 685 617 q 682 585 682 594 q 706 513 682 536 q 771 490 729 490 q 831 499 806 490 q 883 526 856 508 l 899 504 z "},"ɘ":{"ha":711,"x_min":57,"x_max":614,"o":"m 346 735 q 548 650 482 735 q 614 438 614 565 q 572 213 614 317 q 452 48 531 110 q 268 -14 374 -14 q 152 7 201 -14 q 57 71 103 28 l 78 92 q 163 34 119 53 q 268 15 207 15 q 460 94 383 15 q 567 297 538 172 q 303 326 404 303 q 154 397 203 350 q 106 521 106 444 q 135 631 106 582 q 220 707 165 679 q 346 735 275 735 m 138 521 q 181 412 138 453 q 319 350 225 371 q 572 325 414 329 q 582 436 582 375 q 524 631 582 554 q 346 707 467 707 q 193 655 249 707 q 138 521 138 603 z "},"ʃ":{"ha":358,"x_min":-149,"x_max":510,"o":"m 390 1024 q 458 1012 431 1024 q 510 981 486 1000 l 493 961 q 447 987 471 978 q 390 996 424 996 q 308 965 342 996 q 265 867 275 933 l 244 721 l 246 721 l 143 0 l 126 -121 q 73 -235 115 -196 q -31 -274 31 -274 q -149 -231 -97 -274 l -131 -211 q -87 -237 -110 -228 q -31 -246 -64 -246 q 52 -215 18 -246 q 96 -118 86 -185 l 113 0 l 215 721 l 214 721 l 236 871 q 288 985 247 946 q 390 1024 329 1024 z "},"ʆ":{"ha":376,"x_min":-182,"x_max":528,"o":"m 408 1024 q 476 1012 449 1024 q 528 981 504 1000 l 511 961 q 465 987 489 978 q 408 996 442 996 q 326 965 360 996 q 283 867 293 933 l 263 721 l 156 -40 q 278 -87 214 -57 l 265 -111 q 151 -68 210 -83 q 85 -219 135 -165 q -51 -274 35 -274 q -147 -242 -111 -274 q -182 -160 -182 -210 q -132 -59 -182 -96 q -4 -22 -82 -22 q 125 -35 60 -22 l 232 721 l 254 871 q 306 985 265 946 q 408 1024 347 1024 m -50 -246 q 64 -201 25 -246 q 119 -62 103 -156 q 63 -53 92 -57 q -4 -50 33 -50 q -112 -78 -72 -50 q -151 -160 -151 -107 q -125 -223 -151 -200 q -50 -246 -99 -246 z "},"ƪ":{"ha":363,"x_min":11,"x_max":344,"o":"m 344 -233 q 217 -274 288 -274 q 131 -243 163 -274 q 100 -154 100 -212 q 103 -119 100 -144 l 118 0 l 222 747 q 126 724 178 724 q 43 756 75 724 q 11 842 11 788 q 57 971 11 918 q 169 1024 103 1024 q 247 993 218 1024 q 275 911 275 963 q 272 882 275 901 l 149 0 l 133 -119 q 131 -151 131 -142 q 217 -246 131 -246 q 331 -211 278 -246 l 344 -233 m 129 751 q 226 776 183 751 l 242 883 q 244 911 244 903 q 225 973 244 950 q 167 996 206 996 q 77 951 111 996 q 43 842 43 907 q 66 774 43 796 q 129 751 89 751 z "},"ʅ":{"ha":521,"x_min":64,"x_max":457,"o":"m 457 26 q 329 -14 400 -14 q 244 17 275 -14 q 213 106 213 47 q 215 140 213 115 l 231 260 l 260 461 l 275 581 q 278 613 278 603 q 192 707 278 707 q 78 672 129 707 l 64 694 q 192 735 121 735 q 277 704 246 735 q 308 615 308 674 q 306 581 308 606 l 290 461 l 261 260 l 246 140 q 243 108 243 118 q 329 14 243 14 q 443 49 392 14 l 457 26 z "}}}
